<?xml version="1.0" encoding="utf-8" ?>
<svg baseProfile="full" height="200mm" version="1.1" viewBox="0,0,200,200" width="200mm" xmlns="http://www.w3.org/2000/svg" xmlns:ev="http://www.w3.org/2001/xml-events" xmlns:xlink="http://www.w3.org/1999/xlink"><defs /><rect fill="#1a1a1a" height="200" width="200" x="0" y="0" /><text alignment-baseline="middle" fill="#e1ed5e" style="dominant-baseline: central; font-size:9.0px; font-family:Arial;" text-anchor="middle" x="100.0" y="100.0">2020</text><line stroke="#e1ed5e" stroke-width="0.3" x1="100.0" x2="100.0" y1="15.0" y2="10.0" /><path d="M 100.0 14.0 a86.0,86.0 0 0,1 42.35913384403234,11.155469271406648" fill="none" id="id85" stroke="none" /><text fill="#e1ed5e" style="font-size:6.75px; font-family:Arial;" text-anchor="middle"><textPath startOffset="22.145653131862478" xlink:href="#id85">January</textPath></text><path d="M 103.58742460773223 79.30868818359171 l 2.121443628541062 -12.235923097718853 a33.418467583497055,33.418467583497055 0 0,0 0.5643985576103075,0.10285221830175556 l -2.3311769197024232 12.197702705485732" fill="#ff6008" stroke="none" /><path d="M 104.9986988182912 79.60360301121754 l 2.617196925490381 -10.679056576641504 a31.9950884086444,31.9950884086444 0 0,0 0.5323292634650425,0.13531601711542224 l -2.800131482180818 10.632555327690813" fill="#ff4a06" stroke="none" /><path d="M 105.69591212413111 79.78721728523813 l 4.347469273526398 -15.427634743978365 a37.02848722986248,37.02848722986248 0 0,0 0.6103352433939293,0.17765969423082897 l -4.611664529301932 15.350731355445019" fill="#ff950d" stroke="none" /><path d="M 106.04205211174951 79.88797359093562 l 4.202134474576277 -13.987538995695072 a35.60510805500982,35.60510805500982 0 0,0 0.5838548798266859,0.1808797342295951 l -4.4416299872745935 13.91334267365883" fill="#ff800b" stroke="none" /><path d="M 106.72888874123014 80.10723608172694 l 4.679816531228815 -13.835046025675169 a35.60510805500982,35.60510805500982 0 0,0 0.5773016084973461,0.20081546698095568 l -4.91662391177118 13.752672126125622" fill="#ff800b" stroke="none" /><path d="M 110.34350942703115 81.72400993836675 l 5.334324606278345 -9.425240454182184 a31.83005893909627,31.83005893909627 0 0,0 0.47321829282063543,0.27321270874544906 l -5.495335366959378 9.332280848160563" fill="#ff4806" stroke="none" /><line stroke="#e1ed5e" stroke-width="0.3" x1="143.13028292997686" x2="145.6673583964461" y1="26.7553504044142" y2="22.446841604673864" /><path d="M 143.63769802327073 25.89364864446614 a86.0,86.0 0 0,1 29.32050498858742,28.57503671076993" fill="none" id="id86" stroke="none" /><text fill="#e1ed5e" style="font-size:6.75px; font-family:Arial;" text-anchor="middle"><textPath startOffset="20.669276256404974" xlink:href="#id86">February</textPath></text><path d="M 110.96478420261332 82.08984904055464 l 7.6473445813904295 -12.491362653444204 a35.646365422396855,35.646365422396855 0 0,0 0.519139867830429,0.3239816729448032 l -7.86064857801057 12.358245183657855" fill="#ff810b" stroke="none" /><path d="M 111.5731344415666 82.4767994020092 l 7.764686467180736 -11.756724959162783 a35.08939096267191,35.08939096267191 0 0,0 0.4997793850167007,0.3362738746845195 l -7.965362140294437 11.621701410421144" fill="#ff790b" stroke="none" /><path d="M 112.16784306229584 82.88440491214696 l 3.6097137571840303 -5.077514456317896 a27.229862475442044,27.229862475442044 0 0,0 0.3786493775111645,0.27411294871074793 l -3.6963441450691605 5.014800736234073" fill="#ff0000" stroke="none" /><path d="M 112.7482090630111 83.31218511350987 l 8.941278262269083 -11.704420264198378 a35.72888015717092,35.72888015717092 0 0,0 0.4841944753357451,0.376512552645177 l -9.140882682240054 11.54920665993241" fill="#ff820c" stroke="none" /><path d="M 113.31354834802062 83.75963576809568 l 8.409245174633849 -10.257911788914031 a34.26424361493124,34.26424361493124 0 0,0 0.4516772406258313,0.37680521858780314 l -8.584096749421574 10.112044386414357" fill="#ff6c0a" stroke="none" /><path d="M 114.39649973595853 84.71141617570332 l 9.955929090486054 -10.572851682028352 a35.52259332023576,35.52259332023576 0 0,0 0.44035754355592593,0.42185256543594396 l -10.135959119907291 10.400386986286827" fill="#ff7f0b" stroke="none" /><path d="M 115.16444852881244 85.47280134310134 l 11.960251202144901 -11.457650099827047 a37.56277013752456,37.56277013752456 0 0,0 0.4420675956283342,0.4694604671778636 l -12.155174631509494 11.250648172704686" fill="#ff9d0e" stroke="none" /><path d="M 115.41159269507618 85.73525988315684 l 12.170313720600925 -11.264660687554237 a37.583398821218076,37.583398821218076 0 0,0 0.4341818554382941,0.4772419165928073 l -12.361893276881096 11.054081195403759" fill="#ff9d0e" stroke="none" /><path d="M 117.42321728460499 88.27688183743584 l 10.371777676297276 -6.978594898343695 a33.50098231827112,33.50098231827112 0 0,0 0.31694411708520986,0.4798937893687315 l -10.49004623230321 6.7995212306359045" fill="#ff6109" stroke="none" /><path d="M 117.81537515405839 88.88188828441811 l 12.51276349229051 -7.808889859175884 a35.749508840864436,35.749508840864436 0 0,0 0.32043822946835726,0.5234117659687099 l -12.644969686214269 7.59294097708262" fill="#ff820c" stroke="none" /><line stroke="#e1ed5e" stroke-width="0.3" x1="172.87174338648825" x2="177.1583165268699" y1="56.24261187166439" y2="53.66864786411523" /><path d="M 173.72905801456457 55.72781907015455 a86.0,86.0 0 0,1 12.242430191666344,42.057860355516425" fill="none" id="id87" stroke="none" /><text fill="#e1ed5e" style="font-size:6.75px; font-family:Arial;" text-anchor="middle"><textPath startOffset="22.145653131862474" xlink:href="#id87">March</textPath></text><path d="M 118.18653347947321 89.5 l 12.523339851778704 -7.230353634577606 a35.46070726915521,35.46070726915521 0 0,0 0.2998399268450439,0.5297884206283066 l -12.645613143645125 7.01430844385018" fill="#ff7e0b" stroke="none" /><path d="M 118.53625476483649 90.13048839642627 l 12.87341072567721 -6.854366113680375 a35.584479371316306,35.584479371316306 0 0,0 0.2824593133774269,0.541652977057702 l -12.989178108029583 6.632366893518175" fill="#ff800b" stroke="none" /><path d="M 118.8641267826498 90.77261029715802 l 13.286423284047064 -6.499055419388696 a35.79076620825147,35.79076620825147 0 0,0 0.26522788550054294,0.5542242720206733 l -13.396030427507519 6.270018645302919" fill="#ff830c" stroke="none" /><path d="M 119.16976305983485 91.42560881287824 l 13.219227571713226 -5.912792351040743 a35.481335952848724,35.481335952848724 0 0,0 0.2439191777316415,0.5581348133453233 l -13.318780631461838 5.68499546791957" fill="#ff7e0b" stroke="none" /><path d="M 119.4528033332814 92.08871423366111 l 13.395299741287092 -5.447751789983851 a35.46070726915521,35.46070726915521 0 0,0 0.22448540052380364,0.5658498540372114 l -13.48684381677702 5.217000918733074" fill="#ff7e0b" stroke="none" /><path d="M 120.7213421655516 96.59031103205396 l 14.716631027204139 -2.421616035191542 a35.914538310412574,35.914538310412574 0 0,0 0.09488023790499046,0.6091991898402366 l -14.756032757247395 2.1686286634198644" fill="#ff850c" stroke="none" /><path d="M 120.96210409425399 98.7389718711861 l 9.492662070187713 -0.571054977783117 a30.509823182711198,30.509823182711198 0 0,0 0.026962563058672905,0.5230665202316458 l -9.501066222702958 0.40801666417474053" fill="#ff3404" stroke="none" /><line stroke="#e1ed5e" stroke-width="0.3" x1="184.99686870605535" x2="189.99668451229388" y1="99.2704041080226" y2="99.22748670261217" /><path d="M 185.99683186730306 99.26182062694052 a86.0,86.0 0 0,1 -10.086455211305974,41.156179273409016" fill="none" id="id88" stroke="none" /><text fill="#e1ed5e" style="font-size:6.75px; font-family:Arial;" text-anchor="middle"><textPath startOffset="21.40746469413373" xlink:href="#id88">April</textPath></text><path d="M 120.99922638620191 99.81974689727618 l 10.35521772679112 -0.08888708994829249 a31.355599214145386,31.355599214145386 0 0,0 0.0,0.5382803853442375 l -10.35521772679112 -0.08888708994829123" fill="#ff4106" stroke="none" /><path d="M 120.99303781780057 100.54070618675476 l 13.645474581570372 0.35145902139059043 a34.65,34.65 0 0,0 -0.020419266455204425,0.5944846634692174 l -13.637430628118324 -0.5856499494239185" fill="#ff720a" stroke="none" /><path d="M 120.96210409425399 101.26102812881392 l 21.95461236276386 1.320734961632018 a42.994302554027506,42.994302554027506 0 0,0 -0.05064327322177728,0.7363420779739857 l -21.92870512837702 -1.6974204637603472" fill="#ffe815" stroke="none" /><path d="M 120.9064616781168 101.97986365728391 l 11.480070803602445 1.087174640885763 a32.53143418467583,32.53143418467583 0 0,0 -0.05742202068409883,0.555505961060724 l -11.459716390436679 -1.2840851242294185" fill="#ff5207" stroke="none" /><path d="M 120.65975698304385 103.76489593502545 l 24.393937027130356 4.445387931140069 a45.79567779960708,45.79567779960708 0 0,0 -0.14757920543576278,0.772196763876269 l -24.314031529412436 -4.863487260049652" fill="#f0ff19" stroke="none" /><path d="M 120.51834098615036 104.47187691870673 l 8.24361636869892 1.7966578190088907 a29.43713163064833,29.43713163064833 0 0,0 -0.11184587481062218,0.4928135613644625 l -8.211559632330633 -1.9379057143123701" fill="#ff2303" stroke="none" /><path d="M 120.26092885502905 105.52220625578681 l 9.214941119723434 2.5115731792036264 a30.551080550098234,30.551080550098234 0 0,0 -0.1422538440447421,0.5048087079564287 l -9.170468783604113 -2.6693898110630636" fill="#ff3405" stroke="none" /><path d="M 120.05942366710727 106.21446072829308 l 11.881957240928962 3.681060726091084 a33.43909626719057,33.43909626719057 0 0,0 -0.1745764201621512,0.5468581496918147 l -11.817016104989555 -3.8844879094742826" fill="#ff6008" stroke="none" /><path d="M 119.71291397450082 107.23885506374661 l 20.971597086821614 7.701060937168545 a43.34086444007859,43.34086444007859 0 0,0 -0.2624584806540867,0.6962023018782635 l -20.836307922353086 -8.059931519240967" fill="#ffed16" stroke="none" /><path d="M 118.8641267826498 109.22738970284198 l 20.383634048049895 9.97065684982924 a43.69155206286837,43.69155206286837 0 0,0 -0.3353432454003447,0.6709111283351537 l -20.20947088943782 -10.31909983432814" fill="#fff216" stroke="none" /><path d="M 118.5362547648365 109.86951160357373 l 19.02788431164454 10.131276646104658 a42.556974459724955,42.556974459724955 0 0,0 -0.3488752885496619,0.6418912362886969 l -18.85116367347954 -10.456422715867957" fill="#ffe215" stroke="none" /><line stroke="#e1ed5e" stroke-width="0.3" x1="174.33088141563837" x2="178.70328620479359" y1="141.23008692659167" y2="143.65538615756765" /><path d="M 175.20536237346943 141.71514677278685 a86.0,86.0 0 0,1 -30.301960400862466,31.631185727798858" fill="none" id="id89" stroke="none" /><text fill="#e1ed5e" style="font-size:6.75px; font-family:Arial;" text-anchor="middle"><textPath startOffset="22.145653131862474" xlink:href="#id89">May</textPath></text><path d="M 118.18653347947321 110.5 l 11.165602578262042 6.446463654223966 a33.89292730844794,33.89292730844794 0 0,0 -0.29523368787504467,0.5013713462610002 l -11.053295180257232 -6.637186168778515" fill="#ff6709" stroke="none" /><path d="M 117.81537515405839 111.11811171558189 l 19.32040684683738 12.057362803538707 a43.77406679764243,43.77406679764243 0 0,0 -0.40330988052049266,0.6340701201688194 l -19.110579274691 -12.387246598386199" fill="#fff316" stroke="none" /><path d="M 117.62189284568427 111.42229804090321 l 17.58727223105621 11.399857376775707 a41.95874263261297,41.95874263261297 0 0,0 -0.39696079689120034,0.6010492411182219 l -17.388986995244284 -11.70008649623299" fill="#ffda14" stroke="none" /><path d="M 117.01052211995028 112.31430620078461 l 11.780371409199358 8.528080423922543 a35.54322200392927,35.54322200392927 0 0,0 -0.36202968591066814,0.49116279875218105 l -11.632239703704858 -8.729049531943604" fill="#ff7f0b" stroke="none" /><path d="M 116.79662413953412 112.60449989151573 l 10.015275886735957 7.515649738850734 a33.52161100196464,33.52161100196464 0 0,0 -0.34933991827038835,0.4572971669779746 l -9.884783991111265 -7.686467819069583" fill="#ff6109" stroke="none" /><path d="M 116.35404254752997 113.17365903436017 l 17.028767289176592 13.71716952497228 a42.8664047151277,42.8664047151277 0 0,0 -0.46653586406889186,0.5690978964936462 l -16.790784605869074 -14.007469703164418" fill="#ffe715" stroke="none" /><path d="M 115.89218393027572 113.72728997021213 l 11.380552146533395 9.830249890259955 a36.03831041257367,36.03831041257367 0 0,0 -0.4084151977056494,0.4647015232452562 l -11.21012588486916 -10.024163691316504" fill="#ff870c" stroke="none" /><path d="M 115.41159269507618 114.26474011684316 l 13.716014716835971 12.695338453693417 a39.68958742632613,39.68958742632613 0 0,0 -0.4670976187538662,0.4960414843485142 l -13.496061264345846 -12.928921397986427" fill="#ffbb11" stroke="none" /><path d="M 114.91283532996326 114.78537596483092 l 16.348452090608045 16.20872257048262 a44.02161100196464,44.02161100196464 0 0,0 -0.5366613383523182,0.5320745168684046 l -16.067798832125764 -16.486977097579686" fill="#fff617" stroke="none" /><path d="M 114.13192950727249 115.5334660781643 l 31.8037824176437 34.95792807964088 a68.26031434184677,68.26031434184677 0 0,0 -0.873520654461142,0.7811075556148062 l -31.19899673635918 -35.49873116513907" fill="#38ff7e" stroke="none" /><path d="M 111.5731344415666 117.5232005979908 l 12.800932594502942 19.382243490508483 a44.22789783889981,44.22789783889981 0 0,0 -0.6371225976826831,0.41297517032107056 l -12.466324364563249 -19.599132502533447" fill="#fff917" stroke="none" /><path d="M 111.27062007382361 117.71928675628689 l 11.879543555218797 18.676615608542086 a43.13457760314342,43.13457760314342 0 0,0 -0.6281952914545247,0.3920403229904949 l -11.557184134974557 -18.877791728374127" fill="#ffea16" stroke="none" /><line stroke="#e1ed5e" stroke-width="0.3" x1="143.1302829299769" x2="145.66735839644613" y1="173.24464959558577" y2="177.55315839532614" /><path d="M 143.63769802327073 174.10635135553383 a86.0,86.0 0 0,1 -40.68552437913181,11.842963189579606" fill="none" id="id90" stroke="none" /><text fill="#e1ed5e" style="font-size:6.75px; font-family:Arial;" text-anchor="middle"><textPath startOffset="21.407464694133747" xlink:href="#id90">June</textPath></text><path d="M 110.65571695917076 118.09573695890943 l 11.325624508666765 19.233386433732814 a43.320235756385074,43.320235756385074 0 0,0 -0.6440430427241288,0.3718384240864828 l -10.993788998082238 -19.42497175509547" fill="#ffed16" stroke="none" /><path d="M 110.34350942703117 118.27599006163325 l 13.239285641867976 23.39254916533215 a47.879174852652255,47.879174852652255 0 0,0 -0.7187708637423426,0.3986900818071448 l -12.83577058996954 -23.61637216257244" fill="#d5ff1c" stroke="none" /><path d="M 109.3889696526874 118.78422872680471 l 7.848735927737693 15.702729515236552 a38.555009823182715,38.555009823182715 0 0,0 -0.5945545128970455,0.29082640576452784 l -7.578021165578578 -15.835149671098304" fill="#ffab0f" stroke="none" /><path d="M 108.07796709384702 119.3841803445677 l 12.085210102091375 29.000104778758942 a52.417485265225935,52.417485265225935 0 0,0 -0.8335516838065715,0.33899821319451945 l -11.585603957094362 -29.203290248532753" fill="#9dff22" stroke="none" /><path d="M 107.407793817531 119.65005319985036 l 7.284088026864957 19.321908892976634 a41.649312377210215,41.649312377210215 0 0,0 -0.6711704349806655,0.2464630804041164 l -6.9513284402301645 -19.44410282238947" fill="#ffd614" stroke="none" /><path d="M 106.72888874123015 119.89276391827305 l 6.8478671276173175 20.24450237655293 a42.3713163064833,42.3713163064833 0 0,0 -0.6910101148050628,0.22714874994130896 l -6.499334275164521 -20.35907204789626" fill="#ffe015" stroke="none" /><path d="M 105.69591212413111 120.21278271476187 l 11.87860652213197 42.152983991590816 a64.79469548133595,64.79469548133595 0 0,0 -1.0731809623419672,0.29250024351006854 l -11.153244158855307 -42.350684729245025" fill="#33ff52" stroke="none" /><path d="M 103.94208987418118 120.62667999033965 l 3.14399093207043 16.450689080704095 a37.74842829076621,37.74842829076621 0 0,0 -0.6375264941796862,0.11617856436443784 l -2.861129704339686 -16.502235818999896" fill="#ff9f0e" stroke="none" /><path d="M 100.72087961077811 120.9876233191556 l 1.0168792937891626 29.605331126038763 a50.622789783889985,50.622789783889985 0 0,0 -0.8687514020337865,0.02237595444301505 l -0.5085145776846322 -29.618424797831825" fill="#b3ff20" stroke="none" /><line stroke="#e1ed5e" stroke-width="0.3" x1="101.45913802915013" x2="101.54496967792366" y1="184.9874750549273" y2="189.98673829345242" /><path d="M 101.47630435890484 185.9873277026323 a86.0,86.0 0 0,1 -42.54439059252881,-10.42667462771756" fill="none" id="id91" stroke="none" /><text fill="#e1ed5e" style="font-size:6.75px; font-family:Arial;" text-anchor="middle"><textPath startOffset="22.145653131862474" xlink:href="#id91">July</textPath></text><path d="M 100.0 121.0 l 3.7111128788700096e-15 30.30353634577603 a51.30353634577603,51.30353634577603 0 0,0 -0.8806934224941997,-0.007559693820785485 l 0.5202004976453439 -30.29907105014968" fill="#abff21" stroke="none" /><path d="M 99.27912038922189 120.98762331915562 l -0.6132433624104513 17.85391138937992 a38.86444007858546,38.86444007858546 0 0,0 -0.6665700069037522,-0.02862538417066693 l 0.9196391299150424 -17.840753436783423" fill="#ffaf10" stroke="none" /><path d="M 97.48249496171623 120.84855314841334 l -3.477025622619824 28.79476004584397 a50.00392927308448,50.00392927308448 0 0,0 -0.8513101765586595,-0.11021914617901533 l 3.9708136210692775 -28.730829303464557" fill="#bbff1f" stroke="none" /><path d="M 96.76829788921471 120.74984581791261 l -4.7713637254521535 30.635577862792406 a52.0049115913556,52.0049115913556 0 0,0 -0.8809198573705569,-0.14495502730100202 l 5.296561085875775 -30.549156836995735" fill="#a2ff22" stroke="none" /><path d="M 96.05791012581884 120.62667999033965 l -5.336149161710857 27.920987256078625 a49.42632612966601,49.42632612966601 0 0,0 -0.8320180949585702,-0.16642692101746945 l 5.814663742200385 -27.825270938398294" fill="#c2ff1e" stroke="none" /><path d="M 90.93487009805054 118.94263497670748 l -14.38043052913378 30.04956898220522 a54.313261296660116,54.313261296660116 0 0,0 -0.8375615714321193,-0.40969333533303187 l 14.89415234982797 -29.798281896774967" fill="#87ff25" stroke="none" /><path d="M 90.28995756902619 118.62028667847754 l -9.605120557947574 18.419085152482207 a41.77308447937132,41.77308447937132 0 0,0 -0.6329839371632734,-0.3370282935773963 l 9.91989331089741 -18.251486391182237" fill="#ffd814" stroke="none" /><line stroke="#e1ed5e" stroke-width="0.3" x1="58.13341422392154" x2="55.67067388415222" y1="173.97424548756322" y2="178.32567169271397" /><path d="M 57.64086615596768 174.84453072859336 a86.0,86.0 0 0,1 -31.369924170532247,-30.572349798747897" fill="none" id="id92" stroke="none" /><text fill="#e1ed5e" style="font-size:6.75px; font-family:Arial;" text-anchor="middle"><textPath startOffset="22.145653131862474" xlink:href="#id92">August</textPath></text><path d="M 87.83215693770417 117.11559508785305 l -14.689861614500563 20.66313002256522 a46.352652259332025,46.352652259332025 0 0,0 -0.6445645085360763,-0.4666149967826347 l 15.042407133410594 -20.40791425440952" fill="#e9ff1a" stroke="none" /><path d="M 86.96720088162412 116.46651593811092 l -15.490851604356399 19.572184955907872 a45.96070726915521,45.96070726915521 0 0,0 -0.6144491980829829,-0.4949567793990975 l 15.824551572794643 -19.30337988271536" fill="#eeff19" stroke="none" /><path d="M 86.68645165197938 116.24036423190432 l -6.565227181440424 8.008509670349682 a31.355599214145386,31.355599214145386 0 0,0 -0.4133349823908872,-0.34481874307854354 l 6.7017364979932035 -7.8946287433592675" fill="#ff4106" stroke="none" /><path d="M 86.40962598614128 116.0094264158162 l -16.43393950005903 19.359139408516448 a46.39390962671906,46.39390962671906 0 0,0 -0.6027243123902968,-0.52061890578275 l 16.763843292212186 -19.074176370268976" fill="#e9ff1a" stroke="none" /><path d="M 85.86807049272751 115.53346607816431 l -14.104165402150148 15.5029484630795 a41.95874263261297,41.95874263261297 0 0,0 -0.5286206730328002,-0.4892834031107465 l 14.368215846496916 -15.258547313836374" fill="#ffda14" stroke="none" /><path d="M 82.576782715395 111.72311816256416 l -8.574687484859629 5.769432415957411 a31.334970530451866,31.334970530451866 0 0,0 -0.29645204054952473,-0.44886617367678416 l 8.67246396432988 -5.621386363941565" fill="#ff4006" stroke="none" /><path d="M 82.37810715431573 111.42229804090323 l -8.67246396432988 5.621386363941565 a31.334970530451866,31.334970530451866 0 0,0 -0.28870297290793046,-0.4538890257004885 l 8.767684628863702 -5.471683663562405" fill="#ff4006" stroke="none" /><path d="M 81.99639281039703 110.81064883170644 l -8.842636144205784 5.309748935022815 a31.31434184675835,31.31434184675835 0 0,0 -0.2727722082740792,-0.46322684335007636 l 8.93248206260963 -5.157170923379179" fill="#ff4006" stroke="none" /><line stroke="#e1ed5e" stroke-width="0.3" x1="26.387840678322732" x2="22.057713659400534" y1="142.50000000000003" y2="145.00000000000006" /><path d="M 25.521815274538284 143.00000000000003 a86.0,86.0 0 0,1 -11.493303480769212,-40.785679425670985" fill="none" id="id93" stroke="none" /><text fill="#e1ed5e" style="font-size:6.75px; font-family:Arial;" text-anchor="middle"><textPath startOffset="21.40746469413373" xlink:href="#id93">September</textPath></text><path d="M 81.63589988554817 110.18625677009913 l -9.127931884000615 5.0631099466308065 a31.43811394891945,31.43811394891945 0 0,0 -0.25772464360141223,-0.4741843160950191 l 9.213501877217357 -4.9056707970612" fill="#ff4206" stroke="none" /><path d="M 81.4637452351635 109.86951160357371 l -10.961518043645947 5.836390948282298 a33.418467583497055,33.418467583497055 0 0,0 -0.26526613778053265,-0.5086827958454866 l 11.060092250401429 -5.647361909332308" fill="#ff6008" stroke="none" /><path d="M 80.9802524753101 108.90220220490708 l -9.379089643805827 4.389887531299955 a31.355599214145386,31.355599214145386 0 0,0 -0.22399176170954302,-0.48946242341225243 l 9.453065870370427 -4.228236125673014" fill="#ff4106" stroke="none" /><path d="M 80.5471966667186 107.91128576633889 l -9.611748601807998 3.9090144798314994 a31.376227897838902,31.376227897838902 0 0,0 -0.19862844339540742,-0.5006734310591033 l 9.677435720169528 -3.7434400315588308" fill="#ff4106" stroke="none" /><path d="M 80.28708602549918 107.23885506374661 l -9.740270853805422 3.5767623743266648 a31.376227897838902,31.376227897838902 0 0,0 -0.18132446106401018,-0.5071967891400967 l 9.800235484913376 -3.4090306288056462" fill="#ff4106" stroke="none" /><path d="M 79.94057633289273 106.21446072829308 l -20.354994742752265 6.306029403071468 a42.30943025540275,42.30943025540275 0 0,0 -0.208975704982864,-0.6956121562234049 l 20.46024676773876 -5.95567964325734" fill="#ffdf14" stroke="none" /><path d="M 79.34024301695615 103.76489593502545 l -10.309584034760583 1.8787496414468867 a31.479371316306484,31.479371316306484 0 0,0 -0.09231727751164089,-0.5324615243253198 l 10.340316129764458 -1.7014950842009742" fill="#ff4206" stroke="none" /><path d="M 79.2786578344484 103.40968896794605 l -16.304317362089233 2.682869217411379 a37.52357563850688,37.52357563850688 0 0,0 -0.09913104695529604,-0.6364924332678709 l 16.347969901182797 -2.4025886022120577" fill="#ff9c0e" stroke="none" /><path d="M 79.17382384314188 102.69636545807758 l -16.366346685153736 2.118951244068827 a37.50294695481336,37.50294695481336 0 0,0 -0.07718091078579147,-0.6391686594825738 l 16.40030968219919 -1.837688907662854" fill="#ff9c0e" stroke="none" /><path d="M 79.03789590574601 101.26102812881392 l -14.496386328442842 0.8720666038163051 a35.52259332023576,35.52259332023576 0 0,0 -0.031392517638292594,-0.6090064556043906 l 14.509220435537706 -0.6230883548351837" fill="#ff7f0b" stroke="none" /><line stroke="#e1ed5e" stroke-width="0.3" x1="15.003131293944662" x2="10.003315487706104" y1="100.72959589197737" y2="100.7725132973878" /><path d="M 14.003168132696942 100.73817937305945 a86.0,86.0 0 0,1 10.791469493833604,-42.45332614584628" fill="none" id="id94" stroke="none" /><text fill="#e1ed5e" style="font-size:6.75px; font-family:Arial;" text-anchor="middle"><textPath startOffset="22.145653131862435" xlink:href="#id94">October</textPath></text><path d="M 79.17382384314186 97.30363454192245 l -10.24942461157753 -1.32699321659809 a31.334970530451866,31.334970530451866 0 0,0 0.07364536282184601,-0.5328611589824148 l 10.225134732200475 1.5027426837805717" fill="#ff4006" stroke="none" /><path d="M 79.94057633289273 93.78553927170692 l -14.423868491475956 -4.468551329185199 a36.10019646365423,36.10019646365423 0 0,0 0.18846929998998033,-0.590377397878256 l 14.345034475708719 4.715497760754847" fill="#ff880c" stroke="none" /><path d="M 80.05021161711548 93.44210830539832 l -10.112073482876632 -3.3240394051222673 a31.644400785854614,31.644400785854614 0 0,0 0.17406617220824372,-0.5145957086018036 l 10.053521889096023 3.4971367881982327" fill="#ff4506" stroke="none" /><path d="M 80.83023694016515 91.42560881287825 l -9.434235061863715 -4.219813344546162 a31.334970530451866,31.334970530451866 0 0,0 0.2238443987084322,-0.48914040866003355 l 9.360406198300236 4.381142735420867" fill="#ff4006" stroke="none" /><path d="M 81.29705330413844 90.45014215332179 l -9.553568056825155 -4.878119921682388 a31.726915520628683,31.726915520628683 0 0,0 0.25183908636202945,-0.48293465432740634 l 9.468420901488187 5.041400819114281" fill="#ff4606" stroke="none" /><path d="M 81.46374523516351 90.13048839642627 l -25.491902427083584 -13.57300220530768 a49.88015717092338,49.88015717092338 0 0,0 0.4089095723281751,-0.7523475566388701 l 25.25514750514006 14.008604595421172" fill="#bcff1f" stroke="none" /><line stroke="#e1ed5e" stroke-width="0.3" x1="26.387840678322718" x2="22.05771365940052" y1="57.49999999999999" y2="54.99999999999999" /><path d="M 25.521815274538284 56.99999999999999 a86.0,86.0 0 0,1 29.574782752854787,-30.34633250058573" fill="none" id="id95" stroke="none" /><text fill="#e1ed5e" style="font-size:6.75px; font-family:Arial;" text-anchor="middle"><textPath startOffset="21.40746469413373" xlink:href="#id95">November</textPath></text><path d="M 81.81346652052679 89.5 l -12.34469021052651 -7.12721021611002 a35.25442043222004,35.25442043222004 0 0,0 0.30709334910433306,-0.5215116437979215 l 12.220523151292399 7.3380730282015145" fill="#ff7b0b" stroke="none" /><path d="M 82.78059297857968 87.97951657250589 l -13.88716420882719 -9.694319149285532 a37.93614931237721,37.93614931237721 0 0,0 0.3773470862508654,-0.5307859332821141 l 13.718702024046353 9.931282309277167" fill="#ffa20f" stroke="none" /><path d="M 85.08716467003674 85.21462403516908 l -7.720102376120465 -7.654118991616793 a31.8713163064833,31.8713163064833 0 0,0 0.38853878526442664,-0.38521796090049076 l 7.587571670726063 7.785516962745956" fill="#ff4806" stroke="none" /><path d="M 85.34317274990677 84.96080404539775 l -9.64643836695723 -9.898095569335466 a34.82121807465619,34.82121807465619 0 0,0 0.431662911453215,-0.41352330456208286 l 9.475102969638716 10.062231004203117" fill="#ff750a" stroke="none" /><path d="M 85.60350026404147 84.71141617570332 l -14.184370564996467 -15.063309995844367 a41.69056974459725,41.69056974459725 0 0,0 0.5252420748276035,-0.48615622305156103 l 13.92369871885491 15.304583965028295" fill="#ffd714" stroke="none" /><path d="M 86.13680546590413 84.22622945171909 l -9.546266570138712 -10.86189897283391 a35.46070726915521,35.46070726915521 0 0,0 0.46068612405467907,-0.39792970166322433 l 9.358400966321184 11.024172806961843" fill="#ff7e0b" stroke="none" /><path d="M 86.40962598614128 83.9905735841838 l -6.982088024801683 -8.22488213700577 a31.788801571709236,31.788801571709236 0 0,0 0.41904553148968393,-0.34958268623947947 l 6.83986815915009 8.343527007157132" fill="#ff4706" stroke="none" /><path d="M 86.68645165197937 83.75963576809568 l -4.695052904655607 -5.727201138756042 a28.405697445972496,28.405697445972496 0 0,0 0.37975607978470227,-0.305904616352151 l 4.596046054515659 5.806954048901592" fill="#ff1302" stroke="none" /><path d="M 86.96720088162412 83.53348406188908 l -7.348552744545925 -9.284656334455468 a32.84086444007858,32.84086444007858 0 0,0 0.4450563537727804,-0.3460785125930046 l 7.1880864461379 9.409435898669276" fill="#ff5708" stroke="none" /><path d="M 87.83215693770416 82.88440491214696 l -8.390791581268843 -11.802699166672722 a35.481335952848724,35.481335952848724 0 0,0 0.4994503371130879,-0.34865512457287046 l 8.186946152981989 11.94499910705072" fill="#ff7e0b" stroke="none" /><path d="M 88.72937992617638 82.28071324371311 l -33.811860221470866 -53.157860268860674 a84.0,84.0 0 0,0 1.2233434848412057,-0.7634568126338559 l 32.89435260783996 53.73045287833607" fill="#4dd2ff" stroke="none" /><line stroke="#e1ed5e" stroke-width="0.3" x1="56.869717070023135" x2="54.33264160355391" y1="26.7553504044142" y2="22.446841604673864" /><path d="M 56.362301976729285 25.89364864446614 a86.0,86.0 0 0,1 42.16139366436587,-11.88097634709845" fill="none" id="id96" stroke="none" /><text fill="#e1ed5e" style="font-size:6.75px; font-family:Arial;" text-anchor="middle"><textPath startOffset="22.145653131862474" xlink:href="#id96">December</textPath></text><path d="M 90.61103034731259 81.2157712731953 l -4.897389867953841 -9.79806036732151 a31.953831041257367,31.953831041257367 0 0,0 0.4927581275963455,-0.24103269263203858 l 4.728471491095442 9.880686810050761" fill="#ff4a06" stroke="none" /><path d="M 90.93487009805054 81.0573650232925 l -5.3874298533196665 -11.257656346668007 a33.480353634577604,33.480353634577604 0 0,0 0.5205577773934371,-0.24364732432319144 l 5.193383362054707 11.348479902561742" fill="#ff6108" stroke="none" /><path d="M 91.26138138417902 80.90454125486306 l -6.884451993996487 -15.043770052652093 a37.54420432220039,37.54420432220039 0 0,0 0.588347354423157,-0.26316028815725045 l 6.625191236717711 15.159734091719189" fill="#ff9c0e" stroke="none" /><path d="M 91.92203290615298 80.6158196554323 l -7.21303741483983 -17.308663981544235 a39.75147347740668,39.75147347740668 0 0,0 0.6321346299469749,-0.25708365085629237 l 6.914848323702414 17.42993488897982" fill="#ffbc11" stroke="none" /><path d="M 92.25597844496254 80.48000691201159 l -6.115342758442654 -15.414658588834852 a37.583398821218076,37.583398821218076 0 0,0 0.6017419596886433,-0.23276671689715508 l 5.849828536260481 15.517365193870047" fill="#ff9d0e" stroke="none" /><path d="M 95.70440661134978 79.44403061299748 l -8.21563882878385 -39.314805890465514 a61.16404715127701,61.16404715127701 0 0,0 1.0296050298631179,-0.20594984174322387 l 7.539537313389755 39.45004512887161" fill="#3aff2e" stroke="none" /><path d="M 96.05791012581881 79.37332000966035 l -2.01751358000825 -10.556483570694457 a31.7475442043222,31.7475442043222 0 0,0 0.536178629729815,-0.09770960738667482 l 1.8360002167273963 10.589561352012494" fill="#ff4706" stroke="none" /><path d="M 96.41257539226777 79.30868818359171 l -1.7725683474354714 -10.223703186299971 a31.376227897838902,31.376227897838902 0 0,0 0.5314871491711948,-0.08745600814154068 l 1.596803695211204 10.252625192937181" fill="#ff4106" stroke="none" /><path d="M 97.48249496171623 79.15144685158666 l -1.2958473870930252 -10.731475294468165 a31.809430255402752,31.809430255402752 0 0,0 0.5426750881449582,-0.06080787553855692 l 1.1114363973472676 10.752138930513693" fill="#ff4706" stroke="none" /><path d="M 97.84075906011542 79.11130261209362 l -0.7126767738715302 -6.894501298955343 a27.93123772102161,27.93123772102161 0 0,0 0.47735873396531325,-0.04520636841451991 l 0.5942184765212013 6.9057194228750465" fill="#ff0b01" stroke="none" /><path d="M 98.1996594967304 79.07731436759882 l -1.2768623215723436 -14.839075664630311 a35.89390962671906,35.89390962671906 0 0,0 0.61435161993234,-0.04755470081395545 l 1.0219417068647865 14.858808132439322" fill="#ff850c" stroke="none" /></svg>