<?xml version="1.0" encoding="utf-8" ?>
<svg baseProfile="full" height="200mm" version="1.1" viewBox="0,0,200,200" width="200mm" xmlns="http://www.w3.org/2000/svg" xmlns:ev="http://www.w3.org/2001/xml-events" xmlns:xlink="http://www.w3.org/1999/xlink"><defs /><rect fill="#1a1a1a" height="200" width="200" x="0" y="0" /><text alignment-baseline="middle" fill="#e1ed5e" style="dominant-baseline: central; font-size:9.0px; font-family:Arial;" text-anchor="middle" x="100.0" y="100.0">2021</text><line stroke="#e1ed5e" stroke-width="0.3" x1="100.0" x2="100.0" y1="15.0" y2="10.0" /><path d="M 100.0 14.0 a86.0,86.0 0 0,1 42.46469731375804,11.215312516191453" fill="none" id="id97" stroke="none" /><text fill="#e1ed5e" style="font-size:6.75px; font-family:Arial;" text-anchor="middle"><textPath startOffset="22.20632615414155" xlink:href="#id97">January</textPath></text><path d="M 100.0 79.0 l 0.0 -16.174582798459568 a37.17458279845957,37.17458279845957 0 0,0 0.6398993336544502,0.005507815588193429 l -0.2784188543819218 16.172186359479934" fill="#ffbf11" stroke="none" /><path d="M 101.08401301168833 79.027996857942 l 0.4633842527499533 -8.96492560501324 a29.97689345314506,29.97689345314506 0 0,0 0.5150857531326721,0.031071379267139747 l -0.6176320547222374 8.955620956365797" fill="#ff5d08" stroke="none" /><path d="M 101.80526077348638 79.07773832637324 l 0.8370477424689077 -9.701053808105248 a30.73709884467266,30.73709884467266 0 0,0 0.526738549540056,0.050020172199992045 l -1.0039114190992078 9.685208091390077" fill="#ff6809" stroke="none" /><path d="M 105.71112130821622 79.79150937346287 l 3.6021852934261314 -12.746135795176832 a34.24536585365854,34.24536585365854 0 0,0 0.5658798547076016,0.16519584703647525 l -3.82105536585716 12.682241619221653" fill="#ff980e" stroke="none" /><path d="M 106.40334571778207 80.00007090966166 l 5.597790030564301 -17.48389179784392 a39.35815147625161,39.35815147625161 0 0,0 0.6434442612658158,0.21213345645894113 l -5.897917114072534 17.384944617125743" fill="#ffdc14" stroke="none" /><path d="M 107.08798089147638 80.2323363322302 l 2.2055540026879004 -6.151067616261099 a27.534531450577663,27.534531450577663 0 0,0 0.4447714152193715,0.16381306580567387 l -2.311107743679848 6.112191282649101" fill="#ff3a05" stroke="none" /><path d="M 107.76421540070413 80.48803036053334 l 2.999040326151315 -7.53678005714444 a29.11155327342747,29.11155327342747 0 0,0 0.4640050696168169,0.18927931837015752 l -3.12832926535652 7.484039852590703" fill="#ff5107" stroke="none" /><line stroke="#e1ed5e" stroke-width="0.3" x1="143.23703022742887" x2="145.7803849466894" y1="26.81831364943548" y2="22.513508569990506" /><path d="M 143.74570117128098 25.957352633546492 a86.0,86.0 0 0,1 28.547481713284135,27.462654790039103" fill="none" id="id98" stroke="none" /><text fill="#e1ed5e" style="font-size:6.75px; font-family:Arial;" text-anchor="middle"><textPath startOffset="19.985693538727396" xlink:href="#id98">February</textPath></text><path d="M 111.60114157652 82.49532879139004 l 4.521317821093038 -6.822102925460832 a29.18433889602054,29.18433889602054 0 0,0 0.4163567109569677,0.2811259098144541 l -4.638079226456548 6.743265103347707" fill="#ff5207" stroke="none" /><path d="M 111.90073688211348 82.69761687909136 l 5.618858825727001 -8.169212467099095 a30.91501925545571,30.91501925545571 0 0,0 0.4358559295577267,0.3053449323726812 l -5.758645894868378 8.071282691962478" fill="#ff6a09" stroke="none" /><path d="M 114.68862486808459 84.99185889309783 l 4.344363503988049 -4.438864840860415 a27.211039794608475,27.211039794608475 0 0,0 0.3319282969333851,0.33050289133988475 l -4.420127601088754 4.363426098870412" fill="#ff3605" stroke="none" /><path d="M 115.19652480421416 85.50635884689758 l 1.8610378258305906 -1.7749593915352626 a23.57175866495507,23.57175866495507 0 0,0 0.2775099533620375,0.296028269424684 l -1.891315101163091 1.742661705232524" fill="#ff0000" stroke="none" /><path d="M 115.68641384162765 86.03803664274999 l 15.561566902194937 -13.850841184188463 a41.83286264441592,41.83286264441592 0 0,0 0.47412198472387057,0.5420033888116376 l -15.797680750496655 13.580922239173878" fill="#fffb17" stroke="none" /><path d="M 116.15771136456269 86.58626213691792 l 7.4794232581018045 -6.20923475407881 a30.720924261874195,30.720924261874195 0 0,0 0.33427511993546144,0.4097817719057872 l -7.585196870113675 6.079568812564923" fill="#ff6809" stroke="none" /><path d="M 117.45458315368197 88.32363383020206 l 15.312531613897633 -10.243425725853545 a39.422849807445445,39.422849807445445 0 0,0 0.3724583831226837,0.567279670396726 l -15.486586632378241 9.978327991479144" fill="#ffdd14" stroke="none" /><line stroke="#e1ed5e" stroke-width="0.3" x1="172.23445277983987" x2="176.4835382374775" y1="55.19839476539836" y2="52.563006222186495" /><path d="M 173.08426987136738 54.67131705675599 a86.0,86.0 0 0,1 12.851231095245387,41.99856678651699" fill="none" id="id99" stroke="none" /><text fill="#e1ed5e" style="font-size:6.75px; font-family:Arial;" text-anchor="middle"><textPath startOffset="22.20632615414155" xlink:href="#id99">March</textPath></text><path d="M 118.89224826269711 90.83032412892265 l 10.214910100446756 -4.957981356736555 a32.354557124518614,32.354557124518614 0 0,0 0.23887185590644958,0.503125048457283 l -10.298740150194963 4.7814138926387315" fill="#ff7e0b" stroke="none" /><path d="M 119.196687751892 91.48605970444005 l 9.68459343580688 -4.295222767849882 a31.594351732991015,31.594351732991015 0 0,0 0.21620961240613373,0.49904159505070805 l -9.757093758055694 4.127882028212571" fill="#ff740a" stroke="none" /><path d="M 119.85752413597 93.16781622104841 l 18.33825784777511 -6.309464711909843 a40.393324775353015,40.393324775353015 0 0,0 0.2205527586808469,0.6594246759707377 l -18.44414790022773 5.992866933016792" fill="#ffe915" stroke="none" /><path d="M 119.97218684219823 93.5106431181261 l 20.459313350544527 -6.647633878992773 a42.51219512195122,42.51219512195122 0 0,0 0.22014133773753386,0.6979081996733466 l -20.570710172050266 6.294475512893007" fill="#faff18" stroke="none" /><path d="M 120.53481517161879 95.60439243477599 l 17.935671685198237 -3.83924439971556 a39.34197689345314,39.34197689345314 0 0,0 0.13604962200469,0.6634262739346813 l -17.999100603117924 3.5299424696174673" fill="#ffdc14" stroke="none" /><path d="M 120.6074358757038 95.95851677861258 l 12.443822639192637 -2.440454053068866 a33.680872913992296,33.680872913992296 0 0,0 0.10667899428372503,0.5698834531685161 l -12.483987357386221 2.2258925224377872" fill="#ff910d" stroke="none" /><path d="M 120.67395015179393 96.31383870115 l 9.601842316969249 -1.7120066212117162 a30.753273427471115,30.753273427471115 0 0,0 0.08843490164021768,0.5219477954933155 l -9.62988908012969 1.5464730374025635" fill="#ff6809" stroke="none" /><path d="M 120.73433829027371 96.67025291283417 l 17.85442121324212 -2.8672584673566615 a39.083183568677796,39.083183568677796 0 0,0 0.10095392258241724,0.6651602141899339 l -17.901131029263837 2.5594991407746446" fill="#ffd814" stroke="none" /><path d="M 120.91429891909075 98.10471618934814 l 62.74289675727228 -5.6858514319555935 a84.0,84.0 0 0,0 0.118102064722021,1.441144331168925 l -62.831473305813795 4.6049931835789" fill="#4dd2ff" stroke="none" /><path d="M 120.98425023603335 99.18683210126433 l 16.98673709735896 -0.6582588920959079 a37.999486521181,37.999486521181 0 0,0 0.019702381893867416,0.6538261363154316 l -16.995551173708474 0.36576260835547725" fill="#ffca12" stroke="none" /><line stroke="#e1ed5e" stroke-width="0.3" x1="184.98032266829074" x2="189.97916517819016" y1="98.17113171792111" y2="98.06355123074" /><path d="M 185.9800911702706 98.14961562048488 a86.0,86.0 0 0,1 -9.607161424134198,41.387399972396054" fill="none" id="id100" stroke="none" /><text fill="#e1ed5e" style="font-size:6.75px; font-family:Arial;" text-anchor="middle"><textPath startOffset="21.466115282336823" xlink:href="#id100">April</textPath></text><path d="M 120.99513854157772 99.54816195383933 l 14.569925411523634 -0.3135605234331923 a35.57329910141207,35.57329910141207 0 0,0 0.00790573017646028,0.6123075145871802 l -14.57316414881781 0.06271675078554932" fill="#ffaa0f" stroke="none" /><path d="M 120.99980553446 99.90962569577887 l 17.85657405138164 -0.07684716189483509 a38.856739409499355,38.856739409499355 0 0,0 -0.0028785492771634873,0.6688734764020652 l -17.855251204814973 -0.23053579271091484" fill="#ffd513" stroke="none" /><path d="M 120.99824983174949 100.27111621757518 l 17.79055826566709 0.2297005180996434 a38.792041078305516,38.792041078305516 0 0,0 -0.014367717325127434,0.6676113672375157 l -17.783968485656956 -0.5359017011272739" fill="#ffd413" stroke="none" /><path d="M 120.9764740272857 100.99374915477107 l 18.22448988660714 0.8633753888948089 a39.244929396662386,39.244929396662386 0 0,0 -0.03777539201275333,0.6745050004607069 l -18.20692814370686 -1.176952105690939" fill="#ffda14" stroke="none" /><path d="M 120.92983693683757 101.71520430193887 l 19.18344489461108 1.5720871265524439 a40.24775353016688,40.24775353016688 0 0,0 -0.06252853370773623,0.6899971590461929 l -19.153541764626265 -1.902065674147207" fill="#ffe715" stroke="none" /><path d="M 120.8583938346157 102.4346265915055 l 17.94518042100057 2.0945914526662284 a39.06700898587933,39.06700898587933 0 0,0 -0.08371221155259012,0.6672686912537963 l -17.90646670020113 -2.4031778982074194" fill="#ffd814" stroke="none" /><path d="M 120.76222939487914 103.15116336523771 l 17.830464011776833 2.7061980633427782 a39.034659820282414,39.034659820282414 0 0,0 -0.10654277238107107,0.6634419453199477 l -17.781239485034472 -3.012719238355931" fill="#ffd814" stroke="none" /><path d="M 120.70491114924044 103.5080841355445 l 17.589871885195535 2.9802953541763153 a38.8405648267009,38.8405648267009 0 0,0 -0.11736057237188306,0.6582204158454159 l -17.535964870484463 -3.2826345207549497" fill="#ffd513" stroke="none" /><path d="M 120.32669344350535 105.2749913415812 l 16.564037224566363 4.298542366669769 a38.11270860077022,38.11270860077022 0 0,0 -0.17025840522207364,0.6335948635127213 l -16.48759074300251 -4.583028163358039" fill="#ffcc13" stroke="none" /><path d="M 120.23288151984713 105.62410040840565 l 16.846016628719955 4.68265921038756 a38.48472400513479,38.48472400513479 0 0,0 -0.18290756300565403,0.6367252220406402 l -16.762916428828202 -4.9719419079327825" fill="#ffd013" stroke="none" /><path d="M 120.13307415673323 105.97154293290107 l 17.693328071501362 5.247905381083537 a39.45519897304236,39.45519897304236 0 0,0 -0.19872874937101948,0.649457051312977 l -17.60037254962421 -5.551689404948571" fill="#ffdd14" stroke="none" /><path d="M 120.02730092923936 106.31721596034902 l 17.5849471573809 5.546823770062553 a39.4390243902439,39.4390243902439 0 0,0 -0.2097926017499752,0.6456752366270675 l -17.486862304614675 -5.848697906667415" fill="#ffdd14" stroke="none" /><path d="M 119.79798401119884 107.00284435728193 l 9.240753512800895 3.268593335439933 a30.801797175866497,30.801797175866497 0 0,0 -0.18110831755510648,0.49833230698433195 l -9.183120934240563 -3.427173439430396" fill="#ff6909" stroke="none" /><path d="M 119.67450827220406 107.3425965602758 l 12.13808559129817 4.529976773900573 a33.95584082156611,33.95584082156611 0 0,0 -0.20908021235432464,0.5458424585583723 l -12.058311099350338 -4.738242799292089" fill="#ff940d" stroke="none" /><path d="M 119.41010516605496 108.01547362559984 l 12.632764209486345 5.216745992527748 a34.66752246469833,34.66752246469833 0 0,0 -0.23251840588791747,0.5496048266923155 l -12.541094822406116 -5.433425344886227" fill="#ff9e0e" stroke="none" /><path d="M 119.26925614724726 108.34839909993367 l 13.60968515046912 5.896391764805526 a35.832092426187415,35.832092426187415 0 0,0 -0.25007202846622856,0.5638464071038761 l -13.50617203727162 -6.1297865084020895" fill="#ffae10" stroke="none" /><path d="M 119.12269723197855 108.67885076344098 l 9.971296040602935 4.52548033390209 a31.950192554557127,31.950192554557127 0 0,0 -0.23160144303136315,0.49884890405793325 l -9.891919980731739 -4.696449305238854" fill="#ff790b" stroke="none" /><path d="M 118.81262510543309 109.33194174019688 l 18.503508800748182 9.178605598637803 a41.654942233632866,41.654942233632866 0 0,0 -0.32415743189506685,0.639593365952499 l -18.34277269906685 -9.495753176292997" fill="#fff917" stroke="none" /><path d="M 118.64920377521936 109.65438752849418 l 11.99390384003196 6.209047691624628 a34.50577663671373,34.50577663671373 0 0,0 -0.2776030673583272,0.5251203859945418 l -11.88524826444874 -6.414583092705304" fill="#ff9c0e" stroke="none" /><line stroke="#e1ed5e" stroke-width="0.3" x1="174.80103733775053" x2="179.2010983576182" y1="140.37084112569926" y2="142.7455964860345" /><path d="M 175.68104954172406 140.8457921977663 a86.0,86.0 0 0,1 -30.038265399797805,32.042727171017184" fill="none" id="id101" stroke="none" /><text fill="#e1ed5e" style="font-size:6.75px; font-family:Arial;" text-anchor="middle"><textPath startOffset="22.206326154141568" xlink:href="#id101">May</textPath></text><path d="M 118.48025628344425 109.97397251340804 l 7.700502168942239 4.1560352732378085 a29.750449293966625,29.750449293966625 0 0,0 -0.24710381839450143,0.4485652065419526 l -7.627821941096231 -4.287970998177568" fill="#ff5a08" stroke="none" /><path d="M 118.30583269289576 110.29060199501023 l 14.889057245466947 8.36986575614697 a38.0803594351733,38.0803594351733 0 0,0 -0.32612745858170133,0.5686307134024977 l -14.742777790732864 -8.624916315407782" fill="#ffcb12" stroke="none" /><path d="M 117.75023020441432 111.22182372390056 l 13.685222414340497 8.651896442329488 a37.190757381258024,37.190757381258024 0 0,0 -0.3467509248844947,0.538165135748862 l -13.534266626078951 -8.886183177999802" fill="#ffc011" stroke="none" /><path d="M 117.55443506779139 111.5257021239791 l 14.534801821213657 9.54310381253725 a38.38767650834403,38.38767650834403 0 0,0 -0.3674192270797602,0.5492418923888716 l -14.368379488723177 -9.791882619131929" fill="#ffcf13" stroke="none" /><path d="M 117.35343817320211 111.8261652097733 l 13.512959686603846 9.208924025992912 a37.35250320924262,37.35250320924262 0 0,0 -0.36665767270365096,0.5281977241510472 l -13.352441106738057 -9.440163012330979" fill="#ffc212" stroke="none" /><path d="M 116.93607887273984 112.41649034213515 l 22.801745214030223 16.716835777703896 a49.27317073170732,49.27317073170732 0 0,0 -0.5073699059495645,0.6797049022244853 l -22.51061404138557 -17.106853559437695" fill="#aaff21" stroke="none" /><path d="M 116.71984013943494 112.70617746262583 l 8.422163377040139 6.4003902905447685 a31.578177150192555,31.578177150192555 0 0,0 -0.3326132147763217,0.4299474168109574 l -8.310743345045749 -6.544415701468978" fill="#ff740a" stroke="none" /><path d="M 115.56566222782051 114.09645910891815 l 12.144813224735955 10.998495309885055 a37.38485237483954,37.38485237483954 0 0,0 -0.43607399408412006,0.47327219491849665 l -11.95369282265611 -11.205918759604886" fill="#ffc212" stroke="none" /><path d="M 115.32070863581623 114.36230785411682 l 11.812089353878347 11.073173423854383 a37.190757381258024,37.190757381258024 0 0,0 -0.4418500150418236,0.4632779742782711 l -11.61973278745756 -11.274858514715161" fill="#ffc011" stroke="none" /><path d="M 115.07121518719521 114.62390073753431 l 15.984387660668386 15.509970204558215 a43.272400513478814,43.272400513478814 0 0,0 -0.5233062755595048,0.5301064943032567 l -15.715040760053347 -15.782817192842137" fill="#f1ff19" stroke="none" /><path d="M 114.81725581225074 114.88116024355365 l 11.435345563960388 11.484664362547438 a37.20693196405648,37.20693196405648 0 0,0 -0.45773393546974167,0.4479889960799308 l -11.23596167611485 -11.67980346154994" fill="#ffc011" stroke="none" /><path d="M 114.55890576462653 115.13401014063108 l 12.020909098597928 12.495757795191157 a38.339152759948654,38.339152759948654 0 0,0 -0.4795391223740608,0.45343417152753596 l -11.804034141833059 -12.700826603464614" fill="#ffcf13" stroke="none" /><path d="M 114.29624159901734 115.38237550388516 l 8.840913257908364 9.512587387986699 a33.98657252888319,33.98657252888319 0 0,0 -0.4319538819064775,0.3945796295938786 l -8.67585982653502 -9.66335978416716" fill="#ff950d" stroke="none" /><path d="M 114.0293411484842 115.62618273729858 l 10.805654286380648 12.035570786109304 a37.17458279845957,37.17458279845957 0 0,0 -0.4798311878585566,0.423395234269594 l -10.596880745615502 -12.219789162151185" fill="#ffbf11" stroke="none" /><path d="M 113.48314897796784 116.09983520530334 l 7.394096589714841 8.829075224269046 a32.51630295250321,32.51630295250321 0 0,0 -0.4322034030159096,0.3556739764242252 l -7.24102305815424 -8.95504431955045" fill="#ff810b" stroke="none" /><path d="M 113.20401910651253 116.32954008644616 l 5.146007959868043 6.3641185754108545 a29.18433889602054,29.18433889602054 0 0,0 -0.3933527835483899,0.3125032409474334 l -5.035697683602302 -6.4517557303634145" fill="#ff5207" stroke="none" /><path d="M 112.92097659922987 116.55440617244103 l 9.961923678430637 12.7632559013711 a37.190757381258024,37.190757381258024 0 0,0 -0.5080457075357844,0.389547784358098 l -9.740749242401359 -12.932843027556569" fill="#ffc011" stroke="none" /><path d="M 112.63410532772338 116.77436683061366 l 10.324610335851991 13.708038413823697 a38.1612323491656,38.1612323491656 0 0,0 -0.5281060794293715,0.3906802523286046 l -10.087119286004055 -13.883728614892071" fill="#ffcc13" stroke="none" /><path d="M 112.34349029814194 116.9893568818739 l 9.621267405689071 13.242538509209027 a37.36867779204108,37.36867779204108 0 0,0 -0.5236466985056177,0.373608015701596 l -9.39189337933457 -13.406190786754841" fill="#ffc212" stroke="none" /><path d="M 112.04921762599082 117.19931262002967 l 9.633187082756205 13.750618613292017 a37.789216944801026,37.789216944801026 0 0,0 -0.5359646715476793,0.3686413882772927 l -9.395065526585643 -13.914400790934403" fill="#ffc712" stroke="none" /><path d="M 111.1453310114006 117.79835938074945 l 6.2837347627819575 10.034710449326266 a32.8397946084724,32.8397946084724 0 0,0 -0.48168284806477735,0.295888946995725 l -6.110072714784871 -10.141387863150369" fill="#ff850c" stroke="none" /><line stroke="#e1ed5e" stroke-width="0.3" x1="143.8653032363475" x2="146.44561519142675" y1="172.8068346515853" y2="177.08958963109032" /><path d="M 144.38136562736335 173.6633856474863 a86.0,86.0 0 0,1 -40.68145358897372,12.25698825130547" fill="none" id="id102" stroke="none" /><text fill="#e1ed5e" style="font-size:6.75px; font-family:Arial;" text-anchor="middle"><textPath startOffset="21.466115282336833" xlink:href="#id102">June</textPath></text><path d="M 110.5260780823613 118.17145234162733 l 4.69417140669103 8.103674638615319 a30.365083440308087,30.365083440308087 0 0,0 -0.4545381629524553,0.25809863164175934 l -4.553984476817377 -8.183276436051706" fill="#ff6309" stroke="none" /><path d="M 110.21172684928248 118.3499491758327 l 7.880988680088103 14.161732277934039 a37.20693196405648,37.20693196405648 0 0,0 -0.5623157831307951,0.30661939979610364 l -7.636050085088657 -14.295292329489913" fill="#ffc011" stroke="none" /><path d="M 109.89434966115114 118.52300852407294 l 10.867272875585254 20.344398065721172 a44.06495507060333,44.06495507060333 0 0,0 -0.6721145708988321,0.3516185773979023 l -10.515467402159926 -20.52844606206379" fill="#e7ff1a" stroke="none" /><path d="M 109.2508944713604 118.85261126421891 l 7.224960457478388 14.723913598396383 a37.401026957637995,37.401026957637995 0 0,0 -0.5804057566321914,0.2786300343831969 l -6.9704420328459635 -14.84609790927914" fill="#ffc212" stroke="none" /><path d="M 108.92500713936063 119.00905698771935 l 6.874203188211012 14.641122198500144 a37.17458279845957,37.17458279845957 0 0,0 -0.5815733425375207,0.2669717971878196 l -6.621161849906072 -14.757281066022037" fill="#ffbf11" stroke="none" /><path d="M 108.59647513512805 119.15986991738527 l 7.766622849939819 17.310290690443843 a39.972785622593065,39.972785622593065 0 0,0 -0.6301982331418262,0.27626038559047855 l -7.4675039421402385 -17.441415629328777" fill="#ffe415" stroke="none" /><path d="M 108.2653958097858 119.30500536409082 l 6.639903334741917 15.508436915080914 a37.87008985879332,37.87008985879332 0 0,0 -0.6014645618715874,0.25141223564254384 l -6.371967313372869 -15.620434193743431" fill="#ffc812" stroke="none" /><path d="M 107.93186726928326 119.44442032107085 l 5.8343516627718985 14.302506860043124 a36.44672657252888,36.44672657252888 0 0,0 -0.5829374906179676,0.23196285797560312 l -5.587293096112065 -14.400816562424795" fill="#ffb610" stroke="none" /><path d="M 107.59598834532513 119.57807347666477 l 6.786659676952875 17.492091321898183 a39.76251604621309,39.76251604621309 0 0,0 -0.640232893939146,0.2420812979367387 l -6.484556562253454 -17.606320869941552" fill="#ffe115" stroke="none" /><path d="M 105.88484417918355 120.15858648285463 l 4.537146872936638 15.542037280619374 a37.190757381258024,37.190757381258024 0 0,0 -0.6160716822630115,0.17410801118123126 l -4.268944022569021 -15.617834085139124" fill="#ffc011" stroke="none" /><path d="M 105.53697534728816 120.25689768951611 l 4.3243848540309555 15.820663099231837 a37.401026957637995,37.401026957637995 0 0,0 -0.6224769700171097,0.1644018253866593 l -4.051417441202348 -15.89275627392208" fill="#ffc212" stroke="none" /><path d="M 105.18746579009965 120.34920634021253 l 4.24719599605335 16.660749427198393 a38.19358151476251,38.19358151476251 0 0,0 -0.6384633968880853,0.15691876921782075 l -3.959779314422053 -16.731389454730245" fill="#ffcd13" stroke="none" /><path d="M 104.48393922423573 120.51570834832081 l 3.560673689489372 16.29142128918004 a37.675994865211806,37.675994865211806 0 0,0 -0.6347661277359451,0.13302141378252377 l -3.2797161003240487 -16.350298683689104" fill="#ffc612" stroke="none" /><path d="M 103.7750983002368 120.6578951692458 l 2.9134648242649166 15.942909596598941 a37.20693196405648,37.20693196405648 0 0,0 -0.631013670827056,0.10970981505174232 l -2.6386021819658105 -15.99069799017169" fill="#ffc011" stroke="none" /><path d="M 103.06178313531738 120.77559828337769 l 2.3700323884420778 16.081753228339856 a37.25545571245186,37.25545571245186 0 0,0 -0.6352435006159183,0.08803896083340595 l -2.092860296639329 -16.120166754665867" fill="#ffc011" stroke="none" /><path d="M 102.70371172650421 120.8252237178851 l 2.2969402061623683 17.692083512832287 a38.8405648267009,38.8405648267009 0 0,0 -0.6637530280713366,0.08037124802633426 l -1.992059755039651 -17.729000289583972" fill="#ffd513" stroke="none" /><path d="M 102.34483914955558 120.86867818915974 l 2.1961420327545023 19.545298596676442 a40.66829268292683,40.66829268292683 0 0,0 -0.696332971451589,0.07217775962470202 l -1.8593764646973108 -19.5802057247569" fill="#ffec16" stroke="none" /><path d="M 101.62511606390274 120.93702456842531 l 1.2516940158429264 16.126077973113215 a37.17458279845957,37.17458279845957 0 0,0 -0.6384066147443583,0.04402825791019611 l -0.9739246403196379 -16.145234575539696" fill="#ffbf11" stroke="none" /><path d="M 101.26447882468166 120.96189622390904 l 1.1872141365496383 19.681040947582883 a40.71681643132221,40.71681643132221 0 0,0 -0.6999645975202573,0.036180174411258356 l -0.8482614706159014 -19.698560928756343" fill="#ffed16" stroke="none" /><line stroke="#e1ed5e" stroke-width="0.3" x1="102.19456741930631" x2="102.32365962044197" y1="184.97166512339345" y2="189.96999836594603" /><path d="M 102.22038585953345 185.97133177190398 a86.0,86.0 0 0,1 -42.740103519485714,-10.115201625700543" fill="none" id="id103" stroke="none" /><text fill="#e1ed5e" style="font-size:6.75px; font-family:Arial;" text-anchor="middle"><textPath startOffset="22.20632615414155" xlink:href="#id103">July</textPath></text><path d="M 100.54218724476979 120.99299961872073 l 0.4493402891185871 17.398049491458412 a38.403851091142485,38.403851091142485 0 0,0 -0.6609857070332544,0.011379468380114438 l -0.14979489219266476 -17.403206437117685" fill="#ffcf13" stroke="none" /><path d="M 100.18074693466247 120.99922214144158 l 0.023527264665948282 2.7334032415175553 a23.733504492939666,23.733504492939666 0 0,0 -0.4085483986568056,0.0 l 0.023527264665946398 -2.7334032415175553" fill="#ff0200" stroke="none" /><path d="M 99.45781275523022 120.99299961872073 l -0.44432905912840526 17.204019199732116 a38.20975609756098,38.20975609756098 0 0,0 -0.6573527259773568,-0.022640557010083016 l 0.7404021367804051 -17.19382184429594" fill="#ffcd13" stroke="none" /><path d="M 99.09653310690486 120.98055641714683 l -0.736922803430873 17.113023809313344 a38.128883183568675,38.128883183568675 0 0,0 -0.6554753222541222,-0.03388058705461058 l 1.031386194098484 -17.09780341549653" fill="#ffcc13" stroke="none" /><path d="M 98.73552117531835 120.96189622390904 l -0.9856117360034622 16.33897739044617 a37.36867779204108,37.36867779204108 0 0,0 -0.6417398472506383,-0.04425813713931388 l 1.2667143440330306 -16.319590908790573" fill="#ffc212" stroke="none" /><path d="M 98.37488393609728 120.93702456842531 l -1.2704694260805591 16.36796914270991 a37.41720154043646,37.41720154043646 0 0,0 -0.6417151309046729,-0.055369881690905245 l 1.5520288747267736 -16.34367500874034" fill="#ffc312" stroke="none" /><path d="M 97.65516085044442 120.86867818915974 l -1.815068045163051 16.153803527680775 a37.25545571245186,37.25545571245186 0 0,0 -0.6366648284248779,-0.0770912442895613 l 2.0928602966393184 -16.120166754665867" fill="#ffc011" stroke="none" /><path d="M 96.58105272829116 120.7198165907248 l -2.6649355370752397 16.15028579446483 a37.36867779204108,37.36867779204108 0 0,0 -0.6337568109697618,-0.11018674512731867 l 2.9425413195170513 -16.102020470816505" fill="#ffc212" stroke="none" /><path d="M 96.22490169976321 120.6578951692458 l -2.9280030718909784 16.022465033707725 a37.28780487804878,37.28780487804878 0 0,0 -0.6303989672970879,-0.12081746244467123 l 3.2033696537597613 -15.969690372914584" fill="#ffc111" stroke="none" /><path d="M 93.76903079525671 120.05430185196036 l -5.2887250810991855 17.02170010849319 a38.82439024390244,38.82439024390244 0 0,0 -0.6364956595635786,-0.20378581032181078 l 5.580942085753704 -16.92814145151167" fill="#ffd513" stroke="none" /><path d="M 93.42475214034765 119.94407469862007 l -5.570813334236908 16.897418871744854 a38.792041078305516,38.792041078305516 0 0,0 -0.6323661801069731,-0.2145329420457008 l 5.860849247281107 -16.79902294280103" fill="#ffd413" stroke="none" /><path d="M 93.08242187328487 119.8279376855182 l -5.519854381984752 15.821625244310791 a37.75686777920411,37.75686777920411 0 0,0 -0.6118058836739472,-0.21937182287475623 l 5.791379826288426 -15.724265880396077" fill="#ffc712" stroke="none" /><path d="M 92.06813273071674 119.44442032107085 l -3.189038291064848 7.817705320358652 a29.443132220795892,29.443132220795892 0 0,0 -0.4676249960678712,-0.19546728628188098 l 3.3231347466301813 -7.761652991056797" fill="#ff5607" stroke="none" /><path d="M 91.7346041902142 119.30500536409082 l -7.881304245839394 18.40790498645271 a41.02413350449294,41.02413350449294 0 0,0 -0.6467734496865805,-0.28352647342298154 l 8.196998370183717 -18.269513959735274" fill="#fff116" stroke="none" /><path d="M 91.40352486487194 119.15986991738527 l -6.0053937978648095 13.384853926881986 a35.670346598202826,35.670346598202826 0 0,0 -0.5580404980751612,-0.25616902250828344 l 6.234902291707391 -13.279497834039628" fill="#ffab0f" stroke="none" /><path d="M 91.07499286063937 119.00905698771935 l -6.874203188211015 14.641122198500144 a37.17458279845957,37.17458279845957 0 0,0 -0.5768916955425755,-0.2769430715110443 l 7.125207551753833 -14.520624850489536" fill="#ffbf11" stroke="none" /><path d="M 90.7491055286396 118.85261126421891 l -7.167958797064353 14.607748599592467 a37.27163029525032,37.27163029525032 0 0,0 -0.5735324611525229,-0.2875810823604607 l 7.418345165899637 -14.482199676322706" fill="#ffc111" stroke="none" /><path d="M 90.10565033884886 118.52300852407294 l -9.91467181706621 18.56105321423791 a42.0431322207959,42.0431322207959 0 0,0 -0.6354062421176743,-0.3464741457194727 l 10.232700871052526 -18.387638416758673" fill="#fffe18" stroke="none" /><line stroke="#e1ed5e" stroke-width="0.3" x1="58.666819895761336" x2="56.23545636021788" y1="174.27360380694188" y2="178.64263932499728" /><path d="M 58.180547188652646 175.14741091055294 a86.0,86.0 0 0,1 -31.652253787137756,-30.449443065178592" fill="none" id="id104" stroke="none" /><text fill="#e1ed5e" style="font-size:6.75px; font-family:Arial;" text-anchor="middle"><textPath startOffset="22.20632615414155" xlink:href="#id104">August</textPath></text><path d="M 89.1626897886671 117.98757091392108 l -11.23518835259622 18.647961835792895 a42.77098844672658,42.77098844672658 0 0,0 -0.6273501943355572,-0.3853697285367077 l 11.554517746864086 -18.45180364042781" fill="#f7ff18" stroke="none" /><path d="M 88.54995079064634 117.60387380957326 l -8.845493728098896 13.599500973814106 a37.22310654685494,37.22310654685494 0 0,0 -0.534107799717408,-0.3539775256445539 l 9.078276226556266 -13.445225427078233" fill="#ffc011" stroke="none" /><path d="M 88.24862548938628 117.40417183066458 l -9.10542959513021 13.485440458265902 a37.27163029525032,37.27163029525032 0 0,0 -0.5286237372533872,-0.363592226731469 l 9.33621021700649 -13.326707442169335" fill="#ffc111" stroke="none" /><path d="M 87.95078237400918 117.19931262002967 l -9.95800552966995 14.214271456707458 a38.35532734274712,38.35532734274712 0 0,0 -0.537472603256235,-0.3834724316406224 l 10.20120546077507 -14.040754763222616" fill="#ffcf13" stroke="none" /><path d="M 87.65650970185807 116.9893568818739 l -4.991270146231976 6.869893989461203 a29.49165596919127,29.49165596919127 0 0,0 -0.4081294510424784,-0.30192441088407274 l 5.108784567693019 -6.782959629837362" fill="#ff5608" stroke="none" /><path d="M 87.07902340077011 116.55440617244103 l -12.808187586553677 16.40990044461998 a41.816688061617455,41.816688061617455 0 0,0 -0.563614296915063,-0.447769284461157 l 13.088759376186097 -16.18699724615369" fill="#fffb17" stroke="none" /><path d="M 85.44109423537348 115.13401014063109 l -11.538727110501174 11.99452870452585 a37.64364569961489,37.64364569961489 0 0,0 -0.4631065552021065,-0.45324723527461325 l 11.743483618079075 -11.794131366328667" fill="#ffc612" stroke="none" /><path d="M 85.18274418774928 114.88116024355367 l -11.903258905399873 11.954595738659664 a37.87008985879332,37.87008985879332 0 0,0 -0.45797449283952096,-0.4639257433324291 l 12.107274023294929 -11.74792950134657" fill="#ffc812" stroke="none" /><path d="M 84.9287848128048 114.62390073753433 l -14.138695839284011 13.71905861231076 a40.700641848523745,40.700641848523745 0 0,0 -0.48354969027991007,-0.5069999170522994 l 14.372752080942877 -13.47365157867596" fill="#ffed16" stroke="none" /><path d="M 84.4343377721795 114.09645910891817 l -12.00094574329781 10.868207112729463 a37.190757381258024,37.190757381258024 0 0,0 -0.42564140054577526,-0.478212625706676 l 12.18624599349192 -10.660020317281921" fill="#ffc011" stroke="none" /><path d="M 84.19399662182784 113.82643327865904 l -12.307986712707624 10.766514026745277 a37.35250320924262,37.35250320924262 0 0,0 -0.4191617698828315,-0.4875798349188493 l 12.491490992161237 -10.553057092664897" fill="#ffc212" stroke="none" /><path d="M 83.72743513129214 113.27417163493432 l -15.25317954702243 12.44261890607066 a40.68446726572529,40.68446726572529 0 0,0 -0.4380013955414684,-0.5464740867313101 l 15.46509885461876 -12.17821698576109" fill="#ffed16" stroke="none" /><path d="M 83.50135304334701 112.99209946851258 l -12.771096424726258 10.05678559629408 a37.25545571245186,37.25545571245186 0 0,0 -0.3924120392870724,-0.5072454584537675 l 12.942315281231398 -9.83546214372706" fill="#ffc011" stroke="none" /><path d="M 83.28015986056508 112.70617746262583 l -12.980949058190301 9.8648217322158 a37.303979460847245,37.303979460847245 0 0,0 -0.3841221555164844,-0.5145943996598497 l 13.14883248040187 -9.639914453046645" fill="#ffc111" stroke="none" /><path d="M 83.06392112726016 112.41649034213515 l -10.435581333652275 7.650725756386223 a33.93966623876765,33.93966623876765 0 0,0 -0.3413687309359566,-0.47413131031709127 l 10.565729856963838 -7.469960840617992" fill="#ff940d" stroke="none" /><path d="M 82.85270091963577 112.12312394758628 l -13.246783808168415 9.365463403924808 a37.22310654685494,37.22310654685494 0 0,0 -0.36538749600837683,-0.5263679398872609 l 13.406032211338925 -9.136054201850538" fill="#ffc011" stroke="none" /><path d="M 82.6465618267979 111.8261652097733 l -13.379300342522695 9.117836745814943 a37.190757381258024,37.190757381258024 0 0,0 -0.35596317814551526,-0.532116653609302 l 13.53426662607894 -8.886183177999818" fill="#ffc011" stroke="none" /><path d="M 82.44556493220864 111.52570212397912 l -19.64429168934075 12.89783770161432 a44.5000513478819,44.5000513478819 0 0,0 -0.4148996968279533,-0.6439335431908453 l 19.86339624954575 -12.557782558502026" fill="#e2ff1b" stroke="none" /><path d="M 82.05923443525364 110.91462005526583 l -14.37103685802533 8.742904896644259 a37.821566110397946,37.821566110397946 0 0,0 -0.3335846359375875,-0.5591070375838075 l 14.51940236966115 -8.49423576517434" fill="#ffc812" stroke="none" /><line stroke="#e1ed5e" stroke-width="0.3" x1="26.63291911575756" x2="22.317208475507996" y1="142.92168965132927" y2="145.44649492493687" /><path d="M 25.769776987707644 143.4266507060508 a86.0,86.0 0 0,1 -11.730757126820373,-40.83630448921669" fill="none" id="id105" stroke="none" /><text fill="#e1ed5e" style="font-size:6.75px; font-family:Arial;" text-anchor="middle"><textPath startOffset="21.46611528233685" xlink:href="#id105">September</textPath></text><path d="M 81.87401531095188 110.60418214915194 l -13.974924780798856 8.175701923980302 a37.190757381258024,37.190757381258024 0 0,0 -0.3185087369809761,-0.5553468301076762 l 14.11358551393221 -7.933935248014319" fill="#ffc011" stroke="none" /><path d="M 81.69416730710424 110.29060199501025 l -14.621167010936766 8.21927158061024 a37.77304236200257,37.77304236200257 0 0,0 -0.31373855593906935,-0.5695266105532363 l 14.760481976327352 -7.966374451659181" fill="#ffc712" stroke="none" /><path d="M 81.51974371655577 109.97397251340807 l -17.109063968703442 9.23392679931951 a40.44184852374839,40.44184852374839 0 0,0 -0.32535947003982785,-0.6154575023976809 l 17.265475946968156 -8.938054281835702" fill="#ffea15" stroke="none" /><path d="M 81.35079622478065 109.6543875284942 l -14.536324174984845 7.525217082543874 a37.36867779204108,37.36867779204108 0 0,0 -0.2908018587192261,-0.5737796556325265 l 14.663704703490339 -7.273883215208662" fill="#ffc212" stroke="none" /><path d="M 81.18737489456691 109.33194174019688 l -14.64921487670823 7.266695583573079 a37.35250320924262,37.35250320924262 0 0,0 -0.2807605232793908,-0.5784498364756117 l 14.772128656602339 -7.013456791132183" fill="#ffc212" stroke="none" /><path d="M 81.02952815118164 109.00673069616217 l -15.999486527180574 7.596177236686191 a38.71116816431322,38.71116816431322 0 0,0 -0.2806105907804992,-0.6044102482510966 l 16.127871734800898 -7.319646921156267" fill="#ffd313" stroke="none" /><path d="M 80.20201598880116 107.00284435728193 l -20.631583337986154 7.2977009617990625 a42.88421052631579,42.88421052631579 0 0,0 -0.2401703031264598,-0.6980473221123833 l 20.75414447205584 -6.941480936597382" fill="#f6ff19" stroke="none" /><path d="M 80.0844068197444 106.66101706037122 l -15.661479309659287 5.238175932199503 a37.514249037227216,37.514249037227216 0 0,0 -0.19955391975068995,-0.6141638135954927 l 15.749325480426226 -4.9678132186262065" fill="#ffc412" stroke="none" /><path d="M 79.97269907076064 106.31721596034903 l -18.54132147646652 5.848493132995787 a40.44184852374839,40.44184852374839 0 0,0 -0.20369832591309783,-0.6656979149902668 l 18.63924657488575 -5.528468245453473" fill="#ffea15" stroke="none" /><path d="M 79.86692584326677 105.97154293290107 l -18.94938378911014 5.620456069837058 a40.76534017971758,40.76534017971758 0 0,0 -0.19374671951326497,-0.6744577478073812 l 19.043323145509508 -5.293440846525081" fill="#ffee16" stroke="none" /><path d="M 79.76711848015287 105.62410040840567 l -18.71606472811532 5.202473368802473 a40.425673940949935,40.425673940949935 0 0,0 -0.18059096369432331,-0.6720461573940459 l 18.802843768151416 -4.879536278232889" fill="#ffe915" stroke="none" /><path d="M 79.67330655649465 105.27499134158121 l -18.333164073693016 4.757649443639229 a39.94043645699615,39.94043645699615 0 0,0 -0.16696754395434896,-0.6669523403707629 l 18.412342931942426 -4.441369263871074" fill="#ffe315" stroke="none" /><path d="M 79.58551787078972 104.9243191809786 l -18.286554081852298 4.411026860702015 a39.811039794608476,39.811039794608476 0 0,0 -0.1549586601203545,-0.667557852153563 l 18.359773307903207 -4.095600351199877" fill="#ffe215" stroke="none" /><path d="M 79.4281124754447 104.21870165774334 l -19.806053457530766 4.0616511467362075 a41.21822849807445,41.21822849807445 0 0,0 -0.13655023424930166,-0.6962667025842068 l 19.873033624755735 -3.7201207170840456" fill="#fff316" stroke="none" /><path d="M 79.35854240842038 103.8639653848113 l -19.47557295226062 3.645718302742365 a40.813863928112966,40.813863928112966 0 0,0 -0.12332308895823914,-0.69166137534007 l 19.53544248355805 -3.3099381766690814" fill="#ffee16" stroke="none" /><path d="M 79.29508885075956 103.50808413554451 l -19.152707283880176 3.24509040830985 a40.425673940949935,40.425673940949935 0 0,0 -0.11033946233608265,-0.6870839372940395 l 19.20572850057755 -2.914927241322597" fill="#ffe915" stroke="none" /><path d="M 79.23777060512086 103.15116336523772 l -19.093788367768184 2.8979376570684265 a40.312451861360714,40.312451861360714 0 0,0 -0.09822023120639002,-0.6869520682933362 l 19.140842649991175 -2.5688401167946897" fill="#ffe815" stroke="none" /><path d="M 79.1416061653843 102.43462659150553 l -19.82484569338827 2.313989124968801 a40.9594351732991,40.9594351732991 0 0,0 -0.07571195263068263,-0.7009986502288345 l 19.861739947520004 -1.9723941528551843" fill="#fff016" stroke="none" /><path d="M 79.07016306316243 101.71520430193888 l -20.037833616808037 1.6421044523568897 a41.10500641848524,41.10500641848524 0 0,0 -0.051720748842903036,-0.7056885256350955 l 20.063130924315278 -1.2969427902250337" fill="#fff216" stroke="none" /><path d="M 79.04373962182676 101.35467743843564 l -19.595045005727062 1.2666842697773053 a40.635943517329906,40.635943517329906 0 0,0 -0.03911431921968526,-0.6984124451809516 l 19.61394567583428 -0.9292001082609161" fill="#ffec16" stroke="none" /><path d="M 79.0235259727143 100.99374915477108 l -19.452381049179966 0.921546071125324 a40.47419768934532,40.47419768934532 0 0,0 -0.02697868772427089,-0.6962000530592879 l 19.46536186975544 -0.5865687710520393" fill="#ffea16" stroke="none" /><path d="M 79.0095281055655 100.63252640178507 l -19.40069289344396 0.5846200375933946 a40.40949935815148,40.40949935815148 0 0,0 -0.014966788235139698,-0.6954478384218189 l 19.407881744364108 -0.25058238338144695" fill="#ffe915" stroke="none" /><line stroke="#e1ed5e" stroke-width="0.3" x1="15.007084014347285" x2="10.007500721073583" y1="101.09737516637583" y2="101.16192664675087" /><path d="M 14.007167355692545 101.11028546245083 a86.0,86.0 0 0,1 10.666146001902534,-42.60595125391555" fill="none" id="id106" stroke="none" /><text fill="#e1ed5e" style="font-size:6.75px; font-family:Arial;" text-anchor="middle"><textPath startOffset="22.20632615414155" xlink:href="#id106">October</textPath></text><path d="M 79.00019446554 99.90962569577889 l -20.185692405909688 -0.08687070475067375 a41.18587933247754,41.18587933247754 0 0,0 0.00915305741406185,-0.7089143837422477 l 20.18120634137791 0.43432134655339344" fill="#fff316" stroke="none" /><path d="M 79.00486145842228 99.54816195383935 l -20.116522987719648 -0.4329292909554659 a41.1211810012837,41.1211810012837 0 0,0 0.021320951575557155,-0.7075385842335219 l 20.106090341688446 0.7791380226139822" fill="#fff216" stroke="none" /><path d="M 79.26566170972629 96.67025291283419 l -19.78678701539086 -3.177578927598285 a41.0403080872914,41.0403080872914 0 0,0 0.11801656228705067,-0.6965404311527388 l 19.729158591583587 3.517705147066852" fill="#fff116" stroke="none" /><path d="M 79.32604984820605 96.31383870115002 l -18.59859340998356 -3.3161255946522057 a39.89191270860077,39.89191270860077 0 0,0 0.12635150931731293,-0.6749748151102503 l 18.538756176756383 3.6357784872250285" fill="#ffe315" stroke="none" /><path d="M 79.3925641242962 95.95851677861259 l -19.237133977935567 -3.772742745305424 a40.603594351732994,40.603594351732994 0 0,0 0.14041245762879997,-0.6847010098673726 l 19.169342224391773 4.103319411336199" fill="#ffec16" stroke="none" /><path d="M 79.46518482838121 95.60439243477599 l -18.979546756823535 -4.062692486471484 a40.40949935815148,40.40949935815148 0 0,0 0.1514502103773372,-0.6789215967196549 l 18.90680215944416 4.388792252741098" fill="#ffe915" stroke="none" /><path d="M 79.54389044137918 95.25157060432595 l -18.481399110856664 -4.290044427054422 a39.972785622593065,39.972785622593065 0 0,0 0.1613514810953323,-0.6689060571186731 l 18.404814829500516 4.607535715832492" fill="#ffe415" stroke="none" /><path d="M 79.71946130924805 94.55025226153421 l -15.964090276211936 -4.289839939957922 a37.53042362002567,37.53042362002567 0 0,0 0.1730210244127247,-0.6224486821311273 l 15.88788248123285 4.563999925507991" fill="#ffc412" stroke="none" /><path d="M 79.81627453868168 94.20196356495316 l -22.696974973189793 -6.519999893582846 a44.61489088575097,44.61489088575097 0 0,0 0.21838798495523107,-0.7362957187862358 l 22.581381091122854 6.909724999115622" fill="#e1ff1b" stroke="none" /><path d="M 80.02781315780177 93.51064311812611 l -32.81181607271539 -10.661205311196671 a55.50038510911425,55.50038510911425 0 0,0 0.30303925491999356,-0.9060488006463712 l 32.623439524023624 11.224427214765363" fill="#65ff29" stroke="none" /><path d="M 80.65960295795067 91.81776055985345 l -18.62040793522079 -7.877637458420932 a41.21822849807445,41.21822849807445 0 0,0 0.28206868376193156,-0.6510534119731575 l 18.48204854161618 8.19699001498069" fill="#fff316" stroke="none" /><path d="M 80.803312248108 91.48605970444005 l -19.6944709259462 -8.734712559963421 a42.544544287548135,42.544544287548135 0 0,0 0.30266934963856024,-0.6668917915859353 l 19.54119925934429 9.072426360391427" fill="#faff18" stroke="none" /><path d="M 80.95270993114464 91.15688171328213 l -16.900496656730198 -7.846422798176371 a39.63311938382542,39.63311938382542 0 0,0 0.2926090672835134,-0.6163093203148775 l 16.76292939560493 8.136174534131781" fill="#ffdf14" stroke="none" /><path d="M 81.10775173730289 90.83032412892265 l -18.727335184152384 -9.089632487350348 a41.816688061617455,41.816688061617455 0 0,0 0.31987772516901936,-0.6448539747373695 l 18.568097446029952 9.41064605058668" fill="#fffb17" stroke="none" /><path d="M 81.26839172434947 90.50648371742162 l -18.221839218598156 -9.235156147545435 a41.428498074454424,41.428498074454424 0 0,0 0.3278583608723193,-0.6333179979850018 l 18.060171424565723 9.547446867790772" fill="#fff617" stroke="none" /><path d="M 81.43458229118936 90.18545643968196 l -22.349998366267798 -11.815248974154379 a46.2808729139923,46.2808729139923 0 0,0 0.37838338287769907,-0.701086941995906 l 22.14330688417163 12.198216899482757" fill="#cdff1d" stroke="none" /><line stroke="#e1ed5e" stroke-width="0.3" x1="26.266209847984243" x2="21.928928074336255" y1="57.711370442889674" y2="55.22380399835377" /><path d="M 25.398753493254645 57.213857153982495 a86.0,86.0 0 0,1 29.58750427330803,-30.492523968695096" fill="none" id="id107" stroke="none" /><text fill="#e1ed5e" style="font-size:6.75px; font-family:Arial;" text-anchor="middle"><textPath startOffset="21.46611528233685" xlink:href="#id107">November</textPath></text><path d="M 82.54541684631803 88.32363383020206 l -16.858572997214775 -11.277660983512153 a41.28292682926829,41.28292682926829 0 0,0 0.400199708953647,-0.5872436908391339 l 16.661948822592386 11.566182697621702" fill="#fff417" stroke="none" /><path d="M 82.7489923806493 88.02491185347247 l -16.688522903649154 -11.584629559978357 a41.31527599486521,41.31527599486521 0 0,0 0.4105703194975304,-0.5807226002458338 l 16.486639964347745 11.870178660555975" fill="#fff517" stroke="none" /><path d="M 82.95767976084542 87.72973835380427 l -16.486639964347745 -11.870178660555975 a41.31527599486521,41.31527599486521 0 0,0 0.4205056740200327,-0.5735692667895436 l 16.27987167781408 12.152210371017022" fill="#fff517" stroke="none" /><path d="M 83.17141714833178 87.43820079747577 l -16.35764176544695 -12.210262331388122 a41.41232349165597,41.41232349165597 0 0,0 0.4313272151832144,-0.5675760555732613 l 16.145038610039627 12.490023162842409" fill="#fff617" stroke="none" /><path d="M 83.6137871275137 86.86637796730984 l -13.42870128086682 -10.763163421911937 a38.20975609756098,38.20975609756098 0 0,0 0.4157612802707589,-0.5096741694448065 l 13.241441508519667 10.992721760964825" fill="#ffcd13" stroke="none" /><path d="M 83.84228863543731 86.58626213691792 l -18.169647182743155 -15.083997905083315 a44.61489088575097,44.61489088575097 0 0,0 0.4956276440036065,-0.5866668014939836 l 17.907308925252426 15.394523656206415" fill="#e1ff1b" stroke="none" /><path d="M 84.31358615837235 86.03803664274999 l -15.259517855180277 -13.581997217104059 a41.428498074454424,41.428498074454424 0 0,0 0.47870897702344295,-0.5286024088885061 l 15.023465237540789 13.84265241326212" fill="#fff617" stroke="none" /><path d="M 84.5562425177563 85.77008943001954 l -14.963989919894154 -13.787851730707642 a41.34762516046213,41.34762516046213 0 0,0 0.4867849570753673,-0.519268252108404 l 14.724437640848327 14.043389399694096" fill="#fff517" stroke="none" /><path d="M 84.80347519578584 85.50635884689758 l -14.431821630497607 -13.764307734358363 a40.94326059050064,40.94326059050064 0 0,0 0.4908038976735698,-0.5058165594332121 l 14.192753469120923 14.0106884893417" fill="#fff016" stroke="none" /><path d="M 85.05521093208273 85.24692304244772 l -11.717942442469667 -11.567624397526235 a37.465725288831834,37.465725288831834 0 0,0 0.45701797808403705,-0.45505539764630903 l 11.517088664218313 11.767615645822655" fill="#ffc312" stroke="none" /><path d="M 85.31137513191541 84.99185889309783 l -14.017360368336437 -14.322274838088676 a41.0403080872914,41.0403080872914 0 0,0 0.5091279973356101,-0.48978073005527717 l 13.7687491273884 14.561438654906263" fill="#fff116" stroke="none" /><path d="M 85.83668400450813 84.49514656593479 l -11.017932597263252 -12.061541952559077 a37.33632862644416,37.33632862644416 0 0,0 0.47824105542949885,-0.42936954153343887 l 10.808680554237784 12.249410502861794" fill="#ffc112" stroke="none" /><path d="M 86.37877921826538 84.01681056812374 l -18.747975509853475 -21.998941859894384 a49.90397946084724,49.90397946084724 0 0,0 0.65859579920577,-0.5515550416336001 l 18.366522173688594 22.318398058921797" fill="#a3ff22" stroke="none" /><path d="M 86.93701828274178 83.55741782278169 l -12.677296762833402 -15.957114410753583 a41.37997432605905,41.37997432605905 0 0,0 0.561521216726934,-0.43827621635732755 l 12.400742990947043 16.172969016334132" fill="#fff517" stroke="none" /><path d="M 87.51073957382395 83.11751280151077 l -12.765018166009456 -17.255245580792206 a42.46367137355584,42.46367137355584 0 0,0 0.5913666465719166,-0.42965301837841435 l 12.466106203083758 17.47241783398729" fill="#fbff18" stroke="none" /><path d="M 87.80319425747018 82.90503203632743 l -14.100697370632044 -19.763450767758044 a45.27804878048781,45.27804878048781 0 0,0 0.6383533478244984,-0.447207314626036 l 13.758412883223887 20.003242925148022" fill="#d9ff1c" stroke="none" /><path d="M 88.09926311788651 82.69761687909137 l -16.39826825322287 -23.841306857488213 a49.93632862644416,49.93632862644416 0 0,0 0.7124137921454765,-0.48102497260327615 l 15.985449766670854 24.120043742390155" fill="#a2ff22" stroke="none" /><path d="M 88.39885842347998 82.49532879139004 l -11.34797160630072 -17.122669397895752 a41.541720154043645,41.541720154043645 0 0,0 0.5994529053484127,-0.3899008445059776 l 11.05155167516802 17.315469166561265" fill="#fff717" stroke="none" /><line stroke="#e1ed5e" stroke-width="0.3" x1="56.76296977257108" x2="54.21961505331056" y1="26.818313649435495" y2="22.513508569990535" /><path d="M 56.25429882871898 25.957352633546506 a86.0,86.0 0 0,1 42.26535254187918,-11.944610805530505" fill="none" id="id108" stroke="none" /><text fill="#e1ed5e" style="font-size:6.75px; font-family:Arial;" text-anchor="middle"><textPath startOffset="22.20632615414155" xlink:href="#id108">December</textPath></text><path d="M 90.91171255644093 81.06846463323043 l -8.73595588926448 -18.19760421391149 a41.18587933247754,41.18587933247754 0 0,0 0.6417579573510376,-0.3013139660110352 l 8.421419720613834 18.34528316256253" fill="#fff316" stroke="none" /><path d="M 91.56875222667455 80.76684994638697 l -13.020270951618118 -29.701514139276593 a53.43003851091142,53.43003851091142 0 0,0 0.8455080770983427,-0.362002433347571 l 12.507079116729466 29.92123610058695" fill="#7bff26" stroke="none" /><path d="M 92.23578459929587 80.48803036053334 l -8.970210347411712 -22.542712035327334 a45.261874197689345,45.261874197689345 0 0,0 0.7263815994422869,-0.28182477556837493 l 8.580845582969747 22.69377951478626" fill="#d9ff1c" stroke="none" /><path d="M 92.57280143429618 80.3572730644239 l -10.468631611223094 -27.686411008039244 a50.59948652118101,50.59948652118101 0 0,0 0.8173447683246333,-0.3010349760302091 l 9.990504517125892 27.862509251875775" fill="#9bff22" stroke="none" /><path d="M 92.91201910852362 80.23233633223022 l -6.616662008063705 -18.4532028487833 a40.603594351732994,40.603594351732994 0 0,0 0.6599398786648006,-0.23024006540695457 l 6.2980401253356195 18.564363767362465" fill="#ffec16" stroke="none" /><path d="M 93.25333710446033 80.11325718540243 l -7.212607008222639 -21.260178967903546 a43.450320924261874,43.450320924261874 0 0,0 0.7103448358275798,-0.2341895240551564 l 6.84557935015265 21.381182216217937" fill="#efff19" stroke="none" /><path d="M 93.94186890950719 79.89281104454417 l -4.918051478341015 -16.323217324043977 a38.04801026957638,38.04801026957638 0 0,0 0.6287157980810824,-0.18353938198221884 l 4.636345462536512 16.405455034944897" fill="#ffcb12" stroke="none" /><path d="M 94.28887869178378 79.79150937346287 l -5.538101458570651 -19.59626934439812 a41.363799743260586,41.363799743260586 0 0,0 0.6868402038191529,-0.1877393732427875 l 5.1999633655277755 19.688695258467202" fill="#fff517" stroke="none" /><path d="M 94.63758080256005 79.69619591428918 l -5.7327634244261745 -21.706043700359402 a43.450320924261874,43.450320924261874 0 0,0 0.7247743430263388,-0.1847611178113303 l 5.358280192714837 21.801507814339594" fill="#efff19" stroke="none" /><path d="M 95.33964822691252 79.52364482259891 l -4.551470640519843 -19.997960229739085 a41.509370988446726,41.509370988446726 0 0,0 0.6980636371609864,-0.15256967346852648 l 4.2065642792053355 20.07334340130348" fill="#fff717" stroke="none" /><path d="M 95.692805502759 79.44645832069477 l -4.213199238636259 -20.105004826226672 a41.541720154043645,41.541720154043645 0 0,0 0.7011324300528149,-0.1406405695571481 l 3.866500399116307 20.17454935186103" fill="#fff717" stroke="none" /><path d="M 96.40284397218896 79.31037775812273 l -3.521426427225538 -20.25405124731143 a41.5578947368421,41.5578947368421 0 0,0 0.7058327289040999,-0.11646844807736972 l 3.1722644921825522 20.31166595832843" fill="#fff817" stroke="none" /><path d="M 96.75951476605007 79.25152402106235 l -3.144809803422515 -20.135876559790578 a41.37997432605905,41.37997432605905 0 0,0 0.7047029718126112,-0.10385489963146682 l 2.797737851181255 20.187025943583013" fill="#fff517" stroke="none" /><path d="M 97.83486435360386 79.11191278185805 l -4.3024775104252 -41.50803467738604 a62.730423620025675,62.730423620025675 0 0,0 1.0750049156110655,-0.10208466997840164 l 3.587347467723899 41.57594489187962" fill="#32ff48" stroke="none" /><path d="M 98.91598698831166 79.02799685794201 l -1.053677345892695 -20.38511011446253 a41.41232349165597,41.41232349165597 0 0,0 0.7122114419557385,-0.030669322867183033 l 0.7026250715476323 20.400227163853906" fill="#fff617" stroke="none" /></svg>