<?xml version="1.0" encoding="utf-8" ?>
<svg baseProfile="full" height="200mm" version="1.1" viewBox="0,0,200,200" width="200mm" xmlns="http://www.w3.org/2000/svg" xmlns:ev="http://www.w3.org/2001/xml-events" xmlns:xlink="http://www.w3.org/1999/xlink"><defs /><rect fill="#1a1a1a" height="200" width="200" x="0" y="0" /><text alignment-baseline="middle" fill="#e1ed5e" style="dominant-baseline: central; font-size:9.0px; font-family:Arial;" text-anchor="middle" x="100.0" y="100.0">2022</text><line stroke="#e1ed5e" stroke-width="0.3" x1="100.0" x2="100.0" y1="15.0" y2="10.0" /><path d="M 100.0 14.0 a86.0,86.0 0 0,1 42.46469731375804,11.215312516191453" fill="none" id="id109" stroke="none" /><text fill="#e1ed5e" style="font-size:6.75px; font-family:Arial;" text-anchor="middle"><textPath startOffset="22.20632615414155" xlink:href="#id109">January</textPath></text><path d="M 101.08401301168833 79.027996857942 l 1.3725256358213846 -26.553751326443724 a47.589199614271934,47.589199614271934 0 0,0 0.8177137755322198,0.04932672801956162 l -1.8294014601932163 26.52619132904386" fill="#dcff1b" stroke="none" /><path d="M 101.44485096284872 79.0497635885617 l 1.7597365150221116 -25.516054568608073 a46.57666345226615,46.57666345226615 0 0,0 0.7993660216650099,0.06204618801015583 l -2.1986927260494626 25.481983118409456" fill="#e9ff1a" stroke="none" /><path d="M 101.80526077348638 79.07773832637324 l 2.548603444921943 -29.537310598061314 a50.64705882352941,50.64705882352941 0 0,0 0.8679335170176463,0.08242074558104077 l -3.056662089029833 29.489064307965098" fill="#b5ff1f" stroke="none" /><path d="M 102.16513564639614 79.11191278185805 l 2.6265579972674384 -25.339646789221373 a46.47540983606557,46.47540983606557 0 0,0 0.7950245086260178,0.08933026690932605 l -3.0623492094031817 25.290680568841445" fill="#ebff1a" stroke="none" /><path d="M 102.88285421437855 79.19881850522331 l 4.770470426107627 -34.42124150919651 a55.75024108003857,55.75024108003857 0 0,0 0.9494293123239254,0.13992120067970343 l -5.362268718860208 34.334025824355834" fill="#78ff26" stroke="none" /><path d="M 103.2404852339499 79.25152402106235 l 3.8373344911190768 -24.570037128385177 a45.8678881388621,45.8678881388621 0 0,0 0.7790350512010102,0.12854745847806184 l -4.259698748458962 24.50034340696749" fill="#f3ff19" stroke="none" /><path d="M 103.95276090670814 79.375362276772 l 4.833269845425175 -25.218939858296157 a46.677917068466726,46.677917068466726 0 0,0 0.7878200831034484,0.15802929724400655 l -5.266656337995748 25.132006604974944" fill="#e8ff1a" stroke="none" /><path d="M 104.66035177308747 79.52364482259891 l 5.56366007240337 -24.44525333618375 a46.07039537126326,46.07039537126326 0 0,0 0.7717368487562768,0.18264517828305094 l -5.98362060812217 24.345862245759832" fill="#f0ff19" stroke="none" /><path d="M 105.36241919743992 79.69619591428918 l 6.4173213346412235 -24.297995053391645 a46.131147540983605,46.131147540983605 0 0,0 0.7660013580987335,0.20937710703732218 l -6.834620581963668 24.18393140552803" fill="#efff19" stroke="none" /><path d="M 107.08798089147638 80.2323363322302 l 8.277285303353805 -23.084513694955852 a45.52362584378014,45.52362584378014 0 0,0 0.7353532610060253,0.27083681192997305 l -8.673420890132407 22.938613615219552" fill="#f7ff18" stroke="none" /><path d="M 107.4271985657038 80.35727306442388 l 8.83098923000269 -23.355334919542283 a45.96914175506268,45.96914175506268 0 0,0 0.7377321267606132,0.2862286038268647 l -9.23170452176297 23.19986361182487" fill="#f1ff19" stroke="none" /><path d="M 107.76421540070413 80.48803036053334 l 9.126883870258768 -22.936442613799287 a45.685631629701064,45.685631629701064 0 0,0 0.7281770397382815,0.2970416979458487 l -9.520344779585438 22.77594002966986" fill="#f5ff19" stroke="none" /><path d="M 108.09893153111575 80.62456947434976 l 9.598444408622232 -22.962781211209396 a45.88813886210222,45.88813886210222 0 0,0 0.7261606604119052,0.3109040980099479 l -9.992288826824453 22.794157585236658" fill="#f2ff19" stroke="none" /><path d="M 109.73455568895987 81.39251694778311 l 10.32595106832773 -19.737928020673664 a43.27579556412729,43.27579556412729 0 0,0 0.6570810371928631,0.3509899339110429 l -10.664177152048904 19.55725936026087" fill="#ffe915" stroke="none" /><path d="M 110.05341064243156 81.56283822128135 l 11.992351942804083 -21.993027116947896 a46.05014464802314,46.05014464802314 0 0,0 0.6926729232885145,0.3854717318689979 l -12.369148955164635 21.78333998751872" fill="#f0ff19" stroke="none" /><path d="M 110.36928655335952 81.73862282372117 l 15.138958381664716 -26.661258481085966 a51.65959498553519,51.65959498553519 0 0,0 0.7694900052853909,0.4457382782044201 l -15.595645119415435 26.396716045491495" fill="#a9ff21" stroke="none" /><line stroke="#e1ed5e" stroke-width="0.3" x1="143.23703022742887" x2="145.7803849466894" y1="26.81831364943548" y2="22.513508569990506" /><path d="M 143.74570117128098 25.957352633546492 a86.0,86.0 0 0,1 28.547481713284135,27.462654790039103" fill="none" id="id110" stroke="none" /><text fill="#e1ed5e" style="font-size:6.75px; font-family:Arial;" text-anchor="middle"><textPath startOffset="19.985693538727396" xlink:href="#id110">February</textPath></text><path d="M 110.68208982089419 81.91981866633111 l 11.197137546106065 -18.951935496333725 a43.01253616200579,43.01253616200579 0 0,0 0.6342053725686961,0.38210164080029185 l -11.521704984892398 18.75638724607482" fill="#ffe515" stroke="none" /><path d="M 110.99172775467656 82.1063720568725 l 12.571059900719762 -20.464650665910515 a45.01735776277724,45.01735776277724 0 0,0 0.6567836299676555,0.4112778488322999 l -12.92146268305968 20.245228475755273" fill="#feff18" stroke="none" /><path d="M 111.60114157652 82.49532879139004 l 14.028767152320246 -21.167654479842717 a46.39440694310511,46.39440694310511 0 0,0 0.6618831679022301,0.4469064695503826 l -14.391055014629018 20.923036097993666" fill="#ecff1a" stroke="none" /><path d="M 111.90073688211348 82.69761687909136 l 13.622154946064311 -19.805138635022715 a45.03760848601736,45.03760848601736 0 0,0 0.6349634962063263,0.4448325069363619 l -13.96104958185429 19.567721285322417" fill="#feff18" stroke="none" /><path d="M 112.19680574252982 82.90503203632743 l 36.590417227589455 -51.28490389101772 a84.0,84.0 0 0,0 1.1698187345848452,0.8499230607333006 l -37.46778127852809 50.647461595467746" fill="#4dd2ff" stroke="none" /><path d="M 112.77801427241765 83.33499621200491 l 15.587452318812268 -20.32905476549064 a46.61716489874638,46.61716489874638 0 0,0 0.632589255567012,0.49374594793455423 l -15.93507412953871 20.05773042833286" fill="#e9ff1a" stroke="none" /><path d="M 113.06298171725822 83.55741782278167 l 13.856586199598881 -17.441504720289448 a43.27579556412729,43.27579556412729 0 0,0 0.5792704313092406,0.4683964032271552 l -14.154760029472614 17.200402219798164" fill="#ffe915" stroke="none" /><path d="M 113.34407831869373 83.78471172551755 l 15.595971959746185 -18.951715900359428 a45.54387656702025,45.54387656702025 0 0,0 0.6010543870578062,0.5033657637621024 l -15.91988388376311 18.680448979203504" fill="#f7ff19" stroke="none" /><path d="M 113.6212207817346 84.01681056812373 l 16.327075633265302 -19.158249241872905 a46.17164898746384,46.17164898746384 0 0,0 0.6004649364372012,0.5207172757985962 l -16.654434368349268 18.874366972654634" fill="#efff19" stroke="none" /><path d="M 114.68862486808459 84.99185889309783 l 20.3686042047306 -20.811674938982964 a50.1205400192864,50.1205400192864 0 0,0 0.6113851442486813,0.6087596621417128 l -20.723825149146606 20.457979426191134" fill="#bcff1f" stroke="none" /><path d="M 114.94478906791727 85.2469230424477 l 18.086509431278852 -17.854495257211315 a46.41465766634523,46.41465766634523 0 0,0 0.5563918106002643,0.5734106690444918 l -18.391165505582226 17.54052039261671" fill="#ebff1a" stroke="none" /><path d="M 115.19652480421416 85.50635884689758 l 17.58517817266826 -16.771812327601634 a45.30086788813886,45.30086788813886 0 0,0 0.5333264230974681,0.5689154430509078 l -17.871271917736195 16.46662746767267" fill="#faff18" stroke="none" /><path d="M 115.4437574822437 85.77008943001954 l 18.035091910315444 -16.617571552793006 a45.52362584378014,45.52362584378014 0 0,0 0.5260284434861638,0.580853745629753 l -18.318463994417645 16.304665019893704" fill="#f7ff18" stroke="none" /><path d="M 115.68641384162765 86.03803664274999 l 17.123452718150926 -15.241024609842835 a43.923818707810995,43.923818707810995 0 0,0 0.49782029691383534,0.5690946563122529 l -17.38326487864261 14.944014397327633" fill="#fff216" stroke="none" /><path d="M 116.15771136456269 86.58626213691792 l 17.310720661551738 -14.370938057747523 a43.49855351976856,43.49855351976856 0 0,0 0.47330881294105476,0.5802206400017351 l -17.5555279665692 14.070833248137687" fill="#ffec16" stroke="none" /><path d="M 117.65298651832404 88.62581576622439 l 23.832382956271605 -15.355697133351836 a49.351012536162,49.351012536162 0 0,0 0.4539644628241138,0.7180627603861904 l -24.093175015341675 14.943186725251438" fill="#c6ff1e" stroke="none" /><line stroke="#e1ed5e" stroke-width="0.3" x1="172.23445277983987" x2="176.4835382374775" y1="55.19839476539836" y2="52.563006222186495" /><path d="M 173.08426987136738 54.67131705675599 a86.0,86.0 0 0,1 12.851231095245387,41.99856678651699" fill="none" id="id111" stroke="none" /><text fill="#e1ed5e" style="font-size:6.75px; font-family:Arial;" text-anchor="middle"><textPath startOffset="22.20632615414155" xlink:href="#id111">March</textPath></text><path d="M 117.84615892207809 88.93136811851018 l 21.59781046018129 -13.395499528707543 a46.41465766634523,46.41465766634523 0 0,0 0.4152657573075938,0.682587718234686 l -21.82519201577511 13.021744037265774" fill="#ebff1a" stroke="none" /><path d="M 118.03404312379186 89.2402003453031 l 21.703457877041703 -12.949112795623655 a46.27290260366442,46.27290260366442 0 0,0 0.40222241449885004,0.6875284886898257 l -21.923139966010876 12.573604894579935" fill="#edff1a" stroke="none" /><path d="M 118.21658344932153 89.55222093294921 l 21.9758398216984 -12.603829906345752 a46.333654773384765,46.333654773384765 0 0,0 0.39084061400473286,0.6952618411467614 l -22.189538076995568 12.223684555264196" fill="#ecff1a" stroke="none" /><path d="M 118.56541770881063 90.18545643968196 l 22.486176125618282 -11.88723887344211 a46.434908389585345,46.434908389585345 0 0,0 0.3674782736392027,0.7098510586856599 l -22.687463832417603 11.498415092496105" fill="#ebff1a" stroke="none" /><path d="M 118.73160827565052 90.50648371742162 l 22.669400565035104 -11.489260303409722 a46.41465766634523,46.41465766634523 0 0,0 0.3550500002996997,0.7157591351595053 l -22.863810578288213 11.097341579751268" fill="#ebff1a" stroke="none" /><path d="M 118.89224826269711 90.83032412892265 l 22.863810578288213 -11.097341579751268 a46.41465766634523,46.41465766634523 0 0,0 0.34267677889555914,0.7217646898282367 l -23.051445551025527 10.70213447428249" fill="#ebff1a" stroke="none" /><path d="M 119.196687751892 91.48605970444005 l 23.15820287137599 -10.270915438520243 a46.333654773384765,46.333654773384765 0 0,0 0.31707507799416246,0.731852996321941 l -23.331568659212834 9.870763297611699" fill="#ecff1a" stroke="none" /><path d="M 119.47837535516314 92.15188598940014 l 23.87368859827612 -9.619048126781495 a46.73866923818708,46.73866923818708 0 0,0 0.2942454068206706,0.7488224654778493 l -24.035727554978493 9.206676656407861" fill="#e7ff1a" stroke="none" /><path d="M 119.7369772167798 92.82701384747503 l 24.07644761738327 -8.750074718364594 a46.61716489874638,46.61716489874638 0 0,0 0.267597886186903,0.7565352593692702 l -24.223498584379982 8.33434183256871" fill="#e9ff1a" stroke="none" /><path d="M 119.85752413597 93.16781622104841 l 24.357541659550467 -8.380460720179762 a46.758919961427196,46.758919961427196 0 0,0 0.2553097287184021,0.7633435924323789 l -24.498188682040638 7.959944024825069" fill="#e7ff1a" stroke="none" /><path d="M 119.97218684219823 93.5106431181261 l 24.53670784663504 -7.972459660084227 a46.799421407907424,46.799421407907424 0 0,0 0.24234192575860705,0.768290130557903 l -24.670305256161853 7.548919363099905" fill="#e6ff1a" stroke="none" /><path d="M 120.08093135843002 93.85539295169968 l 24.457296341077257 -7.483740310514271 a46.57666345226615,46.57666345226615 0 0,0 0.22799077786218394,0.7686715626643985 l -24.582493016051142 7.061639361103342" fill="#e9ff1a" stroke="none" /><path d="M 120.18372546131832 94.20196356495316 l 24.582493016051142 -7.061639361103342 a46.57666345226615,46.57666345226615 0 0,0 0.2147255811932159,0.7724821621373295 l -24.70040536781072 6.637445895547061" fill="#e9ff1a" stroke="none" /><path d="M 120.45610955862082 95.25157060432595 l 24.24354739396818 -5.627598579829713 a45.88813886210222,45.88813886210222 0 0,0 0.17198352849892268,0.7709684356796354 l -24.336825309469138 5.209451974600113" fill="#f2ff19" stroke="none" /><path d="M 120.53481517161879 95.60439243477599 l 24.65365948762334 -5.277272342048123 a46.212150433944075,46.212150433944075 0 0,0 0.15980756675214763,0.7792784499856262 l -24.740846350290482 4.852118235899085" fill="#eeff19" stroke="none" /><path d="M 120.73433829027371 96.67025291283417 l 23.073699505280484 -3.705427327472871 a44.369334619093536,44.369334619093536 0 0,0 0.11460832929073668,0.7551256940684153 l -23.13406372801052 3.3077025210123727" fill="#fff817" stroke="none" /><path d="M 120.83666639777658 97.38593545837742 l 23.50906430607386 -2.9493302928625016 a44.69334619093539,44.69334619093539 0 0,0 0.08919439818811886,0.7641631335747829 l -23.556349057265567 2.544223420962866" fill="#fffc17" stroke="none" /><path d="M 120.87857604477298 97.74499172005257 l 25.22744048611433 -2.7247110653559594 a46.374156219865,46.374156219865 0 0,0 0.07888657877309194,0.7943770826295506 l -25.27060419056965 2.290058452021974" fill="#ecff1a" stroke="none" /><line stroke="#e1ed5e" stroke-width="0.3" x1="184.98032266829074" x2="189.97916517819016" y1="98.17113171792111" y2="98.06355123074" /><path d="M 185.9800911702706 98.14961562048488 a86.0,86.0 0 0,1 -9.607161424134198,41.387399972396054" fill="none" id="id112" stroke="none" /><text fill="#e1ed5e" style="font-size:6.75px; font-family:Arial;" text-anchor="middle"><textPath startOffset="21.466115282336823" xlink:href="#id112">April</textPath></text><path d="M 120.99980553446 99.90962569577887 l 24.989161069936 -0.10754280753025507 a45.9893924783028,45.9893924783028 0 0,0 -0.0034069439301240663,0.7916537849560579 l -24.987309828716374 -0.32262045562948755" fill="#f1ff19" stroke="none" /><path d="M 120.99824983174949 100.27111621757518 l 25.311294396997944 0.3268035409536948 a46.31340405014465,46.31340405014465 0 0,0 -0.0171534644545689,0.7970540899595057 l -25.30191886985837 -0.7624474467033153" fill="#edff1a" stroke="none" /><path d="M 120.9904718944345 100.63252640178507 l 25.403126545337805 0.7654972364901286 a46.41465766634523,46.41465766634523 0 0,0 -0.030938391036684935,0.7983824010066517 l -25.386186021449916 -1.2026568845107866" fill="#ebff1a" stroke="none" /><path d="M 120.9764740272857 100.99374915477107 l 24.880485104687963 1.1786995760543963 a45.908389585342334,45.908389585342334 0 0,0 -0.0441893370665102,0.7890302980401113 l -24.856509416733925 -1.6068015904299309" fill="#f2ff19" stroke="none" /><path d="M 120.95626037817324 101.35467743843564 l 25.159637580352637 1.6263967317766377 a46.212150433944075,46.212150433944075 0 0,0 -0.058146859332672544,0.7933676976994892 l -25.127914162355626 -2.059237565972897" fill="#eeff19" stroke="none" /><path d="M 120.81339534386255 102.79330883721812 l 22.097925046858883 2.965702053787023 a43.2960462873674,43.2960462873674 0 0,0 -0.10548968073915749,0.7377945813942959 l -22.043601315103125 -3.345642107161728" fill="#ffe915" stroke="none" /><path d="M 120.76222939487914 103.15116336523771 l 24.826580954339587 3.768025624777969 a46.110896817743495,46.110896817743495 0 0,0 -0.12585693859146216,0.7837112767488644 l -24.758042261386834 -4.194816131220039" fill="#efff19" stroke="none" /><path d="M 120.64145759157962 103.86396538481128 l 24.980741829732338 4.676255118551744 a46.41465766634523,46.41465766634523 0 0,0 -0.1537652783218687,0.7840458414274544 l -24.896546618434805 -5.105564687047143" fill="#ebff1a" stroke="none" /><path d="M 120.5718875245553 104.21870165774334 l 26.06698187778752 5.345587250023862 a47.60945033751206,47.60945033751206 0 0,0 -0.1715435631232732,0.8013944171191771 l -25.9711042759398 -5.793495486559208" fill="#dcff1b" stroke="none" /><path d="M 120.49622156327973 104.57218783832717 l 24.884033701223903 5.5509975780654806 a46.49566055930569,46.49566055930569 0 0,0 -0.18097757051441726,0.7796466371530327 l -24.784795564778932 -5.978512872567078" fill="#eaff1a" stroke="none" /><path d="M 120.41448212921028 104.9243191809786 l 19.88295752218167 4.7961064347043285 a41.45323047251688,41.45323047251688 0 0,0 -0.17329164863839,0.6922139949407238 l -19.79745455924822 -5.137648269042448" fill="#ffd013" stroke="none" /><path d="M 120.23288151984713 105.62410040840565 l 23.978988802210335 6.66539961613361 a45.88813886210222,45.88813886210222 0 0,0 -0.2180940065729014,0.7592138481259568 l -23.860702158751334 -7.077170939764149" fill="#f2ff19" stroke="none" /><path d="M 120.02730092923936 106.31721596034902 l 24.372665161716554 7.687875161003338 a46.556412729026036,46.556412729026036 0 0,0 -0.2476529555580021,0.7621974242536632 l -24.236719955142306 -8.106271485234796" fill="#e9ff1a" stroke="none" /><path d="M 119.79798401119884 107.00284435728193 l 25.048172635190813 8.859914943832097 a47.56894889103182,47.56894889103182 0 0,0 -0.2796957675011788,0.7696026276109913 l -24.891952606684406 -9.289765368449219" fill="#dcff1b" stroke="none" /><path d="M 119.67450827220406 107.3425965602758 l 31.60822640452456 11.796302670607012 a54.73770491803279,54.73770491803279 0 0,0 -0.3370427794202037,0.8799123421890186 l -31.400489345510852 -12.338638579629174" fill="#84ff25" stroke="none" /><path d="M 118.81262510543309 109.33194174019688 l 43.73889983529333 21.696539571470275 a69.824493731919,69.824493731919 0 0,0 -0.5433719831985964,1.0721244725642336 l -43.358949182308464 -22.446218255737204" fill="#3aff90" stroke="none" /><path d="M 118.64920377521936 109.65438752849418 l 44.5998315935815 23.088602768240673 a71.22179363548699,71.22179363548699 0 0,0 -0.5729877806876096,1.083876944977884 l -44.195791304668994 -23.85289472830469" fill="#3cffa0" stroke="none" /><line stroke="#e1ed5e" stroke-width="0.3" x1="174.80103733775053" x2="179.2010983576182" y1="140.37084112569926" y2="142.7455964860345" /><path d="M 175.68104954172406 140.8457921977663 a86.0,86.0 0 0,1 -30.038265399797805,32.042727171017184" fill="none" id="id113" stroke="none" /><text fill="#e1ed5e" style="font-size:6.75px; font-family:Arial;" text-anchor="middle"><textPath startOffset="22.206326154141568" xlink:href="#id113">May</textPath></text><path d="M 118.12598468904814 110.60418214915192 l 44.93915779705185 26.29060010170647 a73.06460945033751,73.06460945033751 0 0,0 -0.6444268085639308,1.0800963985139214 l -44.479950112789695 -27.060258594106497" fill="#3effb6" stroke="none" /><path d="M 117.94076556474637 110.91462005526583 l 43.04399684193728 26.186667982161396 a71.3837994214079,71.3837994214079 0 0,0 -0.6476732354584674,1.0442554792067607 l -42.586858966810844 -26.92371979273343" fill="#3cffa2" stroke="none" /><path d="M 117.75023020441432 111.22182372390056 l 44.38413396340054 28.059970025143805 a73.51012536162006,73.51012536162006 0 0,0 -0.6853773827785027,1.0637209183077394 l -43.89455171724498 -28.819812543373" fill="#3fffbb" stroke="none" /><path d="M 117.55443506779139 111.5257021239791 l 35.09194204004969 23.040289781107685 a62.97974927675988,62.97974927675988 0 0,0 -0.6027968584114344,0.9010995147733275 l -34.69014207622754 -23.64092621008682" fill="#30ff39" stroke="none" /><path d="M 116.93607887273984 112.41649034213515 l 42.33203128075378 31.03523911939661 a73.48987463837994,73.48987463837994 0 0,0 -0.7567313048828457,1.0137652461530338 l -41.79153870917584 -31.75931724505896" fill="#3fffbb" stroke="none" /><path d="M 116.71984013943494 112.70617746262583 l 40.19533410570037 30.546287766949064 a71.48505303760848,71.48505303760848 0 0,0 -0.7529526858439907,0.973292845496835 l -39.663574602638306 -31.233658606559153" fill="#3cffa4" stroke="none" /><path d="M 116.498646956653 112.99209946851258 l 35.12923093567003 27.6630237478069 a65.7135969141755,65.7135969141755 0 0,0 -0.707460342702024,0.8826655545212899 l -34.64785268091315 -28.26361713590644" fill="#34ff5c" stroke="none" /><path d="M 116.0416608686014 113.55231037782055 l 19.104581651613046 16.139926052659966 a46.009643201542914,46.009643201542914 0 0,0 -0.5163103358294941,0.6005855648071441 l -18.82392880621277 -16.466388716628636" fill="#f1ff19" stroke="none" /><path d="M 115.32070863581623 114.36230785411682 l 18.142555645884606 17.00763167295608 a45.8678881388621,45.8678881388621 0 0,0 -0.5449398853680283,0.5713672911674266 l -17.847109209137614 -17.317406080706014" fill="#f3ff19" stroke="none" /><path d="M 115.07121518719521 114.62390073753431 l 18.283113505777784 17.740469747172774 a46.47540983606557,46.47540983606557 0 0,0 -0.5620412396311917,0.569344808403447 l -17.975031641091057 -18.052555049556887" fill="#ebff1a" stroke="none" /><path d="M 114.81725581225074 114.88116024355365 l 17.417777083060415 17.492897142615142 a45.685631629701064,45.685631629701064 0 0,0 -0.5620421479654854,0.5500765359755811 l -17.114084982719135 -17.790123781513294" fill="#f5ff19" stroke="none" /><path d="M 114.55890576462653 115.13401014063108 l 16.243639315017255 16.885293859894073 a44.43008678881388,44.43008678881388 0 0,0 -0.5557234130632286,0.5254711735578094 l -15.95058006756322 -17.162399670197804" fill="#fff817" stroke="none" /><path d="M 114.29624159901734 115.38237550388516 l 18.11500623057742 19.49126462112353 a47.60945033751206,47.60945033751206 0 0,0 -0.6050944640341397,0.5527394462439185 l -17.77681221707642 -19.800196833954033" fill="#dcff1b" stroke="none" /><path d="M 113.48314897796784 116.09983520530334 l 19.698139538689755 23.520974287400733 a51.67984570877532,51.67984570877532 0 0,0 -0.6869232709295547,0.5652910864768378 l -19.29034613921551 -23.85656049273475" fill="#a9ff21" stroke="none" /><path d="M 112.92097659922987 116.55440617244103 l 16.335005131716848 20.92847299138881 a47.548698167791706,47.548698167791706 0 0,0 -0.649540738184452,0.4980401402018629 l -15.972335665038903 -21.206552473418043" fill="#ddff1b" stroke="none" /><path d="M 112.63410532772338 116.77436683061366 l 12.46353881413791 16.547904790470376 a41.716489874638384,41.716489874638384 0 0,0 -0.577306616140557,0.42707763316882913 l -12.17684722757879 -16.759992372378974" fill="#ffd313" stroke="none" /><path d="M 111.1453310114006 117.79835938074945 l 13.499070154598993 21.557125730203776 a46.434908389585345,46.434908389585345 0 0,0 -0.6810913158680966,0.4183819147179643 l -13.125999638798588 -21.78629611175012" fill="#ebff1a" stroke="none" /><line stroke="#e1ed5e" stroke-width="0.3" x1="143.8653032363475" x2="146.44561519142675" y1="172.8068346515853" y2="177.08958963109032" /><path d="M 144.38136562736335 173.6633856474863 a86.0,86.0 0 0,1 -40.68145358897372,12.25698825130547" fill="none" id="id114" stroke="none" /><text fill="#e1ed5e" style="font-size:6.75px; font-family:Arial;" text-anchor="middle"><textPath startOffset="21.466115282336833" xlink:href="#id114">June</textPath></text><path d="M 110.8373102113329 117.98757091392108 l 13.042394545557833 21.647529894477824 a46.27290260366442,46.27290260366442 0 0,0 -0.6857911424302285,0.40517749499400424 l -12.667835532099222 -21.86882596176558" fill="#edff1a" stroke="none" /><path d="M 110.5260780823613 118.17145234162733 l 11.500526969445845 19.853669723301596 a43.944069431051105,43.944069431051105 0 0,0 -0.6578034481976861,0.3735179655020793 l -11.157074754326961 -20.048690854598306" fill="#fff216" stroke="none" /><path d="M 110.21172684928248 118.3499491758327 l 13.451512898861985 24.171678470769006 a48.662487945998066,48.662487945998066 0 0,0 -0.7354458853226946,0.4010237356039262 l -13.03344420167064 -24.399642858132705" fill="#ceff1d" stroke="none" /><path d="M 109.89434966115114 118.52300852407294 l 9.541320791852593 17.862110437871674 a41.25072324011572,41.25072324011572 0 0,0 -0.6291896157700371,0.3291622696331841 l -9.23244027355606 -18.023702126449574" fill="#ffcd13" stroke="none" /><path d="M 108.92500713936063 119.00905698771935 l 9.493040380631411 20.21889089436301 a43.33654773384764,43.33654773384764 0 0,0 -0.6779734706438981,0.311224367873752 l -9.143598914220094 -20.379302332570838" fill="#ffea16" stroke="none" /><path d="M 108.2653958097858 119.30500536409082 l 12.091229935819731 28.24078412471145 a51.720347155255546,51.720347155255546 0 0,0 -0.8214386619512867,0.34336142731628594 l -11.603319814370984 -28.44473059504771" fill="#a8ff21" stroke="none" /><path d="M 107.93186726928326 119.44442032107085 l 15.542482440871348 38.10131349316872 a62.14946962391514,62.14946962391514 0 0,0 -0.9940331896118731,0.39554632065359163 l -14.88432817521761 -38.36320665822838" fill="#31ff2f" stroke="none" /><path d="M 107.2578585660854 119.70592522655815 l 4.948221799635853 13.4349943444326 a35.31726133076181,35.31726133076181 0 0,0 -0.5722749144279098,0.2051974237476466 l -4.716227324578208 -13.518179309220207" fill="#ff780b" stroke="none" /><path d="M 106.91757812671514 119.82793768551818 l 13.461593693067647 38.585128495058534 a61.86595949855352,61.86595949855352 0 0,0 -1.0085043065349775,0.34213941661160474 l -12.795419653595443 -38.811130898568265" fill="#34ff2f" stroke="none" /><path d="M 105.88484417918355 120.15858648285463 l 4.596647815948579 15.74585829422589 a37.40308582449373,37.40308582449373 0 0,0 -0.6195889416690387,0.17510202382232914 l -4.324927706174934 -15.822649111386738" fill="#ff960d" stroke="none" /><path d="M 105.53697534728816 120.25689768951611 l 6.204402462438609 22.698664527693076 a44.53134040501446,44.53134040501446 0 0,0 -0.7411490031412894,0.19574418792807988 l -5.812763016485823 -22.802100064924737" fill="#fffa17" stroke="none" /><path d="M 105.18746579009965 120.34920634021253 l 6.172934218884256 24.214966850358977 a45.9893924783028,45.9893924783028 0 0,0 -0.768782150769689,0.18894794828238956 l -5.755198783371356 -24.317636056955397" fill="#f1ff19" stroke="none" /><path d="M 104.48393922423573 120.51570834832081 l 5.3357579582515795 24.41309942317057 a45.9893924783028,45.9893924783028 0 0,0 -0.7748304639285271,0.16237325725171164 l -4.914736032893675 -24.501328661148825" fill="#f1ff19" stroke="none" /><path d="M 102.34483914955558 120.86867818915974 l 2.738283712740422 24.370269322152794 a45.52362584378014,45.52362584378014 0 0,0 -0.7794672351307669,0.08079496597054495 l -2.3183838810040522 -24.413793656579095" fill="#f7ff18" stroke="none" /><path d="M 101.98527174616119 120.90594882070398 l 2.737645705892481 28.828839743111562 a49.95853423336548,49.95853423336548 0 0,0 -0.8568023800690614,0.07392851458875348 l -2.240999008081878 -28.87169250997898" fill="#beff1f" stroke="none" /><path d="M 100.90346689309514 120.98055641714683 l 1.0175981978159367 23.630944932716968 a44.65284474445516,44.65284474445516 0 0,0 -0.7681982879049101,0.026458302285885443 l -0.6106795582363743 -23.644960033428948" fill="#fffb17" stroke="none" /><line stroke="#e1ed5e" stroke-width="0.3" x1="102.19456741930631" x2="102.32365962044197" y1="184.97166512339345" y2="189.96999836594603" /><path d="M 102.22038585953345 185.97133177190398 a86.0,86.0 0 0,1 -42.740103519485714,-10.115201625700543" fill="none" id="id115" stroke="none" /><text fill="#e1ed5e" style="font-size:6.75px; font-family:Arial;" text-anchor="middle"><textPath startOffset="22.20632615414155" xlink:href="#id115">July</textPath></text><path d="M 100.54218724476979 120.99299961872073 l 0.6451871360134298 24.981062227098736 a45.9893924783028,45.9893924783028 0 0,0 -0.791543822809789,0.013627144743518237 l -0.21508362331097292 -24.988466849121412" fill="#f1ff19" stroke="none" /><path d="M 100.18074693466247 120.99922214144158 l 0.22310132725935605 25.919965613351224 a46.92092574734812,46.92092574734812 0 0,0 -0.8076965238436051,0.0 l 0.22310132725933818 -25.919965613351224" fill="#e5ff1a" stroke="none" /><path d="M 99.81925306533755 120.99922214144158 l -0.21090047342484314 24.50246749387108 a45.50337512054002,45.50337512054002 0 0,0 -0.7831787625951544,-0.013483132645832443 l 0.6326389259126655 -24.495206883946086" fill="#f7ff18" stroke="none" /><path d="M 98.73552117531835 120.96189622390904 l -1.4705510728698823 24.37805867505718 a45.42237222757956,45.42237222757956 0 0,0 -0.7800475675726711,-0.05379664729987694 l 1.8899614012214834 -24.349133683241018" fill="#f8ff18" stroke="none" /><path d="M 98.37488393609728 120.93702456842531 l -1.8805586081805803 24.227993714667676 a45.30086788813886,45.30086788813886 0 0,0 -0.7769221419596637,-0.06703611152616196 l 2.2973250678817854 -24.19203335086285" fill="#faff18" stroke="none" /><path d="M 98.01472825383883 120.90594882070398 l -0.6221922058846505 6.5520090325253575 a27.58148505303761,27.58148505303761 0 0,0 -0.4722572839182082,-0.04895139842165273 l 0.7348820864084521 -6.540328265647944" fill="#ff0000" stroke="none" /><path d="M 97.2962882734958 120.8252237178851 l -3.1339069385323435 24.138783904433822 a45.34136933461909,45.34136933461909 0 0,0 -0.7731165711983464,-0.10714691211384532 l 3.548952100917521 -24.081262426827372" fill="#f9ff18" stroke="none" /><path d="M 96.93821686468263 120.77559828337769 l -3.6257181197393646 24.602154958522473 a45.8678881388621,45.8678881388621 0 0,0 -0.7801126026294201,-0.1218375447047304 l 4.048666585977302 -24.536099106470637" fill="#f3ff19" stroke="none" /><path d="M 96.58105272829116 120.7198165907248 l -3.791503724653012 22.977617241401664 a44.28833172613308,44.28833172613308 0 0,0 -0.751111185526159,-0.1305903074007324 l 4.18646388165122 -22.908948355479925" fill="#fff617" stroke="none" /><path d="M 96.22490169976321 120.6578951692458 l -4.390326470670758 24.02451453626851 a45.42237222757956,45.42237222757956 0 0,0 -0.7679244363699981,-0.14717454590586884 l 4.803218521612451 -23.945382792014172" fill="#f8ff18" stroke="none" /><path d="M 95.86986931433489 120.58985236759428 l -4.890839423333407 24.382197403477115 a45.8678881388621,45.8678881388621 0 0,0 -0.772783355701484,-0.1619442658190783 l 5.309814240464278 -24.294397156931492" fill="#f3ff19" stroke="none" /><path d="M 95.16358092515715 120.4354850818985 l -5.167552878424185 21.834635940929164 a43.43780135004822,43.43780135004822 0 0,0 -0.7261284515195886,-0.1784647067660615 l 5.5426346146869845 -21.742449975849073" fill="#ffeb16" stroke="none" /><path d="M 94.81253420990036 120.34920634021253 l -5.957831973007398 23.37117140905798 a45.11861137897782,45.11861137897782 0 0,0 -0.7509231373346209,-0.1983256256042624 l 6.3592455531535075 -23.265154434150134" fill="#fcff18" stroke="none" /><path d="M 92.06813273071674 119.44442032107085 l -8.451989713170686 20.71946427655091 a43.37704918032787,43.37704918032787 0 0,0 -0.688927804972455,-0.28797187835218657 l 8.807388977640603 -20.570907355178747" fill="#ffea16" stroke="none" /><path d="M 91.7346041902142 119.30500536409082 l -9.580526290609956 22.376679313054158 a45.34136933461909,45.34136933461909 0 0,0 -0.7148376175904655,-0.3133638044105318 l 9.964284582858165 -22.208450955349175" fill="#f9ff18" stroke="none" /><path d="M 91.07499286063937 119.00905698771935 l -10.35369680679927 22.051972571095835 a45.36162005785921,45.36162005785921 0 0,0 -0.7039417778972593,-0.33793483186208323 l 10.731751252696771 -21.87048346273419" fill="#f9ff18" stroke="none" /><path d="M 90.7491055286396 118.85261126421891 l -10.758513724648633 21.9250233217435 a45.42237222757956,45.42237222757956 0 0,0 -0.6989553375772114,-0.3504707163360033 l 11.134322969908604 -21.736584764498193" fill="#f8ff18" stroke="none" /><path d="M 90.42595943632237 118.69057910512821 l -11.106625649087936 21.682513658118847 a45.36162005785921,45.36162005785921 0 0,0 -0.6918923609842332,-0.361965382414498 l 11.478208912598665 -21.48811885675963" fill="#f9ff18" stroke="none" /><line stroke="#e1ed5e" stroke-width="0.3" x1="58.666819895761336" x2="56.23545636021788" y1="174.27360380694188" y2="178.64263932499728" /><path d="M 58.180547188652646 175.14741091055294 a86.0,86.0 0 0,1 -31.652253787137756,-30.449443065178592" fill="none" id="id116" stroke="none" /><text fill="#e1ed5e" style="font-size:6.75px; font-family:Arial;" text-anchor="middle"><textPath startOffset="22.20632615414155" xlink:href="#id116">August</textPath></text><path d="M 89.7882731507175 118.34994917583269 l -12.033491041295283 21.62356595262059 a45.74638379942141,45.74638379942141 0 0,0 -0.6847824836306585,-0.38883736593049545 l 12.403922291847149 -21.413225420895465" fill="#f4ff19" stroke="none" /><path d="M 89.4739219176387 118.17145234162733 l -12.556179930454109 21.67607188678207 a46.05014464802314,46.05014464802314 0 0,0 -0.6824897408692951,-0.4032269687598974 l 12.927437542351786 -21.45672634572842" fill="#f0ff19" stroke="none" /><path d="M 89.1626897886671 117.98757091392108 l -12.781128629180463 21.213885465501903 a45.76663452266152,45.76663452266152 0 0,0 -0.6712893039083725,-0.4123607183875269 l 13.144397133021144 -20.990736280285997" fill="#f4ff19" stroke="none" /><path d="M 87.07902340077011 116.55440617244103 l -17.006596875881257 21.788918982415392 a48.64021215043394,48.64021215043394 0 0,0 -0.6555832191342117,-0.5208349584870555 l 17.379137587732828 -21.492950109923203" fill="#cfff1d" stroke="none" /><path d="M 86.51685102203217 116.09983520530335 l -17.760830765577687 21.207690347583764 a48.662487945998066,48.662487945998066 0 0,0 -0.637558591885567,-0.5433412635431509 l 18.12325483404031 -20.898824693817662" fill="#ceff1d" stroke="none" /><path d="M 86.24171649860922 115.8653595955263 l -15.416707259996222 17.777770347156753 a44.53134040501446,44.53134040501446 0 0,0 -0.5747885881951915,-0.5071840995590519 l 15.720438201098002 -17.50976310582541" fill="#fffa17" stroke="none" /><path d="M 85.70375840098266 115.38237550388516 l -22.292210863655765 23.985825641062974 a53.74541947926711,53.74541947926711 0 0,0 -0.6722378934684454,-0.6356428872481252 l 22.701784591515025 -23.598548117068923" fill="#8fff24" stroke="none" /><path d="M 85.44109423537348 115.13401014063109 l -17.14216387522563 17.819311843501023 a45.72613307618129,45.72613307618129 0 0,0 -0.5625404122810574,-0.5505641924791106 l 17.446354239882485 -17.521597548099344" fill="#f4ff19" stroke="none" /><path d="M 83.95833913139862 113.55231037782056 l -18.872542198354573 15.943894562141837 a45.705882352941174,45.705882352941174 0 0,0 -0.5025557649375972,-0.6053607933406375 l 19.144193963185707 -15.61667251168744" fill="#f5ff19" stroke="none" /><path d="M 83.72743513129214 113.27417163493432 l -19.285421623569864 15.731877472839233 a45.88813886210222,45.88813886210222 0 0,0 -0.49402315456478796,-0.6163698448521348 l 19.553362690189513 -15.39757979440884" fill="#f2ff19" stroke="none" /><path d="M 83.50135304334701 112.99209946851258 l -19.664732534641363 15.485279597957138 a46.029893924783025,46.029893924783025 0 0,0 -0.4848332733494025,-0.6267123619870556 l 19.928372625208834 -15.14448924185683" fill="#f0ff19" stroke="none" /><path d="M 83.28015986056508 112.70617746262583 l -19.896126067562868 15.11998359583441 a45.9893924783028,45.9893924783028 0 0,0 -0.4735565702367038,-0.6344064133407588 l 20.153443904494658 -14.775264302984345" fill="#f1ff19" stroke="none" /><path d="M 82.85270091963577 112.12312394758628 l -19.90872525820495 14.075449597776165 a45.38187078109932,45.38187078109932 0 0,0 -0.44547512733814654,-0.641740146035593 l 20.14806129270523 -13.730668189553562" fill="#f9ff18" stroke="none" /><path d="M 82.6465618267979 111.8261652097733 l -20.13132702252857 13.719263980093803 a45.36162005785921,45.36162005785921 0 0,0 -0.4341687983413346,-0.6490234447241621 l 20.364498926280632 -13.370703621163818" fill="#f9ff18" stroke="none" /><path d="M 82.44556493220864 111.52570212397912 l -20.787701314607325 13.648565292426571 a45.8678881388621,45.8678881388621 0 0,0 -0.42765282975023294,-0.6637266886961616 l 21.019559007734603 -13.28871700380896" fill="#f3ff19" stroke="none" /><path d="M 82.24976979558568 111.22182372390057 l -20.557402580040115 12.996538372617723 a45.32111861137898,45.32111861137898 0 0,0 -0.4112036031081145,-0.6629911382878869 l 20.778070822816186 -12.640750902964571" fill="#faff18" stroke="none" /><line stroke="#e1ed5e" stroke-width="0.3" x1="26.63291911575756" x2="22.317208475507996" y1="142.92168965132927" y2="145.44649492493687" /><path d="M 25.769776987707644 143.4266507060508 a86.0,86.0 0 0,1 -11.730757126820373,-40.83630448921669" fill="none" id="id117" stroke="none" /><text fill="#e1ed5e" style="font-size:6.75px; font-family:Arial;" text-anchor="middle"><textPath startOffset="21.46611528233685" xlink:href="#id117">September</textPath></text><path d="M 81.69416730710424 110.29060199501025 l -21.536273756347946 12.106590582364996 a45.705882352941174,45.705882352941174 0 0,0 -0.3796278147231698,-0.6891347540753274 l 21.74147798052263 -11.734085309891846" fill="#f5ff19" stroke="none" /><path d="M 81.51974371655577 109.97397251340807 l -21.91968681642856 11.830266337022108 a45.908389585342334,45.908389585342334 0 0,0 -0.36933844151801665,-0.6986491425262796 l 22.12007776617146 -11.451202179409703" fill="#f2ff19" stroke="none" /><path d="M 81.35079622478065 109.6543875284942 l -21.904272129428325 11.339483133756925 a45.665380906460946,45.665380906460946 0 0,0 -0.35536653773574595,-0.7011718925848075 l 22.09621733695034 -10.960757029469432" fill="#f5ff19" stroke="none" /><path d="M 81.18737489456691 109.33194174019688 l -24.14619480745558 11.977641712827433 a47.95371263259402,47.95371263259402 0 0,0 -0.3604446367756466,-0.7426227119326959 l 24.348792700845944 -11.560230044929453" fill="#d7ff1c" stroke="none" /><path d="M 81.02952815118164 109.00673069616217 l -24.531728784248248 11.64708376427528 a48.15621986499518,48.15621986499518 0 0,0 -0.3490761438330686,-0.7518789585447918 l 24.728579544921143 -11.22308473845166" fill="#d5ff1c" stroke="none" /><path d="M 80.58989483394504 108.01547362559985 l -22.72311250876636 9.383592074713805 a45.58437801350048,45.58437801350048 0 0,0 -0.2932538238250917,-0.7278319411628208 l 22.881268946848838 -8.991060765708179" fill="#f6ff19" stroke="none" /><path d="M 80.20201598880116 107.00284435728193 l -23.7117609854474 8.387206067255693 a46.15139826422372,46.15139826422372 0 0,0 -0.2584679809839753,-0.751228938919472 l 23.8526197973746 -7.977804425246925" fill="#efff19" stroke="none" /><path d="M 80.0844068197444 106.66101706037122 l -24.505590065579696 8.196198427226308 a46.83992285438765,46.83992285438765 0 0,0 -0.24916106403029442,-0.7668389048711096 l 24.643043380626242 -7.773160622377395" fill="#e6ff1a" stroke="none" /><path d="M 79.97269907076064 106.31721596034903 l -25.376927117666842 8.004649731821239 a47.60945033751206,47.60945033751206 0 0,0 -0.23980024863846436,-0.7836810873000344 l 25.51095413881144 -7.5666416719691565" fill="#dcff1b" stroke="none" /><path d="M 79.86692584326677 105.97154293290107 l -23.41416338767625 6.944725918108677 a45.42237222757956,45.42237222757956 0 0,0 -0.2158803427815512,-0.7515077940628653 l 23.530236367343903 -6.540660648541216" fill="#f8ff18" stroke="none" /><path d="M 79.4281124754447 104.21870165774334 l -23.964165988102987 4.914360272472475 a45.46287367405979,45.46287367405979 0 0,0 -0.15061215088681662,-0.767968112567446 l 24.04520807196547 -4.501128432837074" fill="#f8ff18" stroke="none" /><path d="M 79.35854240842038 103.8639653848113 l -24.224352834091036 4.534663330101588 a45.64513018322083,45.64513018322083 0 0,0 -0.1379212333341067,-0.7735355215499868 l 24.29882050976433 -4.117009057818388" fill="#f5ff19" stroke="none" /><path d="M 79.29508885075956 103.50808413554451 l -24.19898969419422 4.100094476644113 a45.54387656702025,45.54387656702025 0 0,0 -0.1243092906860724,-0.7740740717646696 l 24.265980739241584 -3.6829411751862295" fill="#f7ff19" stroke="none" /><path d="M 79.23777060512086 103.15116336523772 l -24.346066484255587 3.6950960965564823 a45.62487945998072,45.62487945998072 0 0,0 -0.11116382165824729,-0.7774795097667865 l 24.406064356930436 -3.275471114809295" fill="#f6ff19" stroke="none" /><path d="M 79.1416061653843 102.43462659150553 l -39.20251647412343 4.5757832467157975 a60.46865959498553,60.46865959498553 0 0,0 -0.11177400937112736,-1.034888508054041 l 39.27547278499561 -3.900298416776974" fill="#43ff2d" stroke="none" /><path d="M 79.07016306316243 101.71520430193888 l -24.52242225482897 2.009617383660308 a45.604628736740594,45.604628736740594 0 0,0 -0.05738243962190626,-0.782937798080323 l 24.553381253115216 -1.5872064490832245" fill="#f6ff19" stroke="none" /><path d="M 79.0095281055655 100.63252640178507 l -24.492257466022902 0.7380491284088153 a45.50337512054002,45.50337512054002 0 0,0 -0.01685344758610246,-0.7831134849754875 l 24.501332976294012 -0.3163458276431989" fill="#f7ff18" stroke="none" /><line stroke="#e1ed5e" stroke-width="0.3" x1="15.007084014347285" x2="10.007500721073583" y1="101.09737516637583" y2="101.16192664675087" /><path d="M 14.007167355692545 101.11028546245083 a86.0,86.0 0 0,1 10.666146001902534,-42.60595125391555" fill="none" id="id118" stroke="none" /><text fill="#e1ed5e" style="font-size:6.75px; font-family:Arial;" text-anchor="middle"><textPath startOffset="22.20632615414155" xlink:href="#id118">October</textPath></text><path d="M 79.00175016825051 100.2711162175752 l -24.33934069215322 0.31425428498109503 a45.34136933461909,45.34136933461909 0 0,0 -0.0033589376748338986,-0.780498821891968 l 24.341143927117557 0.10475401511454822" fill="#f9ff18" stroke="none" /><path d="M 79.00019446554 99.90962569577889 l -24.624651427100634 -0.10597411179641489 a45.62487945998072,45.62487945998072 0 0,0 0.010139570842610284,-0.785320935959264 l 24.619178849140308 0.5298313058161508" fill="#f6ff19" stroke="none" /><path d="M 79.00486145842228 99.54816195383935 l -22.493345149173418 -0.4840810697053811 a43.49855351976856,43.49855351976856 0 0,0 0.02255359721241505,-0.7484440919297126 l 22.48167985750536 0.8711953090600881" fill="#ffec16" stroke="none" /><path d="M 79.01574976396665 99.18683210126434 l -31.56743526346387 -1.2232805419745614 a52.591128254580525,52.591128254580525 0 0,0 0.042840211588817366,-0.904289157280661 l 31.541701443641557 1.7664808058782315" fill="#9dff22" stroke="none" /><path d="M 79.05617556472873 98.46500227214037 l -24.478221037173356 -1.7940378458687318 a45.54387656702025,45.54387656702025 0 0,0 0.0640336411667802,-0.781372613500199 l 24.44371291218708 2.2151243765767092" fill="#f7ff19" stroke="none" /><path d="M 79.08570108090925 98.10471618934814 l -24.726066031634787 -2.240711621850698 a45.82738669238187,45.82738669238187 0 0,0 0.07795647500589828,-0.7850110646247582 l 24.683832430946662 2.6659982171798866" fill="#f3ff19" stroke="none" /><path d="M 79.21141760316559 97.0276538004421 l -24.05621878129344 -3.4395520149175347 a45.30086788813886,45.30086788813886 0 0,0 0.11701452881029983,-0.7709795425061621 l 23.993448359043835 3.853130669815789" fill="#faff18" stroke="none" /><path d="M 79.26566170972629 96.67025291283419 l -25.0131699143032 -4.01688872328296 a46.333654773384765,46.333654773384765 0 0,0 0.13323824574901613,-0.7863796685953575 l 24.940319807033962 4.446854180194146" fill="#ecff1a" stroke="none" /><path d="M 79.32604984820605 96.31383870115002 l -24.222612762227225 -4.318887153425968 a45.604628736740594,45.604628736740594 0 0,0 0.14444566032303918,-0.7716344933021082 l 24.144681377994324 4.7351997241906485" fill="#f6ff19" stroke="none" /><path d="M 79.62865764111835 94.90015583598534 l -23.828773656049602 -5.965391485968922 a45.564127290260366,45.564127290260366 0 0,0 0.19701856633732734,-0.759192905028984 l 23.722558757841966 6.37468081654677" fill="#f7ff19" stroke="none" /><path d="M 79.71946130924805 94.55025226153421 l -32.58184904415888 -8.7553324322893 a54.73770491803279,54.73770491803279 0 0,0 0.2523492373762072,-0.9078344714161989 l 32.426313036216314 9.31487820712444" fill="#84ff25" stroke="none" /><path d="M 79.81627453868168 94.20196356495316 l -25.575135251853684 -7.346788693974499 a47.60945033751206,47.60945033751206 0 0,0 0.2330462255452044,-0.7857160190538923 l 25.444883129196775 7.785934099774932" fill="#dcff1b" stroke="none" /><path d="M 79.91906864156998 93.8553929516997 l -25.425518682370893 -7.780008731358053 a47.589199614271934,47.589199614271934 0 0,0 0.24643164237678006,-0.7812556498533518 l 25.287831556225907 8.21651454763782" fill="#dcff1b" stroke="none" /><path d="M 80.65960295795067 91.81776055985345 l -34.65232179761587 -14.660174426029197 a58.62584378013501,58.62584378013501 0 0,0 0.4011942092627252,-0.9260115491049133 l 34.39483687851047 15.254485119720709" fill="#57ff2a" stroke="none" /><path d="M 80.803312248108 91.48605970444005 l -22.36219749690024 -9.917878377084294 a45.46287367405979,45.46287367405979 0 0,0 0.32343085671868427,-0.7126370203949381 l 22.188164323218206 10.301337406321304" fill="#f8ff18" stroke="none" /><path d="M 81.43458229118936 90.18545643968196 l -46.619428846425166 -24.64519906563952 a73.73288331726133,73.73288331726133 0 0,0 0.6028256612782489,-1.1169443969975572 l 46.188295085928445 25.44402444596955" fill="#3fffbe" stroke="none" /><line stroke="#e1ed5e" stroke-width="0.3" x1="26.266209847984243" x2="21.928928074336255" y1="57.711370442889674" y2="55.22380399835377" /><path d="M 25.398753493254645 57.213857153982495 a86.0,86.0 0 0,1 29.58750427330803,-30.492523968695096" fill="none" id="id119" stroke="none" /><text fill="#e1ed5e" style="font-size:6.75px; font-family:Arial;" text-anchor="middle"><textPath startOffset="21.46611528233685" xlink:href="#id119">November</textPath></text><path d="M 81.78341655067845 89.55222093294921 l -21.501541120510673 -12.331804800453389 a45.786885245901644,45.786885245901644 0 0,0 0.3979977589417556,-0.680307182900531 l 21.286083687098596 12.700091395707812" fill="#f4ff19" stroke="none" /><path d="M 81.96595687620814 89.24020034530311 l -21.45998959957489 -12.80385031233941 a45.9893924783028,45.9893924783028 0 0,0 0.4114609663375082,-0.6763336422822892 l 21.23641283495116 13.171351727828773" fill="#f1ff19" stroke="none" /><path d="M 82.15384107792192 88.93136811851018 l -21.081528138423963 -13.075288384595012 a45.807135969141754,45.807135969141754 0 0,0 0.4213654554403398,-0.6664989593736205 l 20.853335086737662 13.436234991682849" fill="#f3ff19" stroke="none" /><path d="M 82.34701348167596 88.62581576622439 l -21.142728308349533 -13.622697028302122 a46.15139826422372,46.15139826422372 0 0,0 0.43602822374088696,-0.6641008989343269 l 20.905103449250724 13.984615991214115" fill="#efff19" stroke="none" /><path d="M 82.54541684631803 88.32363383020206 l -20.70312177341255 -13.849498928497072 a45.908389585342334,45.908389585342334 0 0,0 0.44503928286303335,-0.6530402326383485 l 20.46165802488078 14.203817184405835" fill="#f2ff19" stroke="none" /><path d="M 82.7489923806493 88.02491185347247 l -20.345209564576574 -14.12298245246206 a45.76663452266152,45.76663452266152 0 0,0 0.45480566947274365,-0.6432903657185759 l 20.099091275299955 14.471099318512422" fill="#f4ff19" stroke="none" /><path d="M 82.95767976084542 87.72973835380427 l -20.13195978106496 -14.49476423972013 a45.807135969141754,45.807135969141754 0 0,0 0.4662236938227206,-0.6359285944214659 l 19.879473474728606 14.839155277813099" fill="#f3ff19" stroke="none" /><path d="M 83.39014120810768 87.1503855733568 l -19.284734797915487 -14.918935168445921 a45.38187078109932,45.38187078109932 0 0,0 0.4833081054859314,-0.6137522132605787 l 19.025072611835583 15.248679775659548" fill="#f9ff18" stroke="none" /><path d="M 84.5562425177563 85.77008943001954 l -20.90045250779249 -19.257720823443183 a49.4198649951784,49.4198649951784 0 0,0 0.5818193128864935,-0.620644276808878 l 20.56586587293554 19.614634517130114" fill="#c5ff1e" stroke="none" /><path d="M 85.05521093208273 85.24692304244772 l -18.086509431278863 -17.854495257211305 a46.41465766634523,46.41465766634523 0 0,0 0.5661796972193952,-0.5637483416682199 l 17.77649393389215 18.163179449529636" fill="#ebff1a" stroke="none" /><path d="M 85.31137513191541 84.99185889309783 l -17.167418842930108 -17.540855372772842 a45.54387656702025,45.54387656702025 0 0,0 0.5649972855502896,-0.5435269410526202 l 16.86293831376739 17.833765400587772" fill="#f7ff19" stroke="none" /><path d="M 86.93701828274178 83.55741782278169 l -16.41375619825214 -20.660255136851937 a47.38669238187078,47.38669238187078 0 0,0 0.6430316498813345,-0.5018964023314045 l 16.055691993211383 20.93972992840656" fill="#dfff1b" stroke="none" /><path d="M 87.22198572758235 83.33499621200491 l -12.593182821996953 -16.42394780263354 a41.69623915139826,41.69623915139826 0 0,0 0.5733309251798216,-0.4318209664488388 l 12.308605743058742 16.63828535858823" fill="#ffd313" stroke="none" /><path d="M 87.51073957382395 83.11751280151077 l -15.813306595534371 -21.37580105266766 a47.589199614271934,47.589199614271934 0 0,0 0.6627468722937444,-0.48151378802394457 l 15.443014406886846 21.64483407550827" fill="#dcff1b" stroke="none" /><path d="M 88.39885842347998 82.49532879139004 l -13.626027425459394 -20.55997061917737 a45.665380906460946,45.665380906460946 0 0,0 0.6589579140370613,-0.42860455739657527 l 13.270102485638047 20.79147410073348" fill="#f5ff19" stroke="none" /><path d="M 88.70189139769569 82.29822771554957 l -12.561927886650794 -19.68191267499647 a44.349083895853425,44.349083895853425 0 0,0 0.6470338055012435,-0.4051725096458851 l 12.221274928777309 19.895229525965288" fill="#fff717" stroke="none" /><path d="M 89.00827224532344 82.1063720568725 l -3.826435602158377 -6.229122167279678 a28.310511089681775,28.310511089681775 0 0,0 0.4174289599110219,-0.2514962777018807 l 3.718644576029708 6.294065054440178" fill="#ff0c01" stroke="none" /><line stroke="#e1ed5e" stroke-width="0.3" x1="56.76296977257108" x2="54.21961505331056" y1="26.818313649435495" y2="22.513508569990535" /><path d="M 56.25429882871898 25.957352633546506 a86.0,86.0 0 0,1 42.26535254187918,-11.944610805530505" fill="none" id="id120" stroke="none" /><text fill="#e1ed5e" style="font-size:6.75px; font-family:Arial;" text-anchor="middle"><textPath startOffset="22.20632615414155" xlink:href="#id120">December</textPath></text><path d="M 89.3179101791058 81.91981866633112 l -12.48475685913575 -21.13132090299583 a45.54387656702025,45.54387656702025 0 0,0 0.6783939717314269,-0.3929695757278533 l 12.119166154939 21.34309463611373" fill="#f7ff19" stroke="none" /><path d="M 90.91171255644093 81.06846463323043 l -10.849855212272058 -22.601003649046014 a46.07039537126326,46.07039537126326 0 0,0 0.7178684371199525,-0.3370488567926545 l 10.459208563852496 22.784417488478674" fill="#f0ff19" stroke="none" /><path d="M 91.23893434514133 80.91482961587045 l -10.746456618110159 -23.410160779761615 a46.758919961427196,46.758919961427196 0 0,0 0.7343775202123606,-0.32949378672838453 l 10.341896979431024 23.591674897006527" fill="#e7ff1a" stroke="none" /><path d="M 91.90106846888425 80.62456947434976 l -9.684354000562719 -23.16830651090289 a46.110896817743495,46.110896817743495 0 0,0 0.7349552834592649,-0.2998067137512008 l 9.284114847515074 23.331574110837668" fill="#efff19" stroke="none" /><path d="M 92.91201910852362 80.23233633223022 l -8.448162374025852 -23.561072606907864 a46.029893924783025,46.029893924783025 0 0,0 0.7481348165517381,-0.26100954748270694 l 8.041345553410828 23.703003007562778" fill="#f0ff19" stroke="none" /><path d="M 93.59665428221793 80.00007090966166 l -7.039357876828899 -21.986421565077833 a44.08582449373192,44.08582449373192 0 0,0 0.7247176891116138,-0.22517331375192146 l 6.659854815006557 22.10433501371228" fill="#fff417" stroke="none" /><path d="M 93.94186890950719 79.89281104454417 l -5.86534581953209 -19.467326626111515 a41.33172613307618,41.33172613307618 0 0,0 0.6829768231692354,-0.19937966314072872 l 5.529378778639433 19.56540461817094" fill="#ffce13" stroke="none" /><path d="M 94.28887869178378 79.79150937346287 l -5.5238714292583175 -19.545917163371964 a41.31147540983606,41.31147540983606 0 0,0 0.6859713654615295,-0.1875018868990899 l 5.186602174573066 19.63810559109735" fill="#ffce13" stroke="none" /><path d="M 94.98787191387505 79.60689891045804 l -5.838621724241986 -23.75589789408553 a45.46287367405979,45.46287367405979 0 0,0 0.7615600991023251,-0.18023667043755515 l 5.428837938177128 23.852880476663955" fill="#f8ff18" stroke="none" /><path d="M 95.33964822691252 79.52364482259891 l -5.56366007240338 -24.44525333618375 a46.07039537126326,46.07039537126326 0 0,0 0.7747664441183605,-0.16933393619276743 l 5.142050904131498 24.537400770472384" fill="#f0ff19" stroke="none" /><path d="M 97.83486435360386 79.11191278185805 l -2.733040078237756 -26.366929767162784 a47.50819672131148,47.50819672131148 0 0,0 0.8141431551073343,-0.07731270257221451 l 2.2787717960401856 26.41006801425018" fill="#ddff1b" stroke="none" /></svg>