<?xml version="1.0" encoding="utf-8" ?>
<svg baseProfile="full" height="200mm" version="1.1" viewBox="0,0,200,200" width="200mm" xmlns="http://www.w3.org/2000/svg" xmlns:ev="http://www.w3.org/2001/xml-events" xmlns:xlink="http://www.w3.org/1999/xlink"><defs /><rect fill="#1a1a1a" height="200" width="200" x="0" y="0" /><text alignment-baseline="middle" fill="#e1ed5e" style="dominant-baseline: central; font-size:9.0px; font-family:Arial;" text-anchor="middle" x="100.0" y="100.0">2019</text><line stroke="#e1ed5e" stroke-width="0.3" x1="100.0" x2="100.0" y1="15.0" y2="10.0" /><path d="M 100.0 14.0 a86.0,86.0 0 0,1 42.46469731375804,11.215312516191453" fill="none" id="id73" stroke="none" /><text fill="#e1ed5e" style="font-size:6.75px; font-family:Arial;" text-anchor="middle"><textPath startOffset="22.20632615414155" xlink:href="#id73">January</textPath></text><path d="M 100.72285384407766 79.0124445844662 l 1.0613330250346602 -30.81506152280756 a51.83333333333333,51.83333333333333 0 0,0 0.8914325486263324,0.0383869607220272 l -1.591606406050324 30.792226835561337" fill="#aeff20" stroke="none" /><path d="M 102.88285421437855 79.19881850522331 l 4.606465464245107 -33.23786672710348 a54.55555555555556,54.55555555555556 0 0,0 0.9290837598387831,0.13692279511621294 l -5.1779182045125465 33.1536494478263" fill="#8dff24" stroke="none" /><path d="M 106.40334571778207 80.00007090966166 l 15.635682797653043 -48.835805688842036 a72.27777777777777,72.27777777777777 0 0,0 1.1816286991074467,0.389564404070724 l -16.47399431900291 48.55942756051208" fill="#3dffaa" stroke="none" /><line stroke="#e1ed5e" stroke-width="0.3" x1="143.23703022742887" x2="145.7803849466894" y1="26.81831364943548" y2="22.513508569990506" /><path d="M 143.74570117128098 25.957352633546492 a86.0,86.0 0 0,1 28.547481713284135,27.462654790039103" fill="none" id="id74" stroke="none" /><text fill="#e1ed5e" style="font-size:6.75px; font-family:Arial;" text-anchor="middle"><textPath startOffset="19.985693538727396" xlink:href="#id74">February</textPath></text><path d="M 114.42810811169701 84.74124197986012 l 23.016267701992845 -24.341352079746947 a54.5,54.5 0 0,0 0.6761030106249085,0.6504105605454545 l -23.431853956230174 23.94155843243919" fill="#8dff24" stroke="none" /><path d="M 115.68641384162765 86.03803664274999 l 30.83334784214114 -27.443753371525826 a62.27777777777778,62.27777777777778 0 0,0 0.7058389442572279,0.8068959298849088 l -31.301178649976215 26.90894188543797" fill="#34ff2f" stroke="none" /><path d="M 116.38621287248628 86.86637796730983 l 28.524148333587238 -22.862230945794003 a57.55555555555556,57.55555555555556 0 0,0 0.612955482816543,0.7783912165731541 l -28.913457896997745 22.36784733526781" fill="#69ff28" stroke="none" /><path d="M 117.2510076193507 88.02491185347247 l 32.49396144173994 -22.55625068869736 a60.55555555555556,60.55555555555556 0 0,0 0.5870299799499488,0.8613940598816322 l -32.87741588735862 21.99357860554532" fill="#47ff2c" stroke="none" /><path d="M 117.45458315368197 88.32363383020206 l 52.36374946104589 -35.02909850939381 a84.0,84.0 0 0,0 0.7936134585683003,1.208727744089304 l -52.95895955497212 34.12255270132683" fill="#4dd2ff" stroke="none" /><line stroke="#e1ed5e" stroke-width="0.3" x1="172.23445277983987" x2="176.4835382374775" y1="55.19839476539836" y2="52.563006222186495" /><path d="M 173.08426987136738 54.67131705675599 a86.0,86.0 0 0,1 12.851231095245387,41.99856678651699" fill="none" id="id75" stroke="none" /><text fill="#e1ed5e" style="font-size:6.75px; font-family:Arial;" text-anchor="middle"><textPath startOffset="22.20632615414155" xlink:href="#id75">March</textPath></text><path d="M 118.21658344932153 89.55222093294921 l 34.409102070940676 -19.734693793318165 a60.666666666666664,60.666666666666664 0 0,0 0.5117445918218535,0.9103365268550397 l -34.743704304054965 19.139473756528332" fill="#46ff2d" stroke="none" /><path d="M 118.3937258080291 89.86733742301442 l 29.342372122332137 -16.164009349000818 a54.5,54.5 0 0,0 0.4455813615520794,0.8255945908752857 l -29.61626158310268 15.656533774793074" fill="#8dff24" stroke="none" /><path d="M 119.7369772167798 92.82701384747503 l 29.448823148846053 -10.702550767259474 a52.33333333333333,52.33333333333333 0 0,0 0.30041057639460156,0.8493011531908176 l -29.628686806050464 10.194051987642043" fill="#a8ff21" stroke="none" /><path d="M 119.85752413597 93.16781622104841 l 26.26656631742063 -9.037280130888337 a48.77777777777778,48.77777777777778 0 0,0 0.26633295256186745,0.7963016286619268 l -26.418236563754267 8.583805399304095" fill="#d6ff1c" stroke="none" /><path d="M 119.97218684219823 93.5106431181261 l 31.807556822760134 -10.334901700762131 a54.44444444444444,54.44444444444444 0 0,0 0.2819302272676136,0.8937958648203947 l -31.980742533795954 9.785855669515318" fill="#8eff24" stroke="none" /><path d="M 120.28053869075195 94.5502522615342 l 33.5326367241269 -9.010826287145829 a55.72222222222222,55.72222222222222 0 0,0 0.24094200829123388,0.9284478443769921 l -33.68277506428844 8.432282017219986" fill="#7fff26" stroke="none" /><path d="M 120.87857604477298 97.74499172005257 l 29.495131237853908 -3.185646617703512 a50.66666666666667,50.66666666666667 0 0,0 0.08618852216351178,0.8679066560781887 l -29.54559688569965 2.6774644309208884" fill="#bdff1f" stroke="none" /><path d="M 120.91429891909075 98.10471618934814 l 21.68890258276079 -1.9654795073426743 a42.77777777777778,42.77777777777778 0 0,0 0.060144569997325516,0.7339160945767673 l -21.71952163657761 1.5918494955581382" fill="#ffd714" stroke="none" /><line stroke="#e1ed5e" stroke-width="0.3" x1="184.98032266829074" x2="189.97916517819016" y1="98.17113171792111" y2="98.06355123074" /><path d="M 185.9800911702706 98.14961562048488 a86.0,86.0 0 0,1 -9.607161424134198,41.387399972396054" fill="none" id="id76" stroke="none" /><text fill="#e1ed5e" style="font-size:6.75px; font-family:Arial;" text-anchor="middle"><textPath startOffset="21.466115282336823" xlink:href="#id76">April</textPath></text><line stroke="#e1ed5e" stroke-width="0.3" x1="174.80103733775053" x2="179.2010983576182" y1="140.37084112569926" y2="142.7455964860345" /><path d="M 175.68104954172406 140.8457921977663 a86.0,86.0 0 0,1 -30.038265399797805,32.042727171017184" fill="none" id="id77" stroke="none" /><text fill="#e1ed5e" style="font-size:6.75px; font-family:Arial;" text-anchor="middle"><textPath startOffset="22.206326154141568" xlink:href="#id77">May</textPath></text><line stroke="#e1ed5e" stroke-width="0.3" x1="143.8653032363475" x2="146.44561519142675" y1="172.8068346515853" y2="177.08958963109032" /><path d="M 144.38136562736335 173.6633856474863 a86.0,86.0 0 0,1 -40.68145358897372,12.25698825130547" fill="none" id="id78" stroke="none" /><text fill="#e1ed5e" style="font-size:6.75px; font-family:Arial;" text-anchor="middle"><textPath startOffset="21.466115282336833" xlink:href="#id78">June</textPath></text><path d="M 105.18746579009965 120.34920634021253 l 4.569910338897315 17.926681775901514 a39.5,39.5 0 0,0 -0.6603021548877696,0.1622862045998008 l -4.260654899266334 -18.002689238815343" fill="#ffa80f" stroke="none" /><path d="M 104.48393922423573 120.51570834832081 l 3.9619992087162257 18.127636477087705 a39.55555555555556,39.55555555555556 0 0,0 -0.6664330144504838,0.13965751778492771 l -3.649374732836364 -18.193149975599173" fill="#ffa90f" stroke="none" /><path d="M 103.7750983002368 120.6578951692458 l 4.053736508111432 22.182644574594896 a43.55,43.55 0 0,0 -0.7385893948758202,0.128413233590961 l -3.6712981417635615 -22.249136386706862" fill="#ffe215" stroke="none" /><path d="M 103.41894727170886 120.7198165907248 l 1.2481870991952984 7.564377485502705 a28.666666666666668,28.666666666666668 0 0,0 -0.4875573925344052,0.07614643758966515 l -1.117793843052376 -7.584742230439476" fill="#ff0000" stroke="none" /><path d="M 102.34483914955558 120.86867818915974 l 3.138858755754306 27.935320538928117 a49.111111111111114,49.111111111111114 0 0,0 -0.8408930809540933,0.08716200604526342 l -2.6575330781946103 -27.98521191342914" fill="#d1ff1c" stroke="none" /><path d="M 101.62511606390274 120.93702456842531 l 1.4531461100505916 18.721466413036396 a39.77777777777778,39.77777777777778 0 0,0 -0.6831118076250949,0.04711138975222176 l -1.1306715416465662 -18.743706147304902" fill="#ffac0f" stroke="none" /><path d="M 101.26447882468166 120.96189622390904 l 1.348108376578598 22.34826502178661 a43.388888888888886,43.388888888888886 0 0,0 -0.7459003136747947,0.038554526240000844 l -0.9632199944903237 -22.368159354788812" fill="#ffdf14" stroke="none" /><line stroke="#e1ed5e" stroke-width="0.3" x1="102.19456741930631" x2="102.32365962044197" y1="184.97166512339345" y2="189.96999836594603" /><path d="M 102.22038585953345 185.97133177190398 a86.0,86.0 0 0,1 -42.740103519485714,-10.115201625700543" fill="none" id="id79" stroke="none" /><text fill="#e1ed5e" style="font-size:6.75px; font-family:Arial;" text-anchor="middle"><textPath startOffset="22.20632615414155" xlink:href="#id79">July</textPath></text><path d="M 95.16358092515715 120.4354850818985 l -6.435764006999879 27.193251312685042 a48.94444444444444,48.94444444444444 0 0,0 -0.8181803072519352,-0.20108881329454925 l 6.9028975989950245 -27.078441241076465" fill="#d3ff1c" stroke="none" /><path d="M 94.46302465271185 120.25689768951611 l -10.370842713968285 37.94149091052225 a60.333333333333336,60.333333333333336 0 0,0 -0.9994326757629347,-0.28244965723377197 l 11.022406557835833 -37.757352459949956" fill="#49ff2c" stroke="none" /><path d="M 91.40352486487194 119.15986991738527 l -15.94214039609726 35.53192807430443 a59.94444444444444,59.94444444444444 0 0,0 -0.9377937369496149,-0.4304951087553803 l 16.551402128814296 -35.25224589521498" fill="#4eff2c" stroke="none" /><line stroke="#e1ed5e" stroke-width="0.3" x1="58.666819895761336" x2="56.23545636021788" y1="174.27360380694188" y2="178.64263932499728" /><path d="M 58.180547188652646 175.14741091055294 a86.0,86.0 0 0,1 -31.652253787137756,-30.449443065178592" fill="none" id="id80" stroke="none" /><text fill="#e1ed5e" style="font-size:6.75px; font-family:Arial;" text-anchor="middle"><textPath startOffset="22.20632615414155" xlink:href="#id80">August</textPath></text><path d="M 84.67929136418377 114.36230785411682 l -14.874867908318935 13.944357096457338 a41.388888888888886,41.388888888888886 0 0,0 -0.482778904876138,-0.5239611512513237 l 15.112693221190804 -13.686244690404672" fill="#ffc312" stroke="none" /><path d="M 84.19399662182784 113.82643327865904 l -21.66007870342112 18.947334492977195 a49.77777777777778,49.77777777777778 0 0,0 -0.5585955328692597,-0.6497728019874837 l 21.983016745861164 -18.57168459182818" fill="#c9ff1d" stroke="none" /><line stroke="#e1ed5e" stroke-width="0.3" x1="26.63291911575756" x2="22.317208475507996" y1="142.92168965132927" y2="145.44649492493687" /><path d="M 25.769776987707644 143.4266507060508 a86.0,86.0 0 0,1 -11.730757126820373,-40.83630448921669" fill="none" id="id81" stroke="none" /><text fill="#e1ed5e" style="font-size:6.75px; font-family:Arial;" text-anchor="middle"><textPath startOffset="21.46611528233685" xlink:href="#id81">September</textPath></text><path d="M 80.87730276802145 108.67885076344099 l -24.636914158660186 11.181482332793026 a48.05555555555556,48.05555555555556 0 0,0 -0.33537952832656853,-0.7561922987667146 l 24.825734771718032 -10.755741697533615" fill="#dfff1b" stroke="none" /><path d="M 80.45479744820244 107.68017299344265 l -29.266096942638683 11.499941572191908 a52.44444444444444,52.44444444444444 0 0,0 -0.32292222239081325,-0.8430480235701031 l 29.459713444623006 -10.994469981788647" fill="#a7ff21" stroke="none" /><path d="M 80.20201598880116 107.00284435728193 l -31.058742112806634 10.985943661026939 a53.94444444444444,53.94444444444444 0 0,0 -0.3021124422066803,-0.8780801727520972 l 31.24324538595654 -10.449690785185545" fill="#94ff23" stroke="none" /><path d="M 79.86692584326677 105.97154293290107 l -26.89736097658804 7.977854976494824 a49.05555555555556,49.05555555555556 0 0,0 -0.23314788790891564,-0.8116183839403222 l 27.03070150138306 -7.513679117049906" fill="#d2ff1c" stroke="none" /><path d="M 79.67330655649465 105.27499134158121 l -26.994709282115565 7.005411781676634 a48.888888888888886,48.888888888888886 0 0,0 -0.20437577624430275,-0.8163796331489289 l 27.11129637265493 -6.539704309130313" fill="#d4ff1c" stroke="none" /><path d="M 79.4281124754447 104.21870165774334 l -32.76263568725472 6.718673010480135 a54.44444444444444,54.44444444444444 0 0,0 -0.18036684043345735,-0.9196866335275244 l 32.87343246066384 -6.153722649884656" fill="#8eff24" stroke="none" /><path d="M 79.29508885075956 103.50808413554451 l -34.836834632055336 5.902490767741556 a56.333333333333336,56.333333333333336 0 0,0 -0.15375846845939464,-0.9574541298705855 l 34.933274854876025 -5.301957408177756" fill="#77ff26" stroke="none" /><path d="M 79.18660465613746 102.79330883721812 l -27.696131899372645 3.7170220770389317 a48.94444444444444,48.94444444444444 0 0,0 -0.10487743479768995,-0.8359763451661191 l 27.756010843417183 -3.239727977585404" fill="#d3ff1c" stroke="none" /><line stroke="#e1ed5e" stroke-width="0.3" x1="15.007084014347285" x2="10.007500721073583" y1="101.09737516637583" y2="101.16192664675087" /><path d="M 14.007167355692545 101.11028546245083 a86.0,86.0 0 0,1 10.666146001902534,-42.60595125391555" fill="none" id="id82" stroke="none" /><text fill="#e1ed5e" style="font-size:6.75px; font-family:Arial;" text-anchor="middle"><textPath startOffset="22.20632615414155" xlink:href="#id82">October</textPath></text><path d="M 79.01574976396665 99.18683210126434 l -44.91073661627244 -1.7403514023204867 a65.94444444444444,65.94444444444444 0 0,0 0.05371769054718761,-1.1338955461335667 l 44.87412531749175 2.5131580550770622" fill="#34ff5b" stroke="none" /><path d="M 79.03285615573316 98.82574320788736 l -55.6350404121684 -3.1158189483835526 a76.72222222222223,76.72222222222223 0 0,0 0.08519604185953811,-1.3179450589063249 l 55.57316377930445 4.073023071542889" fill="#43ffde" stroke="none" /><path d="M 79.08570108090925 98.10471618934814 l -44.81635482662306 -4.061322451396832 a66.0,66.0 0 0,0 0.11227189071299559,-1.1305626177860761 l 44.739805810227836 4.832160599887338" fill="#34ff5b" stroke="none" /><path d="M 79.21141760316559 97.0276538004421 l -49.6066172538218 -7.092741460320711 a71.11111111111111,71.11111111111111 0 0,0 0.18368374708384436,-1.210246391899794 l 49.47717761329866 7.945586964612597" fill="#3bff9c" stroke="none" /><path d="M 79.32604984820605 96.31383870115002 l -37.19123307730127 -6.631189638142827 a58.77777777777778,58.77777777777778 0 0,0 0.1861695875750434,-0.9945253810703654 l 37.071577765816365 7.270393096675765" fill="#5bff2a" stroke="none" /><path d="M 80.803312248108 91.48605970444005 l -46.77288206214956 -20.744283101086523 a72.16666666666666,72.16666666666666 0 0,0 0.5134063234513391,-1.1312227791379623 l 46.408873421734874 21.546327889066557" fill="#3dffa9" stroke="none" /><line stroke="#e1ed5e" stroke-width="0.3" x1="26.266209847984243" x2="21.928928074336255" y1="57.711370442889674" y2="55.22380399835377" /><path d="M 25.398753493254645 57.213857153982495 a86.0,86.0 0 0,1 29.58750427330803,-30.492523968695096" fill="none" id="id83" stroke="none" /><text fill="#e1ed5e" style="font-size:6.75px; font-family:Arial;" text-anchor="middle"><textPath startOffset="21.46611528233685" xlink:href="#id83">November</textPath></text><path d="M 83.6137871275137 86.86637796730984 l -16.29951333347843 -13.06413196902513 a41.888888888888886,41.888888888888886 0 0,0 0.4557940131597884,-0.5587495664431376 l 16.072220828242248 13.342765705076351" fill="#ffca12" stroke="none" /><path d="M 84.5562425177563 85.77008943001954 l -23.28820572719289 -21.457801653145147 a52.66666666666667,52.66666666666667 0 0,0 0.6200438591852,-0.661419557670922 l 22.91539454603723 21.855490627694117" fill="#a4ff21" stroke="none" /><path d="M 85.31137513191541 84.99185889309783 l -31.16475434974561 -31.842669755914145 a65.55555555555556,65.55555555555556 0 0,0 0.8132533665008875,-0.7823490942340622 l 30.612017739632297 32.374401936910516" fill="#33ff56" stroke="none" /><path d="M 86.37877921826538 84.01681056812374 l -28.21538590502171 -33.10803525174368 a64.5,64.5 0 0,0 0.8512232793398753,-0.7128750165761477 l 27.641305088722724 33.58881142571364" fill="#32ff48" stroke="none" /><path d="M 86.93701828274178 83.55741782278169 l -30.10015099399978 -37.88753723904007 a69.38888888888889,69.38888888888889 0 0,0 0.9415987793806279,-0.7349327826989389 l 29.443519659459724 38.40004841096223" fill="#39ff87" stroke="none" /><line stroke="#e1ed5e" stroke-width="0.3" x1="56.76296977257108" x2="54.21961505331056" y1="26.818313649435495" y2="22.513508569990535" /><path d="M 56.25429882871898 25.957352633546506 a86.0,86.0 0 0,1 42.26535254187918,-11.944610805530505" fill="none" id="id84" stroke="none" /><text fill="#e1ed5e" style="font-size:6.75px; font-family:Arial;" text-anchor="middle"><textPath startOffset="22.20632615414155" xlink:href="#id84">December</textPath></text><path d="M 91.56875222667455 80.76684994638697 l -11.263968586056485 -25.695081420832214 a49.05555555555556,49.05555555555556 0 0,0 0.7762837086538567,-0.3323641714520101 l 10.820001119612321 25.885165120247013" fill="#d2ff1c" stroke="none" /><path d="M 93.94186890950719 79.89281104454417 l -12.965682677800741 -43.03363985440147 a65.94444444444444,65.94444444444444 0 0,0 1.0896841575722194,-0.31810868670239284 l 12.2230083025051 43.250446870022564" fill="#34ff5b" stroke="none" /></svg>