<?xml version="1.0" encoding="utf-8" ?>
<svg baseProfile="full" height="200mm" version="1.1" viewBox="0,0,200,200" width="200mm" xmlns="http://www.w3.org/2000/svg" xmlns:ev="http://www.w3.org/2001/xml-events" xmlns:xlink="http://www.w3.org/1999/xlink"><defs /><rect fill="#1a1a1a" height="200" width="200" x="0" y="0" /><text alignment-baseline="middle" fill="#e1ed5e" style="dominant-baseline: central; font-size:9.0px; font-family:Arial;" text-anchor="middle" x="100.0" y="100.0">2023</text><line stroke="#e1ed5e" stroke-width="0.3" x1="100.0" x2="100.0" y1="15.0" y2="10.0" /><path d="M 100.0 14.0 a86.0,86.0 0 0,1 42.46469731375804,11.215312516191453" fill="none" id="id121" stroke="none" /><text fill="#e1ed5e" style="font-size:6.75px; font-family:Arial;" text-anchor="middle"><textPath startOffset="22.20632615414155" xlink:href="#id121">January</textPath></text><path d="M 109.08828744355905 81.06846463323043 l 22.37252060139397 -46.60351772976121 a72.69543057996485,72.69543057996485 0 0,0 1.1234169514403383,0.551255819125521 l -23.17140881984474 46.21150675050086" fill="#3effb8" stroke="none" /><path d="M 109.73455568895987 81.39251694778311 l 21.111496872014897 -40.35436570551081 a66.54305799648506,66.54305799648506 0 0,0 1.0103611267301493,0.53969992287757 l -21.803003045273357 39.98498705613149" fill="#36ff71" stroke="none" /><path d="M 110.05341064243156 81.56283822128135 l 21.52030608520499 -39.466543139682464 a65.95254833040423,65.95254833040423 0 0,0 0.9920391086612852,0.5520686899120536 l -22.19646928293831 39.09025905221023" fill="#36ff6a" stroke="none" /><line stroke="#e1ed5e" stroke-width="0.3" x1="143.23703022742887" x2="145.7803849466894" y1="26.81831364943548" y2="22.513508569990506" /><path d="M 143.74570117128098 25.957352633546492 a86.0,86.0 0 0,1 28.547481713284135,27.462654790039103" fill="none" id="id122" stroke="none" /><text fill="#e1ed5e" style="font-size:6.75px; font-family:Arial;" text-anchor="middle"><textPath startOffset="19.985693538727396" xlink:href="#id122">February</textPath></text><path d="M 110.68208982089419 81.91981866633111 l 22.99746929805868 -38.924819215719474 a66.21089630931459,66.21089630931459 0 0,0 0.9762573870044962,0.5881841522517495 l -23.66408875128081 38.52318845400911" fill="#36ff6d" stroke="none" /><path d="M 110.99172775467656 82.1063720568725 l 23.490230140046915 -38.24016094700007 a65.87873462214412,65.87873462214412 0 0,0 0.9611420263892974,0.601867048749639 l -24.144991318808476 37.83014955692749" fill="#35ff69" stroke="none" /><path d="M 112.19680574252982 82.90503203632743 l 25.936968274975538 -36.35309531817894 a65.6572934973638,65.6572934973638 0 0,0 0.9143706189922846,0.664329141056477 l -26.55888421032161 35.90124694230578" fill="#35ff67" stroke="none" /><path d="M 112.48926042617603 83.11751280151076 l 26.91007606764818 -36.375974174600735 a66.24780316344464,66.24780316344464 0 0,0 0.9109194270715336,0.6860856271300598 l -27.5322416484781 35.907371957964834" fill="#36ff6e" stroke="none" /><path d="M 113.89432698308785 84.25364557470405 l 29.839837562976008 -33.81730247400992 a66.10017574692444,66.10017574692444 0 0,0 0.846677190185557,0.7601551411145738 l -30.417525740757554 33.29864832412605" fill="#36ff6c" stroke="none" /><path d="M 115.19652480421416 85.50635884689758 l 32.07561738112689 -30.59202640575746 a65.32513181019331,65.32513181019331 0 0,0 0.7690717752412664,0.8203921478485816 l -32.59745647833862 30.035364841030823" fill="#35ff63" stroke="none" /><path d="M 115.68641384162765 86.03803664274999 l 36.22486430210676 -32.24256564398335 a69.49560632688929,69.49560632688929 0 0,0 0.7876437976852582,0.9004130187519321 l -36.77449996336987 31.61423706902847" fill="#3aff94" stroke="none" /><path d="M 115.9244219780498 86.31012108654704 l 37.25027355498119 -32.02324926855166 a70.12302284710017,70.12302284710017 0 0,0 0.7789979514489934,0.9220878659133523 l -37.795982119917305 31.3773024530092" fill="#3bff9b" stroke="none" /><path d="M 116.38621287248628 86.86637796730983 l 35.738647055809274 -28.644683554601936 a66.80140597539543,66.80140597539543 0 0,0 0.7114219931896749,0.9034336853163454 l -36.226423129592916 28.025257475332552" fill="#37ff74" stroke="none" /><path d="M 116.60985879189232 87.15038557335679 l 36.81024944916734 -28.476913518448306 a67.53954305799648,67.53954305799648 0 0,0 0.703453478716823,0.925662320101421 l -37.294978868108274 27.83906642246585" fill="#38ff7d" stroke="none" /><path d="M 117.65298651832404 88.62581576622439 l 46.071502600546914 -29.684821770047066 a75.80667838312829,75.80667838312829 0 0,0 0.6973218230418401,1.1029956618541659 l -46.57565201983471 28.887378460478693" fill="#42ffda" stroke="none" /><line stroke="#e1ed5e" stroke-width="0.3" x1="172.23445277983987" x2="176.4835382374775" y1="55.19839476539836" y2="52.563006222186495" /><path d="M 173.08426987136738 54.67131705675599 a86.0,86.0 0 0,1 12.851231095245387,41.99856678651699" fill="none" id="id123" stroke="none" /><text fill="#e1ed5e" style="font-size:6.75px; font-family:Arial;" text-anchor="middle"><textPath startOffset="22.20632615414155" xlink:href="#id123">March</textPath></text><path d="M 117.84615892207809 88.93136811851018 l 41.55739995035758 -25.774933643188064 a69.90158172231986,69.90158172231986 0 0,0 0.6254001371632546,1.027993387602439 l -41.99491588580706 25.055772482378543" fill="#3bff99" stroke="none" /><path d="M 118.3937258080291 89.86733742301442 l 39.793807503838 -21.921454538258804 a66.4323374340949,66.4323374340949 0 0,0 0.5431378232104803,1.0063518980695507 l -40.16525342626694 21.233221656856795" fill="#36ff70" stroke="none" /><path d="M 118.73160827565052 90.50648371742162 l 40.7881593207926 -20.672173416721662 a66.72759226713532,66.72759226713532 0 0,0 0.5104342646401373,1.029004330393495 l -41.13795359838615 19.967009497829217" fill="#37ff73" stroke="none" /><path d="M 118.89224826269711 90.83032412892265 l 38.31573724982859 -18.597198515330845 a63.59050966608084,63.59050966608084 0 0,0 0.4694851177691636,0.9888553916543918 l -38.6301805614395 17.934900708035915" fill="#32ff4d" stroke="none" /><path d="M 119.196687751892 91.48605970444005 l 44.97220522543417 -19.945663293464683 a70.19683655536028,70.19683655536028 0 0,0 0.48037797869810406,1.1087786063203542 l -45.308873913974956 19.168585542557725" fill="#3bff9c" stroke="none" /><path d="M 119.97218684219823 93.5106431181261 l 43.52462510426326 -14.14200796752835 a66.76449912126537,66.76449912126537 0 0,0 0.34572729325714413,1.096049998127606 l -43.76160788128861 13.390707802974324" fill="#37ff74" stroke="none" /><path d="M 120.18372546131832 94.20196356495316 l 43.985623149445885 -12.635439682703142 a66.76449912126537,66.76449912126537 0 0,0 0.307794608164234,1.1073009703253356 l -44.196604528176486 11.876427408958854" fill="#37ff74" stroke="none" /><path d="M 120.45610955862082 95.25157060432595 l 47.23959219688537 -10.965617268744653 a69.49560632688929,69.49560632688929 0 0,0 0.26046163317251886,1.1675984301184852 l -47.42134821705993 10.150840669076205" fill="#3aff94" stroke="none" /><path d="M 120.53481517161879 95.60439243477599 l 44.93118609607275 -9.617805656773113 a66.94903339191563,66.94903339191563 0 0,0 0.23151837822529983,1.1289658343050455 l -45.09008377021304 8.842964166304656" fill="#37ff76" stroke="none" /><path d="M 120.6074358757038 95.95851677861258 l 60.33741330214855 -11.83323558318358 a82.48681898066783,82.48681898066783 0 0,0 0.2612643357846476,1.3956845287718316 l -60.532163361843054 10.792872976949186" fill="#4be0ff" stroke="none" /><path d="M 120.78858239683441 97.02765380044208 l 25.83045299571517 -3.6932315695737157 a47.09314586994728,47.09314586994728 0 0,0 0.10782985097047632,0.8034576371273959 l -25.890198845743484 3.2480555903816555" fill="#ccff1d" stroke="none" /><path d="M 120.83666639777658 97.38593545837742 l 24.38878703149244 -3.059695930967726 a45.57996485061511,45.57996485061511 0 0,0 0.09096382080943355,0.7793224660260226 l -24.437841205305464 2.6394297266168505" fill="#dfff1b" stroke="none" /><path d="M 120.96714384426684 98.82574320788733 l 23.65712890688808 -1.3249083664961918 a44.69420035149385,44.69420035149385 0 0,0 0.03640745242396445,0.7685037783471832 l -23.67642996754554 0.9174934815260087" fill="#eaff1a" stroke="none" /><line stroke="#e1ed5e" stroke-width="0.3" x1="184.98032266829074" x2="189.97916517819016" y1="98.17113171792111" y2="98.06355123074" /><path d="M 185.9800911702706 98.14961562048488 a86.0,86.0 0 0,1 -9.607161424134198,41.387399972396054" fill="none" id="id124" stroke="none" /><text fill="#e1ed5e" style="font-size:6.75px; font-family:Arial;" text-anchor="middle"><textPath startOffset="21.466115282336823" xlink:href="#id124">April</textPath></text><path d="M 120.99513854157772 99.54816195383933 l 16.272154827479383 -0.35019433806125533 a37.27592267135325,37.27592267135325 0 0,0 0.008284117418466245,0.6416140234779132 l -16.275771952015564 0.07004405652287936" fill="#ffb410" stroke="none" /><path d="M 120.99980553446 99.90962569577887 l 29.599022915003367 -0.12738170823435205 a50.59929701230229,50.59929701230229 0 0,0 -0.0037484506433943213,0.8710079180716138 l -29.59683016707047 -0.3821356880409465" fill="#a3ff22" stroke="none" /><path d="M 120.99824983174949 100.27111621757518 l 41.40603921128811 0.5346087805261122 a62.40949033391916,62.40949033391916 0 0,0 -0.023115100175136016,1.0740678760965128 l -41.39070204842797 -1.24726647241274" fill="#31ff3f" stroke="none" /><path d="M 120.9904718944345 100.63252640178507 l 37.25900986534068 1.1227621543109334 a58.27592267135325,58.27592267135325 0 0,0 -0.038844696358436126,1.0024090104831005 l -37.234163036131044 -1.7639484118080402" fill="#4eff2c" stroke="none" /><path d="M 120.95626037817324 101.35467743843564 l 37.640242717913964 2.4331816205293935 a58.71880492091388,58.71880492091388 0 0,0 -0.073883471291808,1.0080812650854807 l -37.59278268795782 -3.0807360221116444" fill="#49ff2c" stroke="none" /><path d="M 120.89721153311464 102.0752229133903 l 48.88258093247029 4.854343932728452 a70.12302284710017,70.12302284710017 0 0,0 -0.12961973136731356,1.2001177300859338 l -48.79177889960193 -5.695057984699178" fill="#3bff9b" stroke="none" /><path d="M 120.64145759157962 103.86396538481128 l 47.92155620118926 8.970647229060988 a69.75395430579965,69.75395430579965 0 0,0 -0.231085108393664,1.1782979891767735 l -47.760041159819934 -9.794208945305707" fill="#3aff97" stroke="none" /><path d="M 120.41448212921028 104.9243191809786 l 46.03124880804358 11.103517590853333 a68.35149384885764,68.35149384885764 0 0,0 -0.2857375148076402,1.1413793346854528 l -45.83329997894088 -11.894224764936181" fill="#39ff87" stroke="none" /><path d="M 120.32669344350535 105.2749913415812 l 45.22599982333528 11.736623969142018 a67.72407732864676,67.72407732864676 0 0,0 -0.3025393320085041,1.125861401797661 l -45.017272414985 -12.513376304115228" fill="#38ff7f" stroke="none" /><path d="M 119.67450827220406 107.3425965602758 l 45.158010199470134 16.85313024203899 a69.20035149384886,69.20035149384886 0 0,0 -0.4260953001092703,1.1124003729136296 l -44.86122061976735 -17.62795418178576" fill="#3aff90" stroke="none" /><path d="M 119.54520255179757 107.68017299344265 l 58.635607655392704 23.040518980327946 a84.0,84.0 0 0,0 -0.5403895429704395,1.341202528628746 l -58.23031549816488 -24.046420876799505" fill="#4dd2ff" stroke="none" /><path d="M 119.12269723197855 108.67885076344098 l 38.81672285225873 17.61699935285472 a63.62741652021089,63.62741652021089 0 0,0 -0.4612241837752737,0.9934358594223128 l -38.50772405164362 -18.28255527955586" fill="#32ff4e" stroke="none" /><path d="M 118.81262510543309 109.33194174019688 l 27.47502893253936 13.628899096842892 a51.66959578207381,51.66959578207381 0 0,0 -0.40209114639582305,0.7933639782359015 l -27.236359116357267 -14.099817286781487" fill="#96ff23" stroke="none" /><path d="M 118.64920377521936 109.65438752849418 l 13.208487032360987 6.83781752896864 a35.87346221441125,35.87346221441125 0 0,0 -0.2886062601149454,0.5459342800286071 l -13.088828264021148 -7.064166824083381" fill="#ffa10e" stroke="none" /><line stroke="#e1ed5e" stroke-width="0.3" x1="174.80103733775053" x2="179.2010983576182" y1="140.37084112569926" y2="142.7455964860345" /><path d="M 175.68104954172406 140.8457921977663 a86.0,86.0 0 0,1 -30.038265399797805,32.042727171017184" fill="none" id="id125" stroke="none" /><text fill="#e1ed5e" style="font-size:6.75px; font-family:Arial;" text-anchor="middle"><textPath startOffset="22.206326154141568" xlink:href="#id125">May</textPath></text><path d="M 118.12598468904814 110.60418214915192 l 41.66746568238131 24.37657337625786 a69.27416520210896,69.27416520210896 0 0,0 -0.6109952483557601,1.024063180625277 l -41.24168955832732 -25.090198650769242" fill="#3aff91" stroke="none" /><path d="M 117.94076556474637 110.91462005526583 l 38.34089793801685 23.325444617228904 a65.87873462214412,65.87873462214412 0 0,0 -0.5977251637832799,0.963723283854107 l -37.933708134565606 -23.981964232448284" fill="#35ff69" stroke="none" /><path d="M 117.35343817320211 111.8261652097733 l 36.68925504808809 25.003298325759694 a65.39894551845342,65.39894551845342 0 0,0 -0.6419656810346126,0.9247994435933238 l -36.25342845989134 -25.631139031540037" fill="#35ff63" stroke="none" /><path d="M 116.0416608686014 113.55231037782055 l 37.01704871787986 31.272730274302965 a69.45869947275924,69.45869947275924 0 0,0 -0.7794506098203692,0.9066771518066861 l -36.473255598488706 -31.90528452527118" fill="#3aff93" stroke="none" /><path d="M 115.80600337817218 113.82643327865902 l 36.33436277442743 31.78378686904394 a69.27416520210896,69.27416520210896 0 0,0 -0.792830121634583,0.8907530463908498 l -35.781873803144514 -32.404514085175656" fill="#3aff91" stroke="none" /><path d="M 115.32070863581623 114.36230785411682 l 34.4110116635732 32.25839971451898 a68.16695957820738,68.16695957820738 0 0,0 -0.8098671346275089,0.8491424528508073 l -33.85063797756673 -32.845949283952294" fill="#38ff84" stroke="none" /><path d="M 115.07121518719521 114.62390073753431 l 33.50630441441464 32.511835558841675 a67.6871704745167,67.6871704745167 0 0,0 -0.8185615002603652,0.829198478100986 l -32.94170228909874 -33.08377453092333" fill="#38ff7f" stroke="none" /><path d="M 114.0293411484842 115.62618273729858 l 30.524295855577225 33.99861903124013 a66.69068541300527,66.69068541300527 0 0,0 -0.8608104890998172,0.7595651719112022 l -29.93454301357082 -34.51900734492362" fill="#36ff73" stroke="none" /><path d="M 113.75828350139079 115.86535959552629 l 26.91207300008427 31.03364715258481 a62.07732864674868,62.07732864674868 0 0,0 -0.8133150586949148,0.693124737513187 l -26.373892464812307 -31.492296280320943" fill="#30ff3a" stroke="none" /><path d="M 113.20401910651253 116.32954008644616 l 36.5953218470479 45.25779387754937 a79.20210896309314,79.20210896309314 0 0,0 -1.0675030239517829,0.8480889640509659 l -35.81086133037877 -45.881016755605465" fill="#47fffd" stroke="none" /><path d="M 112.04921762599082 117.19931262002967 l 22.821514649438154 32.57592128401754 a60.77451669595782,60.77451669595782 0 0,0 -0.8619653042029843,0.592867596050087 l -22.257392460612287 -32.96392966943272" fill="#34ff2f" stroke="none" /><path d="M 111.7513745106137 117.40417183066458 l 19.741896124245418 29.238396929582205 a56.2792618629174,56.2792618629174 0 0,0 -0.8075412159779064,0.5351942840735475 l -19.235680209527548 -29.57388923474707" fill="#63ff29" stroke="none" /><path d="M 111.1453310114006 117.79835938074945 l 2.910713863434322 4.648218284673758 a26.484358523725835,26.484358523725835 0 0,0 -0.3884634905598862,0.23862600387338462 l -2.830271172942127 -4.697632755375522" fill="#ff1a02" stroke="none" /><line stroke="#e1ed5e" stroke-width="0.3" x1="143.8653032363475" x2="146.44561519142675" y1="172.8068346515853" y2="177.08958963109032" /><path d="M 144.38136562736335 173.6633856474863 a86.0,86.0 0 0,1 -40.68145358897372,12.25698825130547" fill="none" id="id126" stroke="none" /><text fill="#e1ed5e" style="font-size:6.75px; font-family:Arial;" text-anchor="middle"><textPath startOffset="21.466115282336833" xlink:href="#id126">June</textPath></text><path d="M 110.8373102113329 117.98757091392108 l 19.46906590162478 32.3144024397366 a58.72618629173989,58.72618629173989 0 0,0 -0.8703559993315262,0.5142216656699222 l -18.909942031264872 -32.644742677700265" fill="#49ff2c" stroke="none" /><path d="M 110.5260780823613 118.17145234162733 l 14.817906052673806 25.58055066018188 a50.562390158172235,50.562390158172235 0 0,0 -0.7568737949349014,0.42977269395669426 l -14.375383490817706 -25.831826519933202" fill="#a3ff22" stroke="none" /><path d="M 110.21172684928248 118.3499491758327 l 14.40948240296821 25.89310051542368 a50.632513181019334,50.632513181019334 0 0,0 -0.7652192695912113,0.4172585586129541 l -13.961640321508348 -26.137299725796403" fill="#a2ff22" stroke="none" /><path d="M 109.89434966115114 118.52300852407294 l 14.032935283917345 26.270769558746665 a50.78383128295255,50.78383128295255 0 0,0 -0.7745963411661547,0.40523219601418226 l -13.578648040224694 -26.508431173705564" fill="#a0ff22" stroke="none" /><path d="M 109.57404056367764 118.69057910512821 l 13.477691549219308 26.311342466094374 a50.562390158172235,50.562390158172235 0 0,0 -0.7780494665634765,0.3901301545769001 l -13.022788174973071 -26.539440461580575" fill="#a3ff22" stroke="none" /><path d="M 109.2508944713604 118.85261126421891 l 13.022788174973071 26.539440461580575 a50.562390158172235,50.562390158172235 0 0,0 -0.7846496394370496,0.3766795100098467 l -12.564025867535788 -26.759674248089983" fill="#a3ff22" stroke="none" /><path d="M 108.92500713936063 119.00905698771935 l 12.609513601637978 26.85655696384461 a50.669420035149386,50.669420035149386 0 0,0 -0.7926917198785762,0.3638858895225823 l -12.145353885991982 -27.069629923701267" fill="#a2ff22" stroke="none" /><path d="M 108.59647513512805 119.15986991738527 l 13.31018382082216 29.665809133948024 a53.51493848857645,53.51493848857645 0 0,0 -0.8436995109776045,0.36985307156949193 l -12.797563635186803 -29.89052675881197" fill="#81ff25" stroke="none" /><path d="M 106.2309692047433 120.05430185196036 l 8.803297264838566 28.333309769404096 a50.669420035149386,50.669420035149386 0 0,0 -0.8351406811792381,0.25162103647583367 l -8.314281609219082 -28.480646174985655" fill="#a2ff22" stroke="none" /><path d="M 105.18746579009965 120.34920634021253 l 10.949290709858847 42.95148825060675 a65.32513181019331,65.32513181019331 0 0,0 -1.0920082355088159,0.2683890558596959 l -10.20832918960682 -43.13359856478048" fill="#35ff63" stroke="none" /><path d="M 104.83641907484287 120.43548508189849 l 10.20832918960682 43.13359856478048 a65.32513181019331,65.32513181019331 0 0,0 -1.096466319111835,0.249552164442001 l -9.464342721102122 -43.30292746280016" fill="#35ff63" stroke="none" /><path d="M 104.48393922423573 120.51570834832081 l 9.614070041419312 43.987986265292434 a66.02636203866433,66.02636203866433 0 0,0 -1.1124138409540294,0.2331171361690999 l -8.855464739035906 -44.14695938218808" fill="#36ff6b" stroke="none" /><path d="M 103.7750983002368 120.6578951692458 l 8.233562373627208 45.05526872589462 a66.80140597539543,66.80140597539543 0 0,0 -1.1329233069166775,0.19697323879961126 l -7.45679009523848 -45.19032054321524" fill="#37ff74" stroke="none" /><path d="M 102.70371172650421 120.8252237178851 l 5.7495451477506 44.28562512942172 a65.6572934973638,65.6572934973638 0 0,0 -1.1220286720414665,0.13586204639297136 l -4.986389052657754 -44.37803270454004" fill="#35ff67" stroke="none" /><path d="M 102.34483914955558 120.86867818915974 l 4.953421191152577 44.084624223848856 a65.36203866432336,65.36203866432336 0 0,0 -1.1191456439569025,0.11600402190659377 l -4.193842950590072 -44.16335761421121" fill="#35ff63" stroke="none" /><path d="M 101.26447882468166 120.96189622390904 l 2.7778533055396806 46.04985989435199 a67.1335676625659,67.1335676625659 0 0,0 -1.1540961398170133,0.0596535878726797 l -1.9847690973091876 -46.09085328898687" fill="#37ff78" stroke="none" /><line stroke="#e1ed5e" stroke-width="0.3" x1="102.19456741930631" x2="102.32365962044197" y1="184.97166512339345" y2="189.96999836594603" /><path d="M 102.22038585953345 185.97133177190398 a86.0,86.0 0 0,1 -42.740103519485714,-10.115201625700543" fill="none" id="id127" stroke="none" /><text fill="#e1ed5e" style="font-size:6.75px; font-family:Arial;" text-anchor="middle"><textPath startOffset="22.20632615414155" xlink:href="#id127">July</textPath></text><path d="M 100.54218724476979 120.99299961872073 l 1.1872852495310442 45.97061076436913 a66.98594024604569,66.98594024604569 0 0,0 -1.1529247150172366,0.01984864453132727 l -0.39580084462113957 -45.984236886179616" fill="#37ff76" stroke="none" /><path d="M 100.18074693466247 120.99922214144158 l 0.4231193619866437 49.15810877398977 a70.15992970123023,70.15992970123023 0 0,0 -1.2077325932981644,0.0 l 0.4231193619866098 -49.15810877398977" fill="#3bff9b" stroke="none" /><path d="M 99.45781275523022 120.99299961872073 l -1.1367827469426146 44.01519955208055 a65.0298769771529,65.0298769771529 0 0,0 -1.1187605278546202,-0.038532374645382686 l 1.894263626471878 -43.98911037900908" fill="#34ff5f" stroke="none" /><path d="M 99.09653310690486 120.98055641714683 l -1.000323625043825 23.22979005764939 a44.251318101933215,44.251318101933215 0 0,0 -0.7607263725346692,-0.03932086413377844 l 1.400038065991983 -23.209129386753407" fill="#efff19" stroke="none" /><path d="M 98.73552117531835 120.96189622390904 l -2.744519065873173 45.497261575619774 a66.57996485061511,66.57996485061511 0 0,0 -1.1433911767219862,-0.07885494989915917 l 3.5272730033740896 -45.443278281204336" fill="#36ff72" stroke="none" /><path d="M 96.22490169976321 120.6578951692458 l -7.968177607353938 43.60304410942743 a65.32513181019331,65.32513181019331 0 0,0 -1.104406541666256,-0.21166214222005517 l 8.717551763591889 -43.45942476885891" fill="#35ff63" stroke="none" /><path d="M 94.46302465271185 120.25689768951611 l -11.706469846726968 42.82785223284338 a65.39894551845342,65.39894551845342 0 0,0 -1.0833454659378279,-0.30616424991940266 l 12.44194648076941 -42.61999918958545" fill="#35ff63" stroke="none" /><path d="M 94.11515582081647 120.15858648285463 l -10.404487248257713 35.64066432645301 a58.12829525483304,58.12829525483304 0 0,0 -0.9580789371820964,-0.2886613245316032 l 11.016441159880056 -35.45628763281568" fill="#4fff2b" stroke="none" /><path d="M 93.42475214034765 119.94407469862007 l -13.924734043727739 42.23657295577712 a65.47275922671353,65.47275922671353 0 0,0 -1.0673003405436932,-0.36208622362518406 l 14.649704117208659 -41.990623745253814" fill="#35ff64" stroke="none" /><path d="M 93.08242187328487 119.8279376855182 l -14.613231824800666 41.88608277327392 a65.36203866432336,65.36203866432336 0 0,0 -1.0591153921348928,-0.3797610980988308 l 15.332066777565286 -41.62833413413513" fill="#35ff63" stroke="none" /><path d="M 92.40401165467489 119.57807347666478 l -16.486899132647657 42.49370956710194 a66.57996485061511,66.57996485061511 0 0,0 -1.0648955691045483,-0.42374392388656573 l 17.215915777794066 -42.20361879880931" fill="#36ff72" stroke="none" /><path d="M 92.06813273071674 119.44442032107085 l -16.769835368976725 41.11008373681586 a65.39894551845342,65.39894551845342 0 0,0 -1.0386864213892737,-0.43417100838068096 l 17.474993249863463 -40.815327685415205" fill="#35ff63" stroke="none" /><path d="M 91.7346041902142 119.30500536409082 l -15.25248787394567 35.62435084761927 a59.75219683655536,59.75219683655536 0 0,0 -0.9420341436364036,-0.4129600847386325 l 15.863442692239817 -35.356526209586185" fill="#3eff2d" stroke="none" /><line stroke="#e1ed5e" stroke-width="0.3" x1="58.666819895761336" x2="56.23545636021788" y1="174.27360380694188" y2="178.64263932499728" /><path d="M 58.180547188652646 175.14741091055294 a86.0,86.0 0 0,1 -31.652253787137756,-30.449443065178592" fill="none" id="id128" stroke="none" /><text fill="#e1ed5e" style="font-size:6.75px; font-family:Arial;" text-anchor="middle"><textPath startOffset="22.20632615414155" xlink:href="#id128">August</textPath></text><path d="M 89.7882731507175 118.34994917583269 l -21.55410183829222 38.7316150442444 a65.32513181019331,65.32513181019331 0 0,0 -0.9778588445509018,-0.5552537724841816 l 22.21760944976433 -38.35485810596558" fill="#35ff63" stroke="none" /><path d="M 89.4739219176387 118.17145234162733 l -23.050076081937014 39.79196769361625 a66.98594024604569,66.98594024604569 0 0,0 -0.9927703235210658,-0.5865462061280221 l 23.73161427648646 -39.38930291519448" fill="#37ff76" stroke="none" /><path d="M 89.1626897886671 117.98757091392108 l -22.56979367386554 37.460934152893635 a64.73462214411248,64.73462214411248 0 0,0 -0.9495052430909148,-0.5832636716749117 l 23.211278116888764 -37.066882014390345" fill="#34ff5b" stroke="none" /><path d="M 87.36589467227662 116.77436683061367 l -24.6687012637973 32.752761948702606 a62.00351493848858,62.00351493848858 0 0,0 -0.8470012937274909,-0.6494444740422212 l 25.228831286018277 -32.32327813283302" fill="#30ff39" stroke="none" /><path d="M 87.07902340077011 116.55440617244103 l -25.206123067038963 32.2941842731275 a61.966608084358526,61.966608084358526 0 0,0 -0.8351992438094126,-0.6635327915384633 l 25.758279803565735 -31.855517567583906" fill="#30ff39" stroke="none" /><path d="M 86.79598089348748 116.32954008644616 l -28.33410778392231 35.041069324342295 a66.06326889279438,66.06326889279438 0 0,0 -0.878106273998255,-0.7226216823297831 l 28.933084186465255 -34.54815252315534" fill="#36ff6b" stroke="none" /><path d="M 85.97065885151581 115.62618273729859 l -19.74956460445666 21.99749098871031 a50.562390158172235,50.562390158172235 0 0,0 -0.6426249863451775,-0.5870226885349521 l 20.12528914026869 -21.65427553358878" fill="#a3ff22" stroke="none" /><path d="M 85.70375840098266 115.38237550388516 l -20.55241762389487 22.113854415075682 a51.18980667838313,51.18980667838313 0 0,0 -0.640272755184429,-0.6054178538372534 l 20.93002621347011 -21.7568019244925" fill="#9cff22" stroke="none" /><path d="M 85.44109423537348 115.13401014063109 l -26.380020814288123 27.422081643217318 a59.05096660808436,59.05096660808436 0 0,0 -0.7264676207359038,-0.7110014680560431 l 26.84813838739982 -26.963930072238707" fill="#45ff2d" stroke="none" /><path d="M 84.9287848128048 114.62390073753433 l -27.361274672008143 26.549190618405902 a59.12478031634446,59.12478031634446 0 0,0 -0.7024402542898244,-0.7365057983037518 l 27.814221477676924 -26.07427770351965" fill="#45ff2d" stroke="none" /><path d="M 84.19399662182784 113.82643327865904 l -28.750814580682242 25.15001483903708 a59.19859402460457,59.19859402460457 0 0,0 -0.6643139097512603,-0.7727471580754048 l 29.17947100000428 -24.651390581800147" fill="#44ff2d" stroke="none" /><path d="M 83.72743513129214 113.27417163493432 l -29.5422838477596 24.098803688729625 a59.12478031634446,59.12478031634446 0 0,0 -0.6365263706293722,-0.7941645177638454 l 29.95272813044383 -23.58671133738752" fill="#45ff2d" stroke="none" /><path d="M 83.06392112726016 112.41649034213515 l -30.419459767908812 22.301675096066987 a58.71880492091388,58.71880492091388 0 0,0 -0.5905999127072206,-0.8202916234222064 l 30.798839472991638 -21.77474986719364" fill="#49ff2c" stroke="none" /><path d="M 82.85270091963577 112.12312394758628 l -34.80690762358644 24.608450192376374 a63.62741652021089,63.62741652021089 0 0,0 -0.6245760914806348,-0.8997484428639619 l 35.22534462222921 -24.0056604873254" fill="#32ff4e" stroke="none" /><path d="M 82.6465618267979 111.8261652097733 l -24.64249216862442 16.793570280310757 a50.8207381370826,50.8207381370826 0 0,0 -0.4864195498232412,-0.7271312287145544 l 24.92791482385839 -16.36690213739038" fill="#a0ff22" stroke="none" /><line stroke="#e1ed5e" stroke-width="0.3" x1="26.63291911575756" x2="22.317208475507996" y1="142.92168965132927" y2="145.44649492493687" /><path d="M 25.769776987707644 143.4266507060508 a86.0,86.0 0 0,1 -11.730757126820373,-40.83630448921669" fill="none" id="id129" stroke="none" /><text fill="#e1ed5e" style="font-size:6.75px; font-family:Arial;" text-anchor="middle"><textPath startOffset="21.46611528233685" xlink:href="#id129">September</textPath></text><path d="M 81.51974371655577 109.97397251340807 l -32.80326686516464 17.704239435047715 a58.27592267135325,58.27592267135325 0 0,0 -0.4688367126764585,-0.886862374655548 l 33.10315608606599 -17.136962045306042" fill="#4eff2c" stroke="none" /><path d="M 81.18737489456691 109.33194174019688 l -33.095672637150294 16.41700119848344 a57.943760984182774,57.943760984182774 0 0,0 -0.43553495099277895,-0.8973310002363847 l 33.37336084475779 -15.84488124228177" fill="#51ff2b" stroke="none" /><path d="M 80.87730276802145 108.67885076344099 l -35.825650701738354 16.25949896982091 a60.342706502636204,60.342706502636204 0 0,0 -0.42113150520976694,-0.9495403687775787 l 36.100223291679406 -15.640410264550637" fill="#38ff2e" stroke="none" /><path d="M 80.73074385275274 108.34839909993369 l -37.62415391843885 16.3006527241236 a62.00351493848858,62.00351493848858 0 0,0 -0.4158635353197275,-0.9829785533934151 l 37.89916843495089 -15.650599645064027" fill="#30ff39" stroke="none" /><path d="M 80.58989483394504 108.01547362559985 l -38.137957074955075 15.749208283691791 a62.26186291739894,62.26186291739894 0 0,0 -0.40054356721930895,-0.9941162854994505 l 38.40340325643177 -15.090392630349536" fill="#31ff3d" stroke="none" /><path d="M 80.32549172779594 107.34259656027581 l -38.58831499434047 14.401296592737793 a62.18804920913884,62.18804920913884 0 0,0 -0.36565311108294707,-1.0061203199379485 l 38.83049236642864 -13.734928475793728" fill="#31ff3c" stroke="none" /><path d="M 80.20201598880116 107.00284435728193 l -38.83049236642864 13.734928475793728 a62.18804920913884,62.18804920913884 0 0,0 -0.3482802282261161,-1.0122653695861772 l 39.06116342559798 -13.064490403118254" fill="#31ff3c" stroke="none" /><path d="M 79.67330655649465 105.27499134158121 l -39.54595719149459 10.262592996714236 a61.85588752196836,61.85588752196836 0 0,0 -0.258583193746007,-1.0329113201581217 l 39.71675169953565 -9.580353837158722" fill="#30ff38" stroke="none" /><path d="M 79.58551787078972 104.9243191809786 l -39.501484752654704 9.528427800100951 a61.63444639718805,61.63444639718805 0 0,0 -0.23990308417569928,-1.0334962077818648 l 39.65964840276096 -8.847062934970513" fill="#30ff35" stroke="none" /><path d="M 79.50377843672027 104.57218783832718 l -40.74029277340839 9.088127320119574 a62.74165202108963,62.74165202108963 0 0,0 -0.22606701962820863,-1.0561098541169096 l 40.89069383176104 -8.3855036465865" fill="#31ff43" stroke="none" /><path d="M 79.4281124754447 104.21870165774334 l -40.09529572009107 8.222390401471644 a61.929701230228474,61.929701230228474 0 0,0 -0.2051644507325689,-1.046129114200302 l 40.230890103799304 -7.530997560203387" fill="#30ff39" stroke="none" /><path d="M 79.1416061653843 102.43462659150553 l -38.16096306122134 4.454211391489032 a59.42003514938489,59.42003514938489 0 0,0 -0.10983566710598676,-1.0169418660202123 l 38.231981029828376 -3.7966732035840374" fill="#42ff2d" stroke="none" /><path d="M 79.10278846688536 102.07522291339032 l -37.534183105172524 3.7273775351228493 a58.71880492091388,58.71880492091388 0 0,0 -0.0912249865082129,-1.0066601244626208 l 37.592782687957815 -3.080736022111662" fill="#49ff2c" stroke="none" /><path d="M 79.07016306316243 101.71520430193888 l -36.82032824916416 3.017433227136765 a57.943760984182774,57.943760984182774 0 0,0 -0.07290826519682514,-0.994775352724228 l 36.86681307302532 -2.3831847379157765" fill="#51ff2b" stroke="none" /><line stroke="#e1ed5e" stroke-width="0.3" x1="15.007084014347285" x2="10.007500721073583" y1="101.09737516637583" y2="101.16192664675087" /><path d="M 14.007167355692545 101.11028546245083 a86.0,86.0 0 0,1 10.666146001902534,-42.60595125391555" fill="none" id="id130" stroke="none" /><text fill="#e1ed5e" style="font-size:6.75px; font-family:Arial;" text-anchor="middle"><textPath startOffset="22.20632615414155" xlink:href="#id130">October</textPath></text><path d="M 79.05617556472873 98.46500227214037 l -37.6179061034222 -2.757060945294455 a58.71880492091388,58.71880492091388 0 0,0 0.08255728689486844,-1.007408010056985 l 37.56487433270784 3.4041828725592183" fill="#49ff2c" stroke="none" /><path d="M 79.08570108090925 98.10471618934814 l -36.792993353268635 -3.33423390942444 a57.943760984182774,57.943760984182774 0 0,0 0.09856750910175918,-0.9925613651916422 l 36.73014871848464 3.967070805320512" fill="#51ff2b" stroke="none" /><path d="M 79.12142395522702 97.74499172005258 l -37.50071127901229 -4.050296066970593 a58.71880492091388,58.71880492091388 0 0,0 0.11718497077555368,-1.003969265949288 l 37.425435955233155 4.695209071244743" fill="#49ff2c" stroke="none" /><path d="M 79.16333360222342 97.38593545837743 l -44.38319802127454 -5.568095297797092 a65.7311072056239,65.7311072056239 0 0,0 0.15050545813356395,-1.1214404794074544 l 44.28077656408314 6.3312541192692064" fill="#35ff67" stroke="none" /><path d="M 79.26566170972629 96.67025291283419 l -44.49319341375081 -7.145204206378657 a66.06326889279438,66.06326889279438 0 0,0 0.18997323001546712,-1.121232757319276 l 44.36360832221512 7.910022752013761" fill="#36ff6b" stroke="none" /><path d="M 79.3925641242962 95.95851677861259 l -44.22087733608848 -8.67249738719513 a66.06326889279438,66.06326889279438 0 0,0 0.22845529053103644,-1.114029130874358 l 44.06504274964245 9.432402174232891" fill="#36ff6b" stroke="none" /><path d="M 79.46518482838121 95.60439243477599 l -36.19757401956705 -7.748320541159368 a58.017574692442885,58.017574692442885 0 0,0 0.21744327527732324,-0.9747555667266505 l 36.05883635728769 8.370254277435977" fill="#50ff2b" stroke="none" /><path d="M 79.54389044137918 95.25157060432595 l -43.93210172343526 -10.197857155560085 a66.10017574692444,66.10017574692444 0 0,0 0.2668155619207043,-1.1061227593989813 l 43.75005336125374 10.952565146618463" fill="#36ff6c" stroke="none" /><path d="M 79.62865764111835 94.90015583598534 l -43.392033284647724 -10.862936953929276 a65.7311072056239,65.7311072056239 0 0,0 0.28422026878555817,-1.0952166363751732 l 43.19861668399186 11.608250015853313" fill="#35ff67" stroke="none" /><path d="M 79.81627453868168 94.20196356495316 l -42.99239940091002 -12.350123302771136 a65.7311072056239,65.7311072056239 0 0,0 0.32175096176458684,-1.0847842920991453 l 42.77344254203372 13.08833698161682" fill="#35ff67" stroke="none" /><path d="M 80.14247586403 93.16781622104843 l -35.70166465922198 -12.283521978677426 a58.755711775043935,58.755711775043935 0 0,0 0.3372771447289687,-0.9535279063775662 l 35.4849344336832 12.896247511481603" fill="#48ff2c" stroke="none" /><path d="M 80.38941819471856 92.48833698450439 l -41.6337132175395 -15.947432201614596 a65.58347978910369,65.58347978910369 0 0,0 0.41288376425348844,-1.0507441446401202 l 41.35303590340432 16.66172535115048" fill="#35ff66" stroke="none" /><path d="M 80.65960295795067 91.81776055985345 l -27.46404360276952 -11.619067605691399 a50.8207381370826,50.8207381370826 0 0,0 0.34778153347386964,-0.8027277291814636 l 27.259971359452972 12.090094479459461" fill="#a0ff22" stroke="none" /><path d="M 81.26839172434947 90.50648371742162 l -26.668674629357625 -13.516164394581272 a50.89824253075571,50.89824253075571 0 0,0 0.4028003703495373,-0.7780821067324627 l 26.432064825847974 13.97321922357407" fill="#9fff22" stroke="none" /><line stroke="#e1ed5e" stroke-width="0.3" x1="26.266209847984243" x2="21.928928074336255" y1="57.711370442889674" y2="55.22380399835377" /><path d="M 25.398753493254645 57.213857153982495 a86.0,86.0 0 0,1 29.58750427330803,-30.492523968695096" fill="none" id="id131" stroke="none" /><text fill="#e1ed5e" style="font-size:6.75px; font-family:Arial;" text-anchor="middle"><textPath startOffset="21.46611528233685" xlink:href="#id131">November</textPath></text><path d="M 82.34701348167596 88.62581576622439 l -37.60179202145649 -24.227612111311128 a65.7311072056239,65.7311072056239 0 0,0 0.6210129919640492,-0.9458453920136645 l 37.179182394134514 24.871275567302458" fill="#35ff67" stroke="none" /><path d="M 82.54541684631803 88.32363383020206 l -21.4731251451272 -14.364598099927163 a46.83479789103691,46.83479789103691 0 0,0 0.45401995266497097,-0.6662182574162432 l 21.222680726793484 14.732094380613821" fill="#cfff1d" stroke="none" /><path d="M 82.7489923806493 88.02491185347247 l -37.7763716936924 -26.2231279974926 a66.98594024604569,66.98594024604569 0 0,0 0.6656723990438681,-0.9415464005233884 l 37.31938667484465 26.869500898347773" fill="#37ff76" stroke="none" /><path d="M 82.95767976084542 87.72973835380427 l -25.398747913537942 -18.286787128249532 a52.29701230228471,52.29701230228471 0 0,0 0.5322774658491767,-0.72602586523283 l 25.08020783517513 18.721275437153867" fill="#8fff24" stroke="none" /><path d="M 83.17141714833178 87.43820079747577 l -38.56673468993911 -28.788376379774338 a69.12653778558875,69.12653778558875 0 0,0 0.7199827134626434,-0.947412855491813 l 38.06547603625236 29.447974011147174" fill="#3aff90" stroke="none" /><path d="M 83.39014120810768 87.1503855733568 l -20.84259960880689 -16.124120739232424 a47.35149384885764,47.35149384885764 0 0,0 0.5042842084322234,-0.6403897338457641 l 20.561961319780693 16.480502867031237" fill="#c9ff1d" stroke="none" /><path d="M 84.07557802195018 86.31012108654704 l -20.990011394617508 -18.044655861317615 a48.68014059753955,48.68014059753955 0 0,0 0.5517271211613786,-0.6307194751640036 l 20.676292409878286 18.403290892684563" fill="#b9ff1f" stroke="none" /><path d="M 84.31358615837235 86.03803664274999 l -35.921612013428536 -31.97265071089064 a69.0896309314587,69.0896309314587 0 0,0 0.7983351577623266,-0.881541620793306 l 35.36593321505016 32.58624511895351" fill="#3aff8f" stroke="none" /><path d="M 84.5562425177563 85.77008943001954 l -21.76782689061415 -20.056921400921496 a50.59929701230229,50.59929701230229 0 0,0 0.5957047479411278,-0.6354562907912008 l 21.419354820702562 20.42864710859075" fill="#a3ff22" stroke="none" /><path d="M 84.80347519578584 85.50635884689758 l -33.437696054263846 -31.891104962538176 a67.20738137082601,67.20738137082601 0 0,0 0.8056428397128821,-0.8302857643290419 l 32.88378895084785 32.46195492241734" fill="#37ff79" stroke="none" /><path d="M 85.83668400450813 84.49514656593479 l -20.236864506739703 -22.15368337767139 a51.00527240773286,51.00527240773286 0 0,0 0.653326564397834,-0.5865630402124019 l 19.852526954745898 22.49874542665307" fill="#9eff22" stroke="none" /><path d="M 86.10567301691215 84.25364557470407 l -31.304968703547658 -35.47772649073707 a68.31458699472759,68.31458699472759 0 0,0 0.8884351119592658,-0.7704421743061006 l 30.689639792941616 36.01133365846285" fill="#39ff86" stroke="none" /><line stroke="#e1ed5e" stroke-width="0.3" x1="56.76296977257108" x2="54.21961505331056" y1="26.818313649435495" y2="22.513508569990535" /><path d="M 56.25429882871898 25.957352633546506 a86.0,86.0 0 0,1 42.26535254187918,-11.944610805530505" fill="none" id="id132" stroke="none" /><text fill="#e1ed5e" style="font-size:6.75px; font-family:Arial;" text-anchor="middle"><textPath startOffset="22.20632615414155" xlink:href="#id132">December</textPath></text><path d="M 89.63071344664047 81.73862282372117 l -1.8788636971025776 -3.3088716816772346 a24.805096660808434,24.805096660808434 0 0,0 0.37311107158994405,-0.20763590738101922 l 1.821628536440588 3.3407229866184385" fill="#ff0000" stroke="none" /><path d="M 90.91171255644093 81.06846463323043 l -20.90785283588544 -43.55251282091626 a69.31107205623901,69.31107205623901 0 0,0 1.0800044273802025,-0.5070765599333317 l 20.15507019720563 43.9059543634896" fill="#3aff92" stroke="none" /><path d="M 91.56875222667455 80.76684994638697 l -10.520537643341068 -23.999185479903772 a47.203866432337435,47.203866432337435 0 0,0 0.7469815005029802,-0.31981849514164584 l 10.10587238504778 24.176723503008205" fill="#cbff1d" stroke="none" /><path d="M 92.57280143429618 80.3572730644239 l -10.46856458645775 -27.68623374750798 a50.59929701230229,50.59929701230229 0 0,0 0.8173417071455341,-0.3010338485721125 l 9.990440553539647 27.862330863886413" fill="#a3ff22" stroke="none" /><path d="M 92.91201910852362 80.23233633223022 l -9.990440553539647 -27.862330863886413 a50.59929701230229,50.59929701230229 0 0,0 0.822402412002172,-0.2869200532529005 l 9.50935613747419 28.030171770311526" fill="#a3ff22" stroke="none" /><path d="M 93.25333710446033 80.11325718540243 l -14.370747679075707 -42.35981070525881 a65.7311072056239,65.7311072056239 0 0,0 1.0746008674626872,-0.3542790107105526 l 13.639463989370611 42.60090344022859" fill="#35ff67" stroke="none" /><path d="M 93.94186890950719 79.89281104454417 l -10.881212608934355 -36.115197034228196 a58.71880492091388,58.71880492091388 0 0,0 0.9702857005308202,-0.2832530029707384 l 10.257936690680113 36.29714836611763" fill="#49ff2c" stroke="none" /><path d="M 94.98787191387505 79.60689891045804 l -7.822090932300449 -31.82614018895125 a53.77328646748682,53.77328646748682 0 0,0 0.9007699263542847,-0.21318313885896484 l 7.27309731898363 31.956069239951084" fill="#7eff26" stroke="none" /><path d="M 95.33964822691252 79.52364482259891 l -8.370614256758186 -36.778268877511266 a58.71880492091388,58.71880492091388 0 0,0 0.9874749136586084,-0.21582376894459346 l 7.7362966189460565 36.91690614455173" fill="#49ff2c" stroke="none" /><path d="M 95.692805502759 79.44645832069477 l -7.9255406653977705 -37.81996157861611 a59.6414762741652,59.6414762741652 0 0,0 1.0066163133587127,-0.2019177627051451 l 7.273357942571921 37.95078329739846" fill="#3fff2d" stroke="none" /><path d="M 96.04723909329186 79.375362276772 l -6.682875206068948 -34.86977414717987 a56.50439367311072,56.50439367311072 0 0,0 0.9568208604419515,-0.1748528964007432 l 6.0816592245241035 34.97964252493135" fill="#60ff29" stroke="none" /><path d="M 97.47563105711357 79.15227682838746 l -5.337110436366204 -44.07699644191543 a65.39894551845342,65.39894551845342 0 0,0 1.1187370850277323,-0.12570314666098323 l 4.577606647828754 44.16233554204701" fill="#35ff63" stroke="none" /><path d="M 97.83486435360386 79.11191278185805 l -3.888872813034902 -37.51779461676813 a58.71880492091388,58.71880492091388 0 0,0 1.00625821230129,-0.09555634213769376 l 3.242489473643376 37.579176503421" fill="#49ff2c" stroke="none" /><path d="M 98.55514903715128 79.0497635885617 l -2.0365034660890498 -29.52915571524344 a50.59929701230229,50.59929701230229 0 0,0 0.8694355554321211,-0.05244672702917383 l 1.5279058618173058 29.55983571165292" fill="#a3ff22" stroke="none" /><path d="M 98.91598698831166 79.02799685794201 l -2.326150944238068 -45.003191276718475 a66.06326889279438,66.06326889279438 0 0,0 1.1361597715696132,-0.04892542973935948 l 1.5511503402791307 45.03656443298203" fill="#36ff6b" stroke="none" /><path d="M 99.27714615592234 79.0124445844662 l -1.278015759476499 -37.106293054529004 a58.12829525483304,58.12829525483304 0 0,0 1.0002865546011697,-0.025834450572554592 l 0.6391025696804502 37.12279429724392" fill="#4fff2b" stroke="none" /></svg>